<mxfile host="app.diagrams.net" modified="2022-03-11T10:39:21.667Z" agent="5.0 (Windows NT 10.0; Win64; x64) AppleWebKit/537.36 (KHTML, like Gecko) Chrome/98.0.4758.102 Safari/537.36" etag="0TH2bbq4POI4-FqQcb1D" version="16.6.6" type="github">
  <diagram id="ut7FTE8yA_DPMCTlcMEY" name="Page-1">
    <mxGraphModel dx="1038" dy="539" grid="1" gridSize="10" guides="1" tooltips="1" connect="1" arrows="1" fold="1" page="1" pageScale="1" pageWidth="1654" pageHeight="1169" math="0" shadow="0">
      <root>
        <mxCell id="0" />
        <mxCell id="1" parent="0" />
        <mxCell id="a9jTL9NMfUKS2hj44hUL-1" value="" style="rounded=0;whiteSpace=wrap;html=1;fillColor=#dae8fc;strokeColor=#6c8ebf;" vertex="1" parent="1">
          <mxGeometry x="244" y="120" width="30" height="220" as="geometry" />
        </mxCell>
        <mxCell id="a9jTL9NMfUKS2hj44hUL-2" value="" style="rounded=0;whiteSpace=wrap;html=1;fillColor=#dae8fc;strokeColor=#6c8ebf;" vertex="1" parent="1">
          <mxGeometry x="354" y="120" width="30" height="220" as="geometry" />
        </mxCell>
        <mxCell id="a9jTL9NMfUKS2hj44hUL-3" value="" style="rounded=0;whiteSpace=wrap;html=1;fillColor=#dae8fc;strokeColor=#6c8ebf;" vertex="1" parent="1">
          <mxGeometry x="464" y="120" width="30" height="220" as="geometry" />
        </mxCell>
        <mxCell id="a9jTL9NMfUKS2hj44hUL-4" value="" style="rounded=0;whiteSpace=wrap;html=1;fillColor=#dae8fc;strokeColor=#6c8ebf;" vertex="1" parent="1">
          <mxGeometry x="574" y="120" width="30" height="220" as="geometry" />
        </mxCell>
        <mxCell id="a9jTL9NMfUKS2hj44hUL-29" style="edgeStyle=orthogonalEdgeStyle;rounded=0;orthogonalLoop=1;jettySize=auto;html=1;exitX=0.5;exitY=1;exitDx=0;exitDy=0;strokeColor=#A680B8;entryX=1.036;entryY=0.563;entryDx=0;entryDy=0;entryPerimeter=0;" edge="1" parent="1" source="a9jTL9NMfUKS2hj44hUL-5" target="a9jTL9NMfUKS2hj44hUL-30">
          <mxGeometry relative="1" as="geometry">
            <mxPoint x="580" y="490" as="targetPoint" />
            <Array as="points">
              <mxPoint x="699" y="490" />
            </Array>
          </mxGeometry>
        </mxCell>
        <mxCell id="a9jTL9NMfUKS2hj44hUL-5" value="" style="rounded=0;whiteSpace=wrap;html=1;fillColor=#dae8fc;strokeColor=#6c8ebf;" vertex="1" parent="1">
          <mxGeometry x="684" y="170" width="30" height="120" as="geometry" />
        </mxCell>
        <mxCell id="a9jTL9NMfUKS2hj44hUL-6" value="" style="shape=trapezoid;perimeter=trapezoidPerimeter;whiteSpace=wrap;html=1;fixedSize=1;rotation=90;size=10;" vertex="1" parent="1">
          <mxGeometry x="204" y="200" width="220" height="60" as="geometry" />
        </mxCell>
        <mxCell id="a9jTL9NMfUKS2hj44hUL-7" value="" style="shape=trapezoid;perimeter=trapezoidPerimeter;whiteSpace=wrap;html=1;fixedSize=1;rotation=90;size=10;" vertex="1" parent="1">
          <mxGeometry x="314" y="200" width="220" height="60" as="geometry" />
        </mxCell>
        <mxCell id="a9jTL9NMfUKS2hj44hUL-8" value="" style="shape=trapezoid;perimeter=trapezoidPerimeter;whiteSpace=wrap;html=1;fixedSize=1;rotation=90;size=10;" vertex="1" parent="1">
          <mxGeometry x="424" y="200" width="220" height="60" as="geometry" />
        </mxCell>
        <mxCell id="a9jTL9NMfUKS2hj44hUL-9" value="" style="shape=trapezoid;perimeter=trapezoidPerimeter;whiteSpace=wrap;html=1;fixedSize=1;rotation=90;size=60;" vertex="1" parent="1">
          <mxGeometry x="534" y="200" width="220" height="60" as="geometry" />
        </mxCell>
        <mxCell id="a9jTL9NMfUKS2hj44hUL-17" value="2*n" style="text;html=1;strokeColor=none;fillColor=none;align=center;verticalAlign=middle;whiteSpace=wrap;rounded=0;fontStyle=1" vertex="1" parent="1">
          <mxGeometry x="229" y="215" width="60" height="30" as="geometry" />
        </mxCell>
        <mxCell id="a9jTL9NMfUKS2hj44hUL-18" value="2*n" style="text;html=1;strokeColor=none;fillColor=none;align=center;verticalAlign=middle;whiteSpace=wrap;rounded=0;fontStyle=1" vertex="1" parent="1">
          <mxGeometry x="339" y="215" width="60" height="30" as="geometry" />
        </mxCell>
        <mxCell id="a9jTL9NMfUKS2hj44hUL-20" value="2*n" style="text;html=1;strokeColor=none;fillColor=none;align=center;verticalAlign=middle;whiteSpace=wrap;rounded=0;fontStyle=1" vertex="1" parent="1">
          <mxGeometry x="449" y="215" width="60" height="30" as="geometry" />
        </mxCell>
        <mxCell id="a9jTL9NMfUKS2hj44hUL-21" value="2*n" style="text;html=1;strokeColor=none;fillColor=none;align=center;verticalAlign=middle;whiteSpace=wrap;rounded=0;fontStyle=1" vertex="1" parent="1">
          <mxGeometry x="559" y="215" width="60" height="30" as="geometry" />
        </mxCell>
        <mxCell id="a9jTL9NMfUKS2hj44hUL-22" value="&lt;b&gt;n&lt;/b&gt;" style="text;html=1;strokeColor=none;fillColor=none;align=center;verticalAlign=middle;whiteSpace=wrap;rounded=0;" vertex="1" parent="1">
          <mxGeometry x="669" y="215" width="60" height="30" as="geometry" />
        </mxCell>
        <mxCell id="a9jTL9NMfUKS2hj44hUL-24" style="edgeStyle=orthogonalEdgeStyle;rounded=0;orthogonalLoop=1;jettySize=auto;html=1;exitX=1;exitY=0.5;exitDx=0;exitDy=0;" edge="1" parent="1">
          <mxGeometry relative="1" as="geometry">
            <mxPoint x="228" y="240" as="targetPoint" />
            <mxPoint x="185.48000000000002" y="240" as="sourcePoint" />
          </mxGeometry>
        </mxCell>
        <mxCell id="a9jTL9NMfUKS2hj44hUL-28" style="edgeStyle=orthogonalEdgeStyle;rounded=0;orthogonalLoop=1;jettySize=auto;html=1;exitX=0.5;exitY=1;exitDx=0;exitDy=0;strokeColor=#A680B8;" edge="1" parent="1" source="a9jTL9NMfUKS2hj44hUL-23">
          <mxGeometry relative="1" as="geometry">
            <mxPoint x="360" y="490" as="targetPoint" />
            <Array as="points">
              <mxPoint x="99" y="490" />
            </Array>
          </mxGeometry>
        </mxCell>
        <mxCell id="a9jTL9NMfUKS2hj44hUL-23" value="" style="shape=image;verticalLabelPosition=bottom;labelBackgroundColor=default;verticalAlign=top;aspect=fixed;imageAspect=0;image=data:image/png,iVBORw0KGgoAAAANSUhEUgAAATgAAAE9CAYAAACfsn7ZAAAAAXNSR0IArs4c6QAAAARnQU1BAACxjwv8YQUAAAAJcEhZcwAAEnQAABJ0Ad5mH3gAAP+lSURBVHhe7L0HgF9Xded/pvdeVEfSqFfbci8Y23QDNr2klz+BkIQNSVhIsmksCQmBTbJJNmWXDUkgIUAImI7BGHC3ZVuSJUtW14ym9z6/qf/v59x35/ebkWxI0SJPfmd09XvvvvtuPed7z7nt5cyLLEtZylKWliHlJr9ZylKWsrTsKAtwWcpSlpYtZQEuS1nK0rKlLMBlKUtZWraUBbgsZSlLy5ayAJelLGVp2VIW4LKUpSwtW8oCXJaylKVlS1mAy1KWsrRsKQtwWcpSlpYtZQEuS1nK0rKlLMBlKUtZWraUBbgsZSlLy5ayAJelLGVp2VIW4LKUpSwtW8oCXJaylKVlS1mAy1KWsrRsKQtwWcpSlpYtZQEuS1nK0rKlLMBlKUtZWraUBbgsZSlLy5ayAJelLGVp2VIW4LKUpSwtW8oCXJaylKVlS1mAy1KWsrRsKQtwWcpSlpYtZQEuS1nK0rKlLMBlKUtZWraUBbgsZSlLy5ayAJelLGVp2VIW4LKUpSwtW8oCXJaylKVlS1mAy1KWsrRsKQtwWcpSlpYtZQEuS1nK0rKlLMBlKUtZWraUBbgsZSlLy5ayAJelLGVp2VIW4LKUpSwtW8oCXJaylKVlS1mAy1KWsrRsKQtwWcpSlpYtZQEuS1nK0rKlLMBlKUtZWraUBbgsZSlLy5ayAJelLGVp2VIW4LKUpSwtW8oCXJaylKVlS1mAy1KWsrRsKQtwWcpSlpYtZQEuS1nK0rKlHzjA/cVf/IU1NzdbcXGxXXXVVXbfffclT7KUpSxl6d9HP1CA+9SnPmXvfve77b/9t/9mTz75pN188812++23W0tLSxIiS1nKUpb+7ZQzL0qu/5/TddddZ1deeaX95V/+ZeJjtmPHDnvta19rv//7v5/4ZClLWcrSv41+YAA3NTVlpaWl9pnPfMZe97rXJb5mv/iLv2j79++373znO4lPmlKplLtIc3Nz1t/fb3V1dZaTk5P4ZilLWfp/RcDHyMiIrV692nJzL8EhfQDuB0FtbW0A6/wDDzyQ+AT6vd/7vfmtW7cmd4vpt3/7t/2drMu6rLu0XGtrayKllxb9wDS49vZ2W7NmjT344IN2ww03JL5mAjj7+Mc/bkePHk180rRUgxsaGrJ169bZ//yrv7HyykorKiy0/PwCaXO5VlCYr+tcm5ufdU0PDa8gP9+qqqqspKTENT+ooqLCUtImZ6anbVg9UWoiZcXFpTYzM23T8s8vyLfi0mKrqa62qdSU9fX3ufZZUFBg5WXlijvHJsenQvxF+VaoPJSVl3q8eUp/dGTYxifGLTc/z9NsOXHOcmbyraa+xnILzKaVjnKonEgDnZ9TPpSmOsLR0UFrbz1rw4MD1lDfaJu3brf8ojKbmFL5c5WnIqWjcuSq+WanJy0nN8fLPj2rOKzAKqqqbS29qlq3r6fXSosKrCAvz5Mpryiz4dERy8nLtbzCPJufmdfzIn82rDrt7O62M63t1j80bmMTU9Y/MGw9PT1WqIxdcfkuu/Gm662mbqWdPNVi93zjG3bm9BmrramWJl1rJaqryjKVv7xcdZTvPfzc3IzNqN0K8vJVN2WWp3xMpiZU5nnLy81TGxGGNoIV0cTnLT+v0NsxsifawezsrF/zPi5q7cXFJSp7vtpu2u9zVRe5eXpvblbtmFIcM1ak8qNgUAX5agvSm59LqZ2qrFDPFEhJ54iHim1mVvkVPwyq7vv6+sRz0zyy6ZTyaPmKO9+e3P+UfeUrX7PRsXGlSP5n9UztSBoFeeKbAmtobLRVNStsfGzM+vv67SUvfrG94Q1vsLKKEkvNiIfEL3OzyrOui5W53JlZm1ZW8tS+8+KF2ekZLz96UUo8NC3emJ1RGvLLU9tRn/nzKuuc8i4/ws7r2t9Rhqlbaoh6Sv/OW6Hq1etWdcADeChP6Xt48fOceGhejDOfQ5kUl7Lo7+o5L8yqrHqKp42Oj9m2N7xVdTXosnWp0fPKRF1Kw8PDXqn/8M93SZiKBGACOAGM6t0bpFDCm5s7pwYTo8tNTk5KEGts5apVrlaPj49bjQTTBW4yZUODQwKWCTHSjIBnxpmI2V0ENfwKPJESVRnheS4usImJiQCsEiyYsKCwQAKaJ8Ep9DDTEpYpuTExentrlw30DNvK1Y1WVSuAVFwFyjNp5un9HMHT1OSYdXa02akTJ5THCVu1psk2btxsRaXlAk0JmAvArECuyIqUJ9IoKi7y+3nFkFdYZKUC3yqBLMwLMBfqvUnls00dCwAwJOAtUZlq62slgJNWKrAsVL5HR8cE+NPWJVDs7R201PSchHhUAtqnepyxK6+8XAB3jU3P5dm+xw+onb5rZ0+3qG4KvX4KEez6Opksq6y6ulL5BUxmbUIgUUpHUVUuQE3ZzOSE8lQo0BIvSKBmlU91t+ReTjCiMlEfUGTR2FHhIsABep6u6nBWzz2M3gMg9IbXjQupmoroEGryw3up6Ql1UqUCvxIBh/xoc+WX9iDcqVMn7cjhQ2prhROvzs5OKQ7xREmlnTvXbfc/9Ij1qsOjI+Ndcku+nf/yc5zXaksrBZL9Njg8ZHfe+Rr7sR/9MXUw5epghpVv8Wee+FTvV5SWSBjNxiUXtA88Bt96XegewJ1RGnM45Q1AKhTPwWduGupdZApQ5BnvT6sdZwWgxEvnTp3AnyUqXy4dC5VP3SisgyV1Pq93vQ6pcbWH3smfTzoUatTrT/7c6L8R8UbTK+5wZaNSSsalRl6MHwTBkCwL+YY0gEzi/sYbb0zuvj9qqK2VMEuDk5ChsdC44lAXyDlpSAVi2lIBgDxcQ5qVo+GKASIxAyBRAEgIkMgXBMPSG8I4c7OAhBhF1VVdWW3VVTUCk+IECKfE4DnSXAoFlpVWVlbiaaMBTghAERzCwmTzEuSysjIrKCmQVjdiI6NDAr4JF0IAqER5rKkqU3gxn0AAZi0sKJZAVaAWqFhoNnkKJ+1NAge4r5IWvHptkzWuWGUNcitWrrI6gXaFwETRSvtAU5rz/FVWV0jzqpEGUeZCfuzYMdv36D47fPiotbZ1S/tTutL+CovKbV3TBlutjmBlQ61t3bjeNq5fozoutf7ebjt98ox1d3ZYW8sZ6+/pVv1KMMTs+Tl50nJmrLdnwM6cabWWFmmB/QJJ6k7aZ2GZ2ghBlsBKrqV5KGfT0l8lZ3MSrDkJ0uxcrupOWqUrKkEbiYQgR4BD0KJGh+CjEc7nzqieFF/OtM3l6pnaZV4J5apd59Up5OSrTgpK5Er9uqisSnVbrc6hSkBTKoGVZjWdJ4CXNlVQJi2s1No6um3fvifs4YcftYcfud8eePDb9sgjD9jZ1tM2NTNpU3PTlkJDVQNL+VEcdIolVl5SLn6Zl/YvTb+qVOkrn+jqKNECtpKSUrWPOuScApUlz0YnZ2x0akY8M2Njo1P+OzkpEJabkJuZUf3MSeObL1C589VhK6K8YpsvVluWqSOrrrUc8eaMOsHZkjK/LpHmn1NeaSnJRX5NrVWIN/JkiYzSkanTxg2pLYbFKMP6HVCdDiiP/cppz9Sk9YmHB1X9o2rfYZWlX/I0qI51XPcTemdC76TEj5cy5f2OKLn+f04g/m/+5m+6qYqG9MEPftDuvfde+9jHPqbevzoJ9eyEufoHf/AH9v+9/Z2ufah9nOgV6WFm1SCTk+MeN2CAIGDKAGL0dggPQoNDYACsWYEZ4XAOKAqPowdDU+AaweJZqYQ1Xz0f6Xi69JyizPdI281Vve/ahrQW/DDHZiUYgOeMhBwAnRFYzgrYxsZGbKCv1wYHBl27qF+x0spl8iHYMb8Q5aAOiY+4yTPPwIQYFqAGZKkfALystEzvVPg7Pd099vjjj9uBA4ettbVD5veQzNFBvZtrdfX1AkW0myKB5goJaok0uRHXADBve3r7XeMlD/UIksCfdPNUH5h4aIIjI0M2JhMGzbmgqNQ7mny1DR3MrLQLtN+pKQk94C9h8UaD5JGr+qGOqMtMB2XeB41CJhWvJ911BEHi8zAJEKLB4O11hBYi2aTzoU0IX4gWqnqiHtGCGN44Iy2u5cwZaXpl0ryKAyorLHU5pXBDI6PSTlNq6zz5iU/Uw1bKDEdbRdurV+eLVYE2tXXbNtu5c5fXEZoZdYcj7VnlbVYdIBrsvO6xFLAK8sRzOQLnQoEmBWQIYk6FzZcpXV5V7eA9rfKhBcNDk+LrSQHllNp8XnFMq25SymehALWyusYK1f5zqmtSkqCowcSn0vhzVfY5TFT9zotX0UfneSYeKBGP5dKh671ZxSlBsCnV66Askm6Zpn/7mc/ar/3arzmvXGr0AwW43bt3+wwowPaRj3zETT3G3y6//PIkxHNTBLif+OmfdvAJQk2/iSAEU4Q4c8XJ1WKGAjEMYxgIPH5cT8j8wITDJIHBUmIOGNzVfTEOwgA44QAszE0c43iACwKUSk162pCr8rrGP4ANgiqG1Lvht0DvVcuElLDoFcyqaQm5x6s0AbnU5JjAbUAAMmglMjUbBHBFAiTigiKYkUd+uXch13OugyCnhTuYKjI1lDYxRK2S/GOqnzrbbm2dvdbZ02Pn2nTd3iHNVGkozt5BxipzbO26tdSoBKXQVkizQ3gxl5s3NNv6dRvE3MUC5nHPD8KeJyDjmvoljaHhUWkmY8Cga2/zAnZFLzDU77w8+Kc8g3Nogzk59FahvEuJcBDli3VCWMWUvo/lT+qFcSVdeL4jjavzgwe8jSXcgE0JGqbepR2nplN29sxp6+xot+3bt9uLXnKrXX3NFbZr1w4B1XZp7LUql4B8LKUOoc6am5ukXSsexuCkcY/oGZ1g07p1tueyy6x548ag+atuJ8YZCplSGwqUxMfw8ow6WDq82F7iHAchhjGKBVC5eYCZ+EVFKVA8xdLWAMOUeIdhhRk9y8VsVbuopGE8Vq5QnWSZLJwCxeFDKXRCAnhALkf5nFOdzMvlC0Rz4BEB6ozuAbsidazF6hBzSoptBn7W8zyBZI7AbEp1OCz5+vt/+vQlC3A/0HVw/16KY3DffuBhMZJUczUmjY25EgZ9EaRZb/B6aSQ0AECC4FHsTK0HhmayYWJSzCJmY3wOAOEdxgoBNAQgagyNjY2uVTEQPTg04O/jAFqex3ijpgiY8CwlEw6tb1qaWnd3l94dVp6CFjc9PSlTOlcAN2RtrS0+ObCmqdk2bN4uzaLI44Ei8OIoG/lA4+U3lCX4O8ipThjk5t0VK1b4+xAaHaB+4sQJ++Z3HrN9+w97XhmXmxRgl5WpxxdjT5GnkiK75rqrbd26Jq/XVStXSgObkeB3qQNJWX/foHV29sh12ejIGNgioZQgCqznZMKR9rTMzkIB36pV9bZuzSorVzqyhlwLQrhyC/NVRtUfZVIEDGQj2JQhAlq8jvexPiBwKyc/aGdoP5jBhIvtRT0wPshEFCBH/UzPpRxoS2Xmce8gJ43I61Ug1d5+zr5w17/YIw/eb7fdcou9+Ydeb+vWr1RHiVk8bY/tO2yf/pdv2OmWbtuxe5vt3tVsx585aIcPHLTU2Jx1tvdKey+217/hjfbKV73aRkbH7ciRZ6yxvkG8UGTF5EVKFOWgUyJdoY7f54qXcGjT4Dz8QycCb05MSCNW+8GPDI9gsaAVck+8qcmUywbtCYAWKexKtT38McUkVc6sd0YTPnER5IHyw+fUFfyFg3x8s6LEOx46RmVOYQFw5U/P+3r6BN5XZsfgLiY5A4tBGHjHwf80GA1OpeNgHhqNBoXxnTkSUOIaogdFA+QeYCMOCIbjHWfAhEZHR31WFPMUxohgGV0EO0xB4olxFBfRwxIPGlUExUJnPoSPdyfGJ92sEyf6++SHOMgTjniicFMeNCRm+8gPExnEgX+Jet36+lq5OgfoCIzEFTSWAmtqarIrr7rStm3b6jPGaJSkwSRKhwCrs6vHnjp0xD71T/9sX/jiV2TOHrKnnnraurq6vN4RIgAl1KHy5Ka3TCb5M95JGOq0SGVmPLS7s9vOnDlnZ8622ckzZ/V7zlpaz1lrS4vM5FbXlvp6uiSkk/5udJQ38z76xXpw0mX0i/7UlU8AJHUGYJBX2qZCfMGYaJgICZ3ShNIdlLBiYjMTyUA+bUD7NDSstJqqWqsoF/hXlPl4a3lZpW1o3izN7jrbddlua2isVTwCdRetXNfUsFJWrlzlgH1W5Tx+6rTPVtMhMzjHpFFBQbF4gZleLAUmDwoc7OYSi2NIHeGIzGEAi3wyMTQ4MORudGjUxpXfqQlMf/Gf3LjAdFRasxKVRjijzrRXgN1lvb391t874B1qQZ5M0xxpdEwi6DdPGmLAtXyVsVqdZp1rf1PqBCakNs4KROdlzk8oT2MyhydmVM+qx0uZlgXAMctFbxRAYV69ZrkYUmp0wtQwNEACY7i5JOaih+MZwswzCJOLcRjCRxfBiXdxCALMDqiRJn41NTXuh9AAIIQBTHgPYOFZ9GcGypch6D3ARFl0QWJsDC0TgUOTDEIZtLUYF3FEwCPPlA8/nlOu3l5mPnsdKE6dOmUdHZ1uFpIuBPgBPIAfdYWwFEozXL+hyW564Q22fdc2yy/Ks2IJbrE0uDwBXonytXrtOlu1Zr21tXXZwaeO2OnTZx0ESJ/8rl+/ztasWb0QL/mhHcgz9VdcXGRlyneVAKWUMSDVwfjklI1J+0PomUH1+kV4FQcO05r3owt1lwY6fiHyAMV6JQ+8S71E8nb1tpQ2ojai7VxbEcDwdkwDir+Yj2iBxNkrTfrpp5+2k6dPW7fqd2Bo0Hp6u+3EyZPWLkAGICsqy9Um6iTnlf955UP1nFIZV65aaRs2bPD8+Fik0qcNBgYHfVnSFBNVrr2LtzwflClo52hltDMOfpiW9uZ8QRbViWCdqPJsUhrdYP+Qdaszwg0NDDsADg2OCKjh0Xnr6em3o0eO2fHjp+z4idN2+kyrdShsX/+gDx/0CSjPtXaobVvs1MnT1tJyztrOdViLOqLTCt9ypsV61TkNDw7ZmLT0CcU/7lpgetnWpUjLwkS96ytfd4ZFSEokmM3NGxw8Tp44KaaYci0FBkfAcbHIMBsAh8AgGIx5sNYHYYEZGb9DWGG2CCqE470AcBMKbzK7VnraaHU84x2YOIbjlzQRdsb7GHNh8oM1dSxLmZtjTROAKhCeHlW+j1h3R5s0uiKBy3qrqlshM0S9akWFl5f8RvDGZCFPOPJJGqSPZgm41gG+ZeUOjLxHGK69LMojNCvBT83liLnPSDs75L07y1Pa2jqUT4GQgIAtdGvXrvX1cMzyNtRXumAVq4ffvHmrNIlh+6I0PNZDYS6jPQq6HNwYh5qTFqHkkV4HGvKJNLO0JSx9YeyN8TkBOVq4/BgrIr+UNZaZeygT4KkHRpSkQ3s42qpUHRzXAWzpyYNmXswSGtULddM31OsAwbozH5sTW5AXzLgCadqsofvcZz5tn/zHf5TmVmFv/bG32lVX7ZJFUOCd2ze++ZAdOtpue/ZeZy+45XqBnNm93/ySfeeb37XUSK601X571ateYm/7mbcrPxX25JMHBSwt3pmlpG2tYJ2cNDs0+Vm3PpRR5ZdyUT4vm8rAkiWuyT95hO/go2CKUz9hiCVP9ZqTk+cdV29vn8C3w8vP7DyaKZNCLMVRUFHoMP2KhOWcp5Re7JRYWkK8zALX19VbbW2t1xsaOcMgmMmDivMFN96YNVEvJiGoCDQD9JiqrDljoJYeEKBxhtAvYODC4JwUGjaAQXCML0E0MMAHQwFOuChINDgUNJUwQwmwIUy8FxkRECE86eIgBzxpPDEuxnmcURjUyZlzoQGASUPFEMNUucMPk5ByRJACRAAcwBsNkvxCLtwCFNIi3YGBsFgV4CEeND1+0XJIhzh7urusv6/LaqorbOuWjbaxeZ1t27rZ1jettXIxNMtdujo7fYB8p4AOZu+TJnPgwAE7evSIxw1oUybSJz+M123ZstnBv7q6yuOukKAUlxRaLiZ6ULyQV/8fIaVzib8xAHUa65X4I1EP0eGffiKMYPxO/tRBNP293RQI05f8oulSdhzjrdQJ11gDrkkRt9qWdONQAkBBB1NcjJbNBFXKqmsrrXnTWluxssaX4jD26JqftLgclXPLli1WpbZC4+1UG46g/eg9gElJKD34A94VRCt/c/ir7MJdn+RJKQ/MiI4qj4PDIwKtTjt0+Gl78OGH7YEHH7SHH3vCHhVw7jtw2Pbtfyq5fsoOPH3UjkoTwx06dsKOSetu6+6xTmlyHV3S8qWNn21pV6fWaufOddrI8LhkZlZtVWubN20RH2yTZt7sk0ib1m2wdavXWEN1jZUy48p6GGWQZUEssbqUaVkAXG4eGkEAInYwMF4xJO0OjQcGRwAApDDLRw8ZhAXAQ0NhLASBwEwAFAiLRgRTZ4IbhF+8B0ABJ8LyXgQMXBy3QeDju2h5CFlJcYkDEo5ekFX2mNRoPSlpD7wP4NbW1En7qrBuMWZYUU9+Jxe0NuLlPZbZMOlB7xrTIo+kR/nIGyCMENPTooV1CrAAdMCHNYFjMrsmBH6MOrLwk8WgG2V67tqxzTY0rbGJ0RE78MTj1iHzt7G+TmbXeqVZ7/GyKyVMZAAqTOjU+YQGIOxlFEAVF1NGmesVZQJ5AbDaCQ1PkuLvhWyrXhOHFg1Rp9RlNCu5pk0oZ+iUgvlNBIQN7RNmvDGfyQPt5O07M21jAgrqgPFKgI0Z8EyQw2ykjtFg0XqATsZM0W7YpcFY2mqZ62Xl0mbUNk3r1tjadSsE3ABoWDs5Njbh2jnh16oDqlIntaJxhTU0NHpbdMnUK1S9wLO0z7icEE/tV+bgqS7Mzcb2zl43JQ8dPmpP7D9kjz9x0PYfOmInZEa2dfZYe1efnW3vtONnW+2IA9lJOyKr5aTMy+7+AUuJr1nqwZIP3JzqZk7lmGNV0zzjwaXqjOps/br1tnv3Hrvyyqv8lxnjTZs2+TrIOmlt5dI4WQhM2dDmMZOZyECxgM8uZfqBLhP59xKCzjKRH/vJn7KNG5vdvGBZAr0/FY8wiD9dWBCGCFoQDI9DUKLjflZhAQauYWoomkJBeAK4xecIAAIa44/gSLiqqkofV4sghws9NvkgPkwv4pIQKW7xuA0P9kuj6vR4tm3d7ot4O7q6fVwOIENweYZQAi6Ms5HfhoYGH8wG5AAVBrpdsxRDUg/knXAIWARkwJ74WJjKWrBJdQBsVWPHw4yeV0qA10lLZC0XM3HibJmifSpPvq1Zu0ogtlIgUuF1oSpw7ZDBecrc2NigcMwoy7xS2gUF0u6KCn1NGNuYvONQ9QYziI4iWd6gOkID84YTUY/UH2XiOXUeHfe40CZzxhYpyg+wFauzIAx5w5SmzFxnju/RvTMXSN69DPKjTqhb2oKF4udaW2xAYMWM8rr1a61aGhwLcE+dOudAw3hlRVWJDQx2W0dbq7UIkJ4+fNyGh8Zs167dduerX+U7ZxispyMeVptg1tXVNbipqqZXemEciw6ZpUw9Pb32zNHjdlyAdeZsi52SWctM9cDAkABYmpbaNCdX5qpMa+mYvswD3lcCrn1GpwpwB7DDP0wiVcpUrlUZamtqnZ/QtBkjbFq72jtk50m3hmQF+Sy46kp/M/oljtS0+AYNWfmlnZhxZ91qdpnIRaA4Bvf+D37YXv7yl6pXLfEtSOPjKWdUGpGtLQAhDIyQIxDxPgpAAC9mEGeNdVlQFCKI536le65dUBSv+zPiq4fEC8hFrQKhRHuorql2jQ0/qrpPjDoiU6OkVAJdkOt7GYeGAhDRM7adO2XHnzlikwKK66690a665jobkFCcPnPGAQwgwOykDDAk5hZuz549AvmNDqolApIxCTVm2KA0FXpbCMEn32gwfi+NCHOysrrO4aSjo8vrFGAc6B+0StUtvTgab09vj+p11IGCbWGNqxpV5kJjpwWzwGNjk3bsmRP2xBNPqC5zbevWrbZq9QoHHoRlbm5EabC2DKAXOCGMicbMWrSCfAAsbJEStLjOgWBhHiI4AcRCx0Jd40cdR+DKxdQvznMtj/fGBVIALu1BOMxNOhEfpNcfceUW5lgh2p3wlNlK2pt3GeJg+9X87LQdePJxletp11ZWr20UcK9Qevl2ROAzIF7btHOjNLk8teOg1asum1atE6DO2UDfiDWtabIXv/AFVlRSKjNzzidWWE7T1dHtg/QV6hxozzgz6jwkcxUNu7WtLVlCFLRw1grSRgCi81nSMeYVC+CV18CLgZ8jsfWKBcnRxF6pTocOq6a8yodH0LbphAhHh8JWNAANM5ttZOTH1yTqD8BkYbq3j/xYl0neR4aH7KUvepHz1KU4BrcsAO6qG2+zzZuabdflu2zztmYbHO6zltbT1ry+2bZu2K5GCSvm2RXgZgE9poBJ7eQMT6Pm5rANBvYGxORodLBLYZjlpJriYC4D0pi1DoCKZ1qMgT/MRY/GchOYw02rslI3UWAGFpHOKB893X02Oz/tABc0KuUBzUEAcvbMCTt+9IjKNmrbtu2w6254ga1au04awoADG4INuKEpYdIyS3ro0CHXWNj6tnvXTjFauecZYs0UG72ZWeU98oHAk3c2xLNUAlWGQwMANmoADae9vcMFj4MDWMWPUA2LmQGrYoFItcAWzhkeGrFGaXKFhcXSXI7YI488IiHucI1yjbSCCkxSX2CKXZRjKcaalBb1k6POxAFwGo1KdSuNhGyzB3VuTsI2P6trhE/mvdLHRPJOSoLJREG5NB6AgXHQouJC5Ys1bmFvMB0dwOC7N5R/kIE0EVAXWP3O50iQFd+MwMeBE7BTodBUAFnl1B57+EE7+vRhAbnaU51SaVml8lRi5zp6rHlzs73oZTcrHg4k6BVgldu2LTtsTWOTAD+lthmVViyQEq+wgHyaZRXwlMCKGU6W6sBL8BwAOi7rIyXTmIMGACwqg0XBAC7jkiwnYdYVM3t8fFJ5VbyzMq8nx3wXA20En9J50I50ND6RsWql6qvY+ZG2ZAiCOqBzCAcccOhDSvEzJCCenGafNQAYxi0LC5lYCLxKvfAMbbxc2mBfX6+96AUvyALcxaAIcG952y/Y0SNHbXRy0C6/dqvVrSq0zp6T1lDdYC/ce7vU741qIDH5vBjH2M3AQl8GkAPIAXgSOWcg8R6avgQhrGtjVbr36wyqqmEBA8CQWU+vOpleYl0XEBgs9MaB2WAKAAkBAxDpMWura329EoPGvM8YUL7yIdESWPTbiePP2PHjx21Q2sfGrTvs2utfYPV1zNKGwwJgLp8B7OvzcIAejIt5wywX5kZlBVvImIgIpzsAoIwvMVaGVkccaDrRpJ1Sfhn0Jh60Ojabnzt3zsNTDrQ8wIFxK0CSMS4Go8sEkDC2g4OeMxHCQQmEQXgoH+2Dq6trlKAEEwZwzdQ24i9+UVMLZn96C1wMT5vE9NBg+eUec7fItb0ADoyp8Us5aQPyQ1n4JX+8EyZ4wsJs2p1xMbR4BIJ3WMPGoQ/7n3xSILHKLt+zQxrtOusbGJcJecwu27PTXvKSWzyOUYVly1R+vrQbAWWuwIyZ0j5pdjFt0uEX8jS9nGE2M5bbDcLEH8LfQV3l5Jryxzj4JRwdNGkAQGh18X3qjFlu3/eqOEJc6sxkembGRXtCIY08rx8WFcNTLJMR/HtdEz9DF1RQbAf46tUvf/ElC3DLYgzu19//ftu6c6ulpkdsYKjN8oumrbQ8nK4w3CvhlWlUXVVrxYWsjRMzqZHV9gtCQ6/I9Dq9Kf7egqIgcPrVfzAEY0nOUG7G6l3C6TkM4M/lPH790jsThuUq7G8FZGAKtBnGQUgohGdmj2l/1hWNWJ9MQUCoqrrG1jdvFNNUq5wwbwBRtCxM0u7ubjt79qz78U0LgI28jY+PuSk5Ig0Gpk6lwixuFJAo4AgwgIi209Xd5bOglJc40JpiON5jTA2QCoPv4y7QHCvEL8s8qC/SoOp4j0HpuEeXXr6ygv2yQQsgDSjzGuI606FFQ9QZeUDrjIJLubjHn2sPp3RnpHnwLkLLexDhyRtliY77INghDUCN92Id6cbrJwJ+09omH3jfumWzNKKV1t3TL4Eetg3r19mKFY2eFnWDpsWM86g6J+qfSa0pmbk8J70ISDiINDOJtnSkToh790uIsoa6CcuB+I0gzTP8qGfyjaPzYhKLd5IkvcxlsiQoX3yHusTxDs9jx+JLRRQ349rkI5xIEtqOsvjEjPjxM5/6ZHYM7mJQ1OC+qF6W89WOHj9o337gyzYz328lFfM2MTxr545OWF5Okb34xbfbddfe7GNGvoJcQgkv0XBjo+Puzzgc7MXAOJUSt8GgwblACs0wL7y7Z6pcNJsjxmUNk7+hCuXPGSqYCACbD1rLDw0OcKupqnZhwBwqlwk4IWDr7Wq31jOn7NSpE66dbdi0yS678hoBHTOVKQmOND1pKIBbW1ubr2liM/xll+1ZmHzgvb7ePmktCH+ua16R+WF2hDA68sR7MGWrtDVmnSHMXgCNOqJ+0TABKcLyHlqaL8HJL/Q40coQYOID3OjJ6dXjroqVK5mIYGaQeonaWdAuoGdnP8aEgpZA/qNQhXpNAxz+ELsm5qWZIKR+rzzFuAkPcU943iNeFvPGuPMZi1JdKWMKp9zKj2eJBefhpcZLqCel1T3kJuYtL7xJncs6PePUj7BEiXVm8BXcAp9MoxEq3aXl5D7ySSSfGFC61Ay+MQwdL52yl1f3hCM/DCX4uJjucWhvzqcK4+/p2smjjYuGpdUVMqHFXmHlTe/EThltlw6RTpL2p47jxB0dtdd7vvgpiZeOgnZ+42tedclqcEkNPL/J14+pJ/HlFwWMc6mBZ2VuTOf69pRHH37U/ulTn7YvfPEuO3rsqJt1AA+a1WRKmhUamTQuGhqAyocZnFHCcgUYigbGBIFhmUWSUug9P5oV65jYDhP2k7IyHaZDVhAetD60TZafSKMcHnHtKw7mExaQZuN2NA/QFIsFHorAwWFlY6OAsTwcByU/PzhSzMgi3jJphC4NyifgySwfoAaF+MPWNBgYhuWMsm3btlhTUwAsQAgtzBkXAFJd4EijVPVJfbAntqOt3ccJV69cJc2lWXnmtBfiRNNheQpClOf+DMQzw1pbW+fgWCENDuEBEAFU8kEeEdggdGlHPoNgUqiwdjAKKs/je/hRLgQd4OOa51AEBhzXERhjPfA+8eDIC3WMC3ljqVHYuocAQ4TnXfbNtp5rs/a2c76vlrFATkthEgcwxnxzJ+CclNk/IcCNaUMx/VieSAvP5bAOHEu9D1b+9es8KP/AX5i6DJdQd7Rz4FGiiOWHSMtBkPoRn86xhEXdDPlhnJi2Z0Ez/IGLnRTgxj3loXMbHxv1d/DjOTPsYXlNGKdjz/KlTMtCg/uHz3/JKmqqBFSTdqb1GZmqw1ZeWWBjIxN27GCrT7FPTM7YuZZ2MXCJXXb5Xrti71U+rgKYUQEMcLPKnfM2fJyCrlsch/kpuffGpKp8FokXpMEF5gH8AtN5D+61KYAQGPmROmJ4QI2wxMv5cxxwKA50LaGuvtaaVq+0iZEhe3zfI3bwwH5nssuuvNIaV60V2BVZTWW9NMxCH/ymx6TcMF0UFHpy1p1xxJELlHGybdgmRp4BMYQUYYbxOeQTgYZRBwYG9TvhZjHxofWhBcHAMDXl5hriHcKUYf8LvDHBGJvBrOFoJwhwoMwDA8GMWwAx0ta75Ie64DcKDtfky+s3ueagRq5Jj3so85c4+Y2aGhMTPniuICEO6ib84hc6mvCc98gDWi7545RhZgXpyPhjYS4AgLZMl0e9kY+BwX578MGH7NjR43b5nivsiiv2KGK6AAZBlH/lZUb5FjfYLP56h8MiSYO0oYU2U/rkw9vL8xXKNitQi9eEyaQItCHvYZ80EwKAUeY7XONimjF+rzPdMzMaiOchLI53qU8o+pFfckHd+GSbWz/hOfVC2re/5LZLVoNbFgD3qS/cbeX6FQ/b9My45eQzY0rvNyczlVNaEe4Se/zx/fa1r95tLadbrLK61oFu567dviMATYPTHfIFVuLN0KAc582xPboHnCBnBGky/DLONj0tphCThh4xnBwSGQONAAYGSPCDOKK6AOYXs/EME3WtAC5f6ex/Yp8d2P+Ev3fzrbfayrXrfZV5f8+Q1Tc0+gwYK+IZC0EgWZUfFwADcAA2+Zidm7LKqgofH2KgvKW11YEkMj/CAfgBThDCD8CRf8bl0LaoW5gWUGMygllLtFhOT2HD9pQ0X2YpKSeMDSgSN0zPu2jJ1AVakhPCqbD4RUf5EahYN9Gfe4YJoj/ENc9Ij+t4T5kQXGZD5xOTFke4GJ7nlJn0HGzlvJ7UFmhsDKYXFnMaskhtQx3wHhoLY3u0M3UyNDxkX7/7buvu6LKbb7rZ1m9YbxPScgjD4EaOOjm0ookp8QJ8oziKc4K2mlm26KCgLQV+wqmF5JvwisoRKb4bywV5eJnNAFWMPz6DYngo1gsx+6LdjHBQDAfxLOYJf3ZU+Lg1f3pGeahDiM7zta96eRbgLgYtANxd3/C9h4DQfI56oFyOxpGwSevJF4MBBmVl5Qo/4sfVPPbok7bv0cfs5Omzvrr8sr1X2jXXXGvN69dZXYW0FHEBs0ccwohazzojxiwQBhqdXozfoB3AGLkOMtEkxEXzBkYIYQEWhJDxmnEBMSeOYK7kWAnfBJA5c/bMSTv2zBFbI8C95bbbbNO2nRLEGTt08IgNDYayhnjCEhSuARIca+4AOQBjaGRA5S1xwAMsqadgfoy7BogfwAXIwcCYxzB0BCX8o4YAIfD19TXO4MTPCSOtre3W2dHpcVM3LIUBKGAm4uEsO5agAMoSO8stKELiFoRwKdtl3ofr4ChjJmXeRyCjPAAcm9GDFp1OA0cYgJfwhOWaupiYGHXgYjiAmWSeMw5H+VmCQduVcO6a6prrnt4++8Y37lYHN2O33XKr6ne1gLE47AtV/XHUE2mNTU3YwOiQDUv4C+bCTgzqF56IIAtIUBb8qNNQZjQ4yp8GN8IQZ6QYLtZDXIcZ/eNvpBgu+icwtVB3OLQwImEsEX5eCKt29fWh2MmKhnxzYjb1Q57h8xG1/5ted+keWb4sZlHf9EM/4utyxBZqSTWSGoh2zWETe06Y7QNcWB/EaRZrVq+1pnVsNVrpY2cHDxx0YEEbYuEn25/y3cQMq+dhAsZbfEM2Qqf/w0dtwlYtGhzAwKGRITQwMuvG2FTPdWAiVTigqXsyGFbwi4HELIP9PX4+HFrCyhUrbW3TOoE1wltiNSzJEEADUghEYMpgosJ0CCyOe4m0M93Y+Kg/g3gGAAJAEPnmGYxMHcb3uUazgYgLwYz+DEjD1JwgwdosAJpZZOqdDiSMXRXIP4zfxA4BoCAdDmKEuI4O8jwv8QtCHZ5xHYU0EsJJ2Fh+D8cDjwNZ5J0gyoxjKZs+mM5iar8mGTnWIdLGEOa/A42uGVQHAKkLyg6AsWj48NNH7PixY774uUmdEGOqtCFLKhgm8LySF+WpqKTI98CyoJf80l7kOQIXv6QXyxIJ7grlzyhbcv+sv6rrzPt4fWFSGNc3VcEKQ9KxLkOHzXsxPvhdZrRkinx63hWeE1kI55256i07i3qRaEGD+/xXrLwScwsVXCziwpGjHrXQSgorJXgCtnJOasWEkJBOTFl7e7eNjLLfMGVtba329NOH7cTx4766fseOnXbZZZfZ9u1bfcuRIvWV7cxAUVmT6qHZ0A6wwQQsmQAMMPUimNGjdXV1CzR7XY2HIQAWQJZxOIQgVL3yKwYa7OuyljOnpBW12a5du+ya62+waQknJ43U1TSKqYp8bRpaIiY34yELv4orMjRpTM9MqlzjDk4RfAFdeli0K4SXfCK8/FZW8G2CYvmHzeYwajC/p93frwVcpANIYL4z4RIBl/FGlhRAvEM8Q0ODnj5ry3zshtMoaR29G4U8CtaC8IgoRxBSv10gnsd3AQbCEX8su08KMUGiMKFeQ/yZ9xDhY6eVkzuzEAcaHCZ4OGgyHG3knYi3b9D4HnrwMfHKOXvBzdf7kpFx8Q/nuAFwLFFh7SQ8ANDnyYKADyYnwhIR8kCakMer68x8UgYc36ZwrvBnOPypF95NlyNNwQ+Q45r3YrxL08AB+rnzae3cNV7kRonEsBBpkjb/9KaPM0OM4sHrhIV/2IOc1eAuElHBaHBv/qEfdk3I24QG5xBB9VJunubLJFGPUy6TjU3tLIPgXDKElE3sNBb7WNc2rbb165tkms7Zkaeftsf27bPWM2d8fIVTNDC1wmrwsBjUBY6GZzxOqcLUrHYPan0QOtJCG8QPTUZc4QwFSDBuBxggBCxXmBgbtdGRIZVp0rWtuoYGxVkkxuGctwEf0EfLAHyI27UNxcevl1rX0QRik7cfUaQ8kgbEO3HsBP+onXDt28SmOdM/nGHGhAtCzQyvm18SLgc2AQgzruwGQSgAAsomhA7xCKg5G43y9AtIkUmfZaOCctIgvPQ3EvcB3EK8S597GnKUkWcAFb8umHKCrHCdUHyGS8eLZpL4+2Z/ZsMDuIY9sxwpHw5IJRxxco0AHzn8jM82b9660duWJkXu2bnCzDog6e2amvbxUTR1vqcAkW/v4OS4Jn2PX3EvAK7uCY8WCFBGjSr8hmuVyl3wj/WjeJIw8D/x82whTgWL9RnC8B6KgO51G8ORJ4ZNCM/zUG8K4+0c8kn5uY75p+4+9Y+fyGpwF4OiBvfPX5QGV15BMzvTsTWL00k5zqW0uEBaWJ3V1JarodRgEkDWcA0OjtmT+w9ZT2+vntWoldUjSZsDD1pbWu3A/v124sgz8puwLVs22TXXXG1XXr3XNm3eaAUlhdLiwhILQIWGDsslWBgZjiuCWBoCoAEyABSzo4N9g9bV0WVj0n6ChlXkK8sHejuts61N8U36eXZNzc1WJxN6Svnp7R7w3RYIH+NsgBRpw8jETfpR2HESOWlOAcwiY0K8j0bHO8wQxrwDbphahOUZ4ZiA4BlaWmRmwJQOoUBmaWpGdSWBDmmGcRzWTjEUQFnRXAlLuxCvdEvFkwacZ2M7woY4w/MIBoAa1/GXcOSTX54j4AVyPIOIIzOtdLyxjghEJ5EApoQYjZiOirLTmXjaKhPvc4Dog/c96od7Xn3dFdJsC1VvsA07IZTXXIUTD9E5qKJQ01T+Quxgj4e6ox0AAeqYDibmhXaKND2bBqaYd96PeeY+UghDeUP7QIB2DE88kZLHTjl82it5J9RNeMh7XIc0iScBQeWPsNR3gYA3lodwaLZ3vOIll6wGtywA7tN3fdU3hotFxVdoVZhq0jLUEKNDAFiVNLRV4rUcN9UYX+Nkh6HBUTsrMMOcY0YNpuazcozbzIoJWft19vQZO3P6lG+Abmios8v2Xm5XXHWlTwSgnfiXsebE6apFKhJzjnEp1obBFIERwjN6y+H+ITvLZ/f6ery3B+TmpydtoKfD2tvO+juccb9yzVorFcPkSQMdFhizsJeJD5ZxsIc0MiczmQCKRCGYaZ6mNDEBJcLEBAHv+LHXw0O+SBcNNHzYJAx4kz80Bi7wywQP4uOXvAKIpMFJv9PS1oL2CcjJT4LAkhmeIwCkgUDTBgBHDmaR0vGlGHL8Kmp/lzTCNb9RuINZ52EVR6YjIvIUtJwgnPwvOPdngfDhfcqWhMmIP3gIxARgjCcKIYO/HCBHOpzsQUjqmLPvjj190vZetdd27NqiMqmeU/PS2ktURk7bmPZPFPKXB+gAaMpjUUU46RlAgxcYLgD46aDQoBfyIuJ6asY5xa8x7ckAZQhAtpR4N5TXLQMAKZl0CGUPIObR8B/x+v+qKb9XNtWGUbsLkwykS90G/sIxfgrQsfaOMpFv2p02YA3qq1526W7VWhYA94//8lVfu4RA+XFHaiiYE9Opu7PNt86sXLnC6mqlydWEvZH+lXcVnQYeGhxw4YWRp2EU1QgMiPCzl481Xvv3H7TH9z1hpwROLFzlKJwX3nqbbd+xQRoiJ4aU+u4EP5pnCtCD0dgsHQbjc107KJRMzdn40LB1D3b58dcIx3xqwga7W62z84zSLLIde663VU0bBXClApNcmYnSAEfD5/doLMxHNDE0DYC8v28gGZsLAj8rIRkdGfU64py4sAym3GdQWQ4CgwJkOOrM1+cJtNy8Uj1EcHMwUXwOWqorBtL55ZlER0wu00xaXBSWIBABUAB6wuHhwqW4ADvCYNZQJ8xYki5EGA+HEOoH8ERoY5yBTXFLKaQNeZCEQlzhKdppcisK8ftv7pSXGZDDLET7ou08Lf1j7zGuf6DfHnjgAZtUO1xz3XV+Fh5LdegQ+TobfOIdGbWiuBWzx0Et8Q0O6h5AoN7pdLjnuXcYejfwXgBA2pN2gbz+FB/tAJ9wTbqAtPvxN68OipRUV6EzBaT8dW9XvyEvag+KxXtqHjfH/X1pfOTB+Ubp8qp30siPnrKQnaES+IR6Ik+UJXaEY2Oj9sqX3podg7sYBMMwBvfWH/tpH8yOgomjcR2gZCb4QYcCCGd6/WMTOloQJiX78mA4VvizRalSQAkT9vf3+awmmgja4Zo1TTJPt/rSCwbR7//uA/bE40/amTOnvLEBOA6nZLcB4BbPPHOOoffTNYxZmFtgZQKnwpICFy5Wp6fGRmxooFvXEzJLV9jKVRsEiEW+YBQep+ckLgAsCpLPGqs8xInGwUGZMB7hwhHlQYOMPb/PaIq5qTMXPkXMc0xKTE7KTH3xzCcv9DxqW+BGqDvSI040sUSb0r1rdck4TdQGPDyUxKHADnDUVRQOn5lWmjEvHo7S6dcF2O+JIvyGylzqAi0EWUrkIwnmQfy1xE8dIOlyHLyPYaEBKhD5IU1/JtfT3e0fya5XZ7FhQ7NbAQAGJjn1gHZDLXn4RKv0tlVbMUgXwQsiXtqA8lHfoYMJ7Rr4lckq5SMhOhXa1a+pbxFtpiRCoZVvykW8TIJBtDnPfUZX9/AjcfN+1LxIj04k1kfMP87jSOo/5oUlV7GdiCv6s+7vHz7+t9kxuItBUYP77Fe+JYEP68LUNHJBcGmIAmlANCQfDqFRGfNiin/9+vVWztffeSe0qRMWAp8eZMby4MGnfNaxopwvc1ULJPiYLwtG5+ypg4ftySeelFb3qF6ftRfcfLO98IUvsMsvv0xguMqmWdEOCKh6qWE2s0+kpmx2XL22POby5mxkfNQ3Z/e2nbNTzxy01OSwbd25xzZuvtzmcotl8iAEjg1eNhiUMTGYK27tQmMEMKLJA8CtbOT4oqLkAMqgybFEBGEiHPVAs/NLXAANwkA8EQBJj1/qEMpkagcpCS5C7GFVvhg+kyQuQQghen/KoHscZq5rnEmcvBsdlAlwSym082J6trCZxHuZDiWF5S/kM/5RNuoQIPA4pRE9fVht/eSTtuuyK2zPZZc7CPGMsPzGeuGad6ln13LUsbI/FsIfolyE5xeghAAG8kN74M/73Mf2IC6GMmIYfmkPsscxSmhwaNKhjbAaGFv1qD0sfEJgVhAQfxyHZfkH4ZksAhQBeY8UEihSH6TLOX3kiXxHfnAekGPh96WswS0LgPvk577iWgitGho09DQ0cqEaBg1tSozCcdQwHVuoMN1qpMmhccFozIqhhWAc8JUnJghOnjzp3w1l/x8gx5IADmfkNFYAY2x0wh5/fJ99+YtftANP7JOmV2kve8VL7EUvutVWrl7pZhg9PAzCgYWo+7Myg2dl6szlY6aJqcRwfTKjjx89YHMzKdspIVq9brtNzanHxdzIBYgCM0Um5xoTnG9gRiGIwkFzVpTxDc0wmI354+ElYNQLYSNFgEOLijPD0UW2ID0oMne8lzSkw2I+KXzmO4QKM3uhTXIS8yYCHMCmKnHNAYrvLv2FFtJMaOk9lBkeWnoPLX2vID+uJ8QUDav7mQH2cVG1G8jNHufHHn3Uz7i74aYX2tqm9f4ckIimZSTep4wRDORhM6lwbBP1T337MIP8qTfaKKQfni+NI4AYeQqLkJeSa5AX8PfxMiY4lhBxUd18B5ZrAI7On2EafuEpNEZPH+AE5FRn5eJ9KPILfvziWHP5klsv3Y/OLAuA+7//+M8CqTLviRjDoOJpNAZNGRSFWRi7SGRJDMMJqWHJA/4AXI1M02JpdIyV+aLP6Rn/RfPjBInQqPluUqLys6m8oqLKz/w613rO9u17xB59+EE703Ja5m6V7dyz07Zt32br1m/wTedomCSfg8YgxuIwkrkcmYzS4NrPHLezJ4+6drn78qusfuUGm5gmdDA7GFNEECLTM2FAq2Ge0nzkDefMHl5bROE5WkYQljBjGrQBZ1g5HxeTIyxx4rjPjB8X43NrjnCqCwc4J97juZz+iJvJB9IWNHo40sF5NgUg/stLCaWveS/zF1q4uACl44Ay41xKC+UAxJzSphfxwDd0dlRZR0eHPfDA/f7s5hfeJs25zt9Ai6N+ADmIspJmrEPC+zH0c8E0ZTiEYQOAhENIqXs6WtbQhfGzWedDrpmZhOJuExagR79M+rcAHO1S6KcnC9D1l5oOy4XQAP3kaQBO+ee7rNQS74SDYsNJ2PAh5aO8gDIWyMtelD3w8qJQBLg/+euPJSZbqHTMUzQSgAATNJPpYBqKzJINbyj5Ifocw00jysPH7BiDIK4wMxUEAl5CWDm6iF7fgUJsQKPT+KNjI3boqbAr4lxbm6fLbOvW7Tts8+Yt/jWqIr7gnq/49I8edGyo31pPHbPOc2d8omTb7iussmaV8SUlhAzzMYBCMKUC1/Efgh/ShsgLLenAJRDjJgodjrD8kifKybPIrPP+LDAzFMNGuuC966eJXwJw+C+QvBAU/HB8iYn0iIfQLpaqeAe7jLj9uVwA5PAuFOPJDJtJwT8N0Gm/xeWKvx5OYBPHzEiLtZT8AkLwEBrcyZMn7OGHH7a1a9fYjTe+UHxS4m3NO9QlccNXMe5MAuByBViEoc6xJPilkyE81wAlIIZmR3uzxIj4uae+CBMXZy+lfy3AQcWFwQqBsBBmfBUA8YjfVBfKbOAL8RjrRykbJx5TBkAZIk+RyNcbX3N7FuAuBkWAe89vfMAaVzQmpiZnlKlxxVg0nG8sVtjICDxDuMN9hgDJz6/lqBIug0noj53il8dhLGcuMYJ4SbEovN6n4Rkj4zsLfGP02DPP2PFjx2Uaj/rXmDZt3Ghbt22SsHBGGjNpszY80C2AO2q9XZ3WoDDNW3ZZSUWNNFAJhdJCKwUI3LRjpT5p6Y8yxHKQl0xtjrLHbOO3tIkJg4v+XhMOKIEW6iQJB2XGgQAh/H5NPEqf5+QHgeAaIfHjl5L3cucVv665V+hQHvl7iZIw/EZHoTPzEX9j2PMJ/3Q8EPnhmjrKLAfXHhd5RFNLnoXZ1nDPpAza1ONP7POPPjO2ytfrGRYAoBB2tDfiJs4YbyYB8IyQxTCxfkL84dSV2OkSH8DGR8tJm+u41jG6pfRvAbiiwhJvL/LgE0XiwdAGyiPp6Bltx4ESTCwETdV8LJc8wuPRnCYcs6g//KbXZgHuYlAEuJ/82V90JqmurvQ1X4yP+Rom8RsABy0UUp6RiXXjzMB19HMxUWPTkDAf4h+ZiLE0KPSscdCYtWFx0DfHOB2YwzO55rsJZwR0Tx85IrA7Zt2dXdLSSm3r1ma77IorrWnNKpubHrOWk09bf2+vNW3YbGs3bLXC8gpnXumIriHOAXAISsKYOIQlgpIvSRHRlOQVYEFwadmwYJP3CBEEMPOaXxic26UgF10mi/g1r8rfB6iVD0lJkkYAedL05SP687rzjITXIGJzE92vQloxjfSv//iz5IokF57Hd+J9oMVaawQT10iSeEI+Q7nmlEfuyXOIL91x8C4A88AD90l4B+2666+3zVu2SrjDycLEicDzuzgPaSLFPD0ijbCTJeTbneoOC4NApM8zhlU48hzw4x3iJ+yz0b8a4JSGbBzFmeRXv+QrAFwYf+QRwBx26IS8YKICxoBurFeItLGEfuiNr8kC3MWgCHBv+4VfDoyphkGLq66p8u1OHPFTpB6XIsZisiQgfL0eiZNwRoZLGCmGc6ZTw/PhDfx4TA/Pe6yXo5GDOQx7ACLMhpX43ta83DABACBNpqbcpB3o73eQ23/wMTtx/Gnls9Kuu+Zq27ZxtU1PDtqU3mvevMtWr99sueo12YCfNy8BFUsqdgcD8uGAskDhmrwjaJCH0VtpoQV8eBbKt1RgvLzyihqs34vidbyHMq9RXQnji4t1C8jG8DjqiScIqV/rVTdZCU8Z9D4vZsS4iGI8BMrMcvBL58/bMYMyAY5rwhGGX4hfnNejAIV1f/CDn+artKhH2hbX2tpiDzz4gB8ierXaqrKqWu+m6xyKcce0Fjn9wUWhbtSCynp8Rv74pQ5iJQBMeULEzDLing1E/7UARxysSSdZ3kN7g7PgFbRGxp3R4mhTeXt46oHOnHLTlrE9Y37Yi/rWN96ZBbiLQRHgfvnXf8f5hB4mleKbljnuX1dTazWVNT6+xlibN4wayqfNeUPXhIWc2RwwEIyEQdWd8QtzohFBNDCNzoSDM4k4hmPNfbxOVenMiGnJ3kuFz88t9LENekTyNzzSZ8dOHLXvfOt+6+vqsuuv3mmrV1QpbK5t3bHX1m/dKY0tx7W/PKluDPZKT/AxOCjkM1Ja2Eh34ZlaFCaNQudeSTNHP24BPn9PZaNMkWJYfqODFuLXD2WN/pjSUKiPIHD+jDQUP36F1FkCDj7mpzh4W7G4X6TM/Mb4L0ShDAHgLvRO5rvxmnCUP9ZBrkx+iDz4lfzwx9Ge+/c/aU/sf9x27Q6HL+TmBBAEEIgDIn3qMOYjOk9Dz3MToMBlPrsQxefkKFBSLnFA2i9NPvvrHfFiAlDj5EcmEUNsHygptVLJsabmtUnai2lsaNQXmvNefDeWFwLg3vz6V2cB7mJQBLjf+r0/1F2OL3ZlyxXaD+vOctXQLO+oqa3zLUsAHaAg77C/zhmN5lXDJqAGWwJoCDCPAQEAjwFoGhWAQ21HALim+hgoBwCZNCAewoXZMb0PgDD+JH7AvOEEi5nZlPV0DdmZY8dsYrRLHDNqfT39llNQabuvut5WrWtSvsskgBJG8iv1Bw2OeNPNdT6AxeukRBnP0oxNTxzHnYJWEdg8Aj33MSzkzzPj5j3yopfwh/x0FPnH9+I7BMLfnZ55rvx9hdFliCfEESmmE+ImHr91SucjiV/x0TYxDH6xjmJYXPSP99QbfoUOWMl7cnpIn+f1Q7s/8OD9drb1rF177dX+zdmgj6XrHIppZdZZJMqLiRrDxLTjurelFPO3lJ4L4OJ4WCaRF5Y5LaWFcl6A1jU3hfHeJTQ6OOIAB2DGMvAb65CxuUt5kuH8Ej0PCe0M0GHWh2PHOf2jRL+syGcchTVMHHPDBnNMEpglgIOYWf+hgelW7AijBnOuIF/MI9WcbVEwEUscYJzQY0pjgqH9XTZQ8/WiYqVX4FoKM3Dhq+BhNs6/Fq5rZufoXQG6NatW2datm62+rk7P892U3X/ggP3DJ/7B/v7vP2779j3u327gi1qUj3TRsgAoXCa48RueJcIOegCMyiIzYCxBIF0cvW/8bgT7duMGeMqGi71zplv0XHExCydsVFmDCU0arBX0fcByCrbIeRpeu2kiTs8qv4tcBPFwrxgSR7vwDHONXwGW2gyhpH4BOniAr5b58gqZ+UHTDtppvI71yLo3agntmnoL44m0E987yLP+vj7r7enxWU1m6FnSwQQWg+4sLYqmeXTE7XEoLuLjjzJk1qGXRvE/nwgeHBGI+RZImcRYIZQLk5a6jDx4qdKyADhWaFP5UZgoVmExHwYut6KSQgnglPX19di5c2eto73Vhgb6bHZ6wnLnZ6wgb84KZEfkqZfM1y+LP/MlMJhUOD+/TfHxWyhzETCCYNNg6obBfBd4hRQsWkEO33aQaTovBpAWFk43CSYs+Jmjexb15jAggiDnFtjG7TvthltvtfqVjfbM8ZP2+c990T7zmc/ZAw89bC0tbTYyMu5lAxxjmhFQ0sCSOIEAYOrarINqAIX4i1v0XKAGsOEi0CiUO3FwENgFp+ShJBy/mRRAKYCua4VyiDZmKTA1o+dxhweCvxA2iTsCjc9oAhIKQieElujfXeBZYb4VlqgjA8jKKnRdps5FHZEEDu2oTG3Px3jo7HyphhyR+/ifAJEOCzAEjBQdZgyVqfaQU53wfdUJCfXk6JjVlldZeWGJmGxOGjXfPC2wUnWgZQK6irISXfMtj1x1qPzmuz/Pi9TZsZ+zsEQcUaQ88H1d8Qv18Hyis2fb7ERrm/WPTdiU+G5Odcn6zRndTc9P+6nXlzJdNIBji2uacYPjE3KREATCrF692nvGWyXchw8fTp7+62h8POUakM88iqnKFr7kxMdEJAgSBkxMTtCgRzp96qSdPXXKgW56alKVwHIPIY8aLGhwQUgxdSWJfsu6oKix6M7lGiF1MFAYH/BlfRHRYFFIGPhF2/EvJREN7yjI3LTCT4tBlLYfyyNYrG1cZdfdeKO95g1vsNe/4Y22vnmztbZ32pe+9GX7p09+0u6551t27NgJlZUTYknXs+igNKN8snSBPJCf4AA0ACSMKfKLH7+UERfe1XsOfPG9JOJIvAoI0IbJX9RSFDgEifcZ1+4AlORXmcD28+OqGB4Ii7LDkoNMFzQswExh9Mevg5TicXDzg0cBKvkBGGoX+ZIr1y7Dl63Ujrp27VzpqlQOtgA2YXxhsupGUel3RuFYkoOpbVYkIJocH7XB/l7d51hDbZ2VFMgamM/1Rdmjw8M2LvBLTYzbdGpC8ckiUP3xEXi+tUEcxeK1Ymk4OA5bzZdjW1oA2jBe+XyhcQHbibOt1tLZYykWn9MuAvR5KQOzMDjtegnTRc0dJ9OyEjy6p556Knli9od/+If2R3/0R/bnf/7n9thjjzn4vfSlL/X9k/9aYnodkwvAwXxDUBgDK1XvXu07DioX1schQIwntLa2en6eOXbM+vr7PZ6gAYWtKggFoBEFnl/XgBAMaReu2SkuHOGDeIuicMsFwEj8Ewoa1LyfPDIxKYDje5rCHVa5M4bR2LDCLr/8crvzNa+xN7/5zXb53iusq7vHvvrlL9vf/83f2Ne//nX1qmd9IShpUKZonuK41sWCUKOxuLbk96FccWmAhwO8/C/5lR/+C9eZtOR2KcU8RMq8j+Yhjs6GNnKTMmPtYtyFwjueRwEP1Yd2jgv1KSdgBsA4jJPvMLCwmdN058QHfLKPQ0P9O6lqq6j9YVIBOEWAKPWimEPeWITLEVeAK+CZ4zzY1dWpvHB6bYHaatLGxkesu6fdzpw9YSdPHVcbnJZm3SqroF283WW9vX0+Jjw4NGBDQ/1qW758xqGX5AGwVpoqTL7a4/lEWEBT4rV+8eCM6pt65/xATqxhaGJ2GoXg0qWLNsmAdvb5z3/e9u/fn/ikiSTR3N797nfb+973PvfDtucwxw996EP2jne8w/2+F8VJhv/y3t9xgECMYdoiCRCmCieJ8JFbgGpkWL0u429iesakWPMzNBI+bMzauY2bmq2+oUHCVulC6OMmcoypRaHzj2+I+NAIguGalFiXGoxmHiLDO5TRTb5E3qlkr2qZjwXyGxsdsvaW03b2zCnLyc/xPahrN2yyaZm0UxxAmSvglNYwMT4moTptTx8+JC3uHpulntQZXHP99bZr925bt26djwsBbGhyQWhDPjNNwEjkCX/8KBeE4AXw0n9JUGeK5Bo4WIhBZaAYaY/nIgAuXDHrHNMDOIJWGTahUy/kPZjNyTIE1SGaWFi2QLIqC6/IefIOGmh7MmWpZAFcjrQKluZgysa9pXwRio86oz1RR4ydkdbkuLQvadCcDMOZZjhW5fOMwzofe+xRErFNmzYa39kgrrb2dt/PTLuTLkuBGDKgDCzQ5XzA3Nx5aW35viaTzpX80unyvtebPJo37AkFWUJd7a1KP5wckkkV4s8idQRLKcTpkS6i8YkJOyYrZSkR9uzJ8/2hlWsrvUNcSkU55VStyhU+Hh623in8qpVWXVurepuyH3/Tf8JlIgDchz/8YQcgwOa6666zD37wgz4bxemomzZtsieeeML27t2bvGH2GmktrF/7u7/7u8RnMYVlIOnN4gBcU1OT/eKv/q4VF4UdChBCAkMzJsKJvpQwvsc4Dadg8O0B/2D0GF/xlqotKWcwed36jcaHi32mS+HdvAIQ9IsmRBoACjJFnPRian4XSgc4tb47pekmLH9JFfuvBLVIgDY+Omwnjz1trS1n/Iim7Xsus/qVq21S/M1pxK6Jhn7f8zY4NCiNocVPGn7owQf9A7xsA7v8iitsx86dfjoKeXYhliaC2YmwRnAm7TBRIm6FQ0X+f5JXnOcyPFp0TS4y6V/LMgFM08sZMgEO8rzJkS3Xkolf+eaEZd2ozWSKyp8yUR4HQDUAmhGOD1UTX05u7GACePtkjNCR3HIu37A6tOGhYT/+iC/0c04gX/9i8mlEz8JMYUi/s7PT+CgNkwzki7qdkEmK5u3n4Mnl+nrHsHSkULzms696v1Cdak1ttb3+dW+keOfRtq3Xe50spRZphnS8S6m6sdFKyiuSuzRRD7ilNCqefuro08ldmgh77FmGgRrXhKP1l9LKmiaZ3OGE6kxqbt5oq9estZHRMfvhN7zyPx/AffWrX/UecevWrc5Mv/u7v2tHjx71cbZnnnnGbrrpJmtra3NNLtLb3/52qf5n3Qy7EAGa73//+5O7NAFwmKRsaMYEAHhce5JAFCC5YnYaDyb1/YBiykmBG1+9AuTQDviCN98cLRYjrVHDrVG++BQeJhTMmMlMCA9AgtAwexjP3Y9Vmcm88XrhmTFek2ND0hKOHDqouml3oNq2c7eV1zTYLGMcEhy+Z1oskw2Aw1QjHtLk0Erq6InHH/djfAD5hvp627J9u11+2WXWLI2jopJjwkOeyWvU2jx9xRMd/pDDaMIF/ADK8iKw+0ER5J6LXZ6blULnE6PkN+aDvPELQHjqimcOrUf+tCGTAMie+8vPQZocUSQ58u57R/MEhqojCO2Pr2OxXKhb/NcqXqPeqD82rw/0s4F9YkFbJ13FpDwEMCN/WAScdwZ/EI4xJ7Qc2sHNWmbqpclRNWiGmMGUYVw8BQ++/Wfe6XlZSssB4Hbu2G2bt2xzGXrFi2/IroNDU0Jre+9732vXy7wC4Nql8nOAZKSf+Zmf8bGxr33ta4nPYoJpoiYGRQ3uF/7rf/dvW/rYjhgxMs+seuRpMZsvs+BZYaGVqEcGtEpLi8W87DDo8/10jMmMCZAH1KsjFIRZIU1u7Zo1fhAmY0QwCIPUCBj79Kg6H4LAXBKDZ1Ks1ijEEH7q443Z2s5zrXbk6UM2Is1sfXOzbd+5x7dozedJuARyU5NTlu/vBtGDovYCMDFOhEZ38MABe/rQIT9Svbauzrbt2GFXX3OVelcBtLRnzAoIbS5qmAhoBDfy5H2AaoBnC1onD5V2zL+X4Htwir+fCBzxxjqAuEybagFQYl5iOKowpifI8/L6x5yVV7SycHBC0LB8BltaHPlmigHNaTI17vWCRtbTFbQ0HNoYH8GJZ+P5Hkyvx3BkEfGRJqDFPXwhD5vmEFE/zy2UJVead3lFmfMQWhqAQE0FYACE6fgKHDhZ3vPTP/U2T28pLQeA27PnctuxfZeAbdBuu/mqSxbgFkvlRSTWJu3Zs8eOHz++MJsK42USM5yMwz0bwXxUYqaDkA+YFdMBEwITlHVqzLSxf5SZVYSLgWrGJ0bE6GhfTEI0iHmIBxCEcevqav3EX8bmjp84Zo89/pgdfOqgwLjNtT0f35FwTes5323wxBMKwgvDS+zEwPFJ9MfB12gFY+NjPniLH/tl3ZxCE5QZyblxYTA6aCyE4ReQ4hpQwJRnEofJiB/+sR+zl7785cp/qR2UCXv//ff7CRgHDx50rYXOhfzESRbiCgKNWSVB5TrJs5t30ckvlkX/uZmOi/6ZzuPRLyZbpotp8BvDenyiWDbucVzHsjJhwNpBiPG0OBbq8SbloENDyxoaHrSzLWf9UMpvfOMbdtddd9kXvvRFu/fee13TbVEdMPuZCazhS1EBMImX+GgDlhyx5IajyxmrBUIBUvJE+xQX0zkCcMqTNEYWbufmsb2LvLP5fFxAyuxqmi+WIyFnI1IMUlMTic+lSf/PAA7N68iRI66xNUtjAeRgxkiMf3znO9+xG2+8MfH5/kn85wLI4C8gFzU9rp15fYA7jsVN2/DoiM9M8hGWKYEG78L0CA+aG4DHxAOgTK9/+OnD9sijj/ipEpg4CIoLKcKJUPrYVhBWKF67sMZf+Xl4nkt4AVA2KqOVlJaUUQD5z/vYThB2Bfd4Qg/tQkmaGYRQAnQ7pLW94vbb7U1vfrO97BWv8Lx3dXbZParfT//TP9n9991v56QZc+gnwEUsYbkEeRITSLAdjUP2lY7uvXgh75F0l/yeTzFczCf1HoEtAF0AO7QkHM9wmeUiilh3+OSoXr0O0DblF5fHcJxVT3+vHVMH9PCjD9tXvvYV+5fP/Yvd9cUv2Hfuu88Oi8/oPOnI4ripp6H30VyZLAKoMSdDPsNznjE0AMiFE0PQkEiaPIZdA7i4OJgog9IT2pkPYjMrnppgN00o03Il2mB8clRKw/ka56VEF81Efc973mN33HGHz/KhmTEGB4CxNIMBcWZLf//3f98+9rGP2ZYtW3wC4tvf/raPz8UvsH8virOo75SJWlJS6kIQZCUACmM0+XNoLmJKens98690y4nbfVEvihIChMZUJvOjoLhQ2tWED0ijMbEcg4FpTJ853ddU19imDc22fm2TlZWX21xOvkCSFCVIElgYPdKC8CZ+EiOlp15+pN9OHHvGjh4+ZNUVVbb3qmtt5dp1Np8v84hZQAGBv8P4E/EoXv3vcWQCCRTvAQ86CRzfkjh79ow9/thjDsqANu1w+d69tnXLVqtvqPeJkrD9TPmmYhJgYeGmT6joj5hjOlC85v+0frqU0oCV+QtAkFVPQwATXIgj+AV/3Xl4X6smPzoA7gEfTtftG+i3c23n7PjJ49be1u6TBCNqH9Ys0ga+NY73eVfl8kklgRX38ISPKKjdGYeVoc6d0qL4zOQyE65YdD2ZGvF3FFWoef1HfbGu0gExd95Wr2tQ+LBB3Vf6T8/b+NiUHIeKFspi2cWb51FxAR8pP5/e8OY3qnOtSu4yCAsEk3wJdXZ225nTrcldmvjC18DoQHKXJtWAnR4/f1UDVFFKPSc3GdRUudNKLpDfrZt3WHPTRpuSRXTny/4TfjbwrW99q333u9/1rzg1NDT4uNsHPvAB27lzpz8nWSYM/vqv/9oP9GOW9X/9r/9lu3fv9uffD0WAe8evhGUiMLb3ymooBILZtZzUrEwaaQ8sFSiAMQNzYv64CYRAqOH5KDRT/SVyLEZFu2KdGhMlYyNSxXWNgA0NDMo0nbHVK1YKmLdaw8q1lleotBNgIN1MrYFfBBU88O09OTM20NtuRwRuZ06ctNWrVtveK6+xxlVrbU7m9JS0Bkxs1mMh3LyLPhMbaUEbEfHrmmFCALLP8AoYh8Vw3T09dlTazOFDh+z0mdMuuIxZsryE04bRopl0KSks9nSIi2OMEOaFFffJDxTTpTCZqv+FWIiwmflU6bmSI2wAtEziPhPgGFfjD213oH/Av5Fx/OQJleOMdfZ0+qwy2+6oa0AthAeo1EGoQ4iLtAuZBPC4qUddknHVIW2cO8dkFIt/w1Yz8gcQA3ajI726f3aiHTbv2OD7nwFG7z3n+ULWrOJSOXTtbb+EyMdwf19yt5g+/ulP2Vq1z1IaHZ9M8reYnnnmhD326PmAhQKeL8BaSsD7uarHk7vFVChN7Pw3zDZU7LXS/PNBd9e2K2zjmo02Lhl87ctekZ1kuBiUCXCsR2JMJZobkFjMcqfEbA4+8tOz/AL55rvoeO/rWlKi0fFuWXWFn6wbwYo0+GwgQoSmx/opjj4a6OlzrXF1U7M1bdjkWlER4KLq9PG/RMAxCb2K5RhLkjFuXe1n7RmZvXzoeX3Tev+YSU3dSqkIRf7RGwCOk0xYkMqY36xQx/e+UiYJL4JDnMRPHiGuI8CxMAJBJwwaKAPtx48dsyf27fOJCcrEzO3uPXvcbZRGWiYtzzVHpcd7DnQecfIrivWqwnxfAJf5O+/IEv0uHJ72C20okJma9o4FYGMtJZp9W0e7D6CjXQr9kxdD3QJmXFJuBxbd+w4I/frBmwoanDQtOV/TOC0TVj++08QLTL0G8BqVlv1cRH4b1zT6MAhR+RfpxXHhUFL4CzOWFBcTdbUcAG5z83bbuHaTzUiDe93LLt1lIpl8+rym0Fui0YQeHTBi3dSsBGFGjMaHilHdGTtgEH+a8RX1uvM5mK8lEu5S9cZm/T3D1tPRbxPDk+zc8u1WuXO5VsCaJ5kdaIorVqyytTKzlagdOXrI7rvvHnt830PWKeDKmZ+ykiKxtzQ1k4bgkShdQJTtYPNipMmJURsdHRG7SXMsLXHtkq/us1BV8CbBEMBJ4cGUmpMgOTYg0F5ElU8ShRjpSh76TTQfAJpBc7QaRIs1YJjR6zest1tuu81+6mfeZm/5kR+xK666yk3wu+/+uv3DJz5hd33hLnv6yFEbEvABEHQWvhmdtFWfIRnAVOmGpDwP5IW0HRrkhzxj7tKxsPhWcMUTBxG+f5CXgwOIAMi4PUpvS5Pml50GJUWF3nYA8Xfv+6597vOfs3u/fa+dOHVC4AYgIeiKg3wpP0Iqd35KrZ74MVHKd+wIaCOOn6LG4IdpdWpuyqfQ3hSTXgcRqCvAVa+6y6RVqo+PX/Vq+/kXvU/5TE4gkZuYYCJCcauBAK5Zte282pvUpCAua+oa6LSOkQ5LqcO+lGlZfBf16htvlVAyU4pQiUHlYDiYF+aWrAWu1T/XTly7wQttj5m5QmlfpVaEqSaZmVSPyRExLDRNTUxKaPKk4ZRZRTmf3uOTcjOu7VSoxyouKbSRkSHraD8nTalD4DXmC1P54G8uEo9G4RmSGUVeZqcFhK0uwOSlSUC5YvUq/66rbzkTALugSeDiBnWEibxHbch/wmX8EUno9cDL5yikZwi4h81xMx3NlFnq7Tu2+8egKUOntLujT8uMlWMdoK/QL2TmOd/LjaO+6DgcsnTvGiRCzGRBBBSekdEYDtBQWB87kj9LYxjnpE7Yv4npGeqJE0CKrbAgX/7Trh2zmPlrX/uqPfrYo37oJLPXRLIAQEk60YX0+D8Ul7T5RbtFG6Ze/ZcOz9s+vMduEd8RIRffJg0SmUpN2JrajXbH3rfaj9/2PptYd6s11G2y/OGzdrTvtIfNLyrxsIpMcbJVUJ2TrsmfdzbOeOdTSlrPhej1b3qTf4N3KXFKNPW/lPr6+q29bfFKBIgs5bJdZgnR7Q0XdyR3iylP/Hmh3FYXrVLnzs6dxdQ92WPjuSkrKii1r37y85fsd1GXB8DdcIsPGjvAoSE40wWC/Z30g3d8EsLqDmZXKAbpWTNWJCBAAJhF4+RezFiesXSksrLC2MDPJAiaHJGx9KKqSkAn0xA1ncXLrMOCCMORS74YVOQCN50SU7b6LGe+TFJMkprqWuUFTQdwIj/sRACgQ275f0GAY74hBQVsMv3I+4VcfEY4zPo1a9bYhuZm27Bhg3/xCzP2xNGjdvDQU74QFm0HLcjrRIzL9UK6Xl9hAD/cYgbmhaOlkvIy4UKqk8wWC/RHmbGW5jQjM5qdLIcOHXLzOS79ob75RCNLO771rW/5dfzQCvUPAbSZv5nl9p+krDynrjNd6NQy6sLfUYeg39iJUN3lJbV27eaX2ptu+Hl75dU/YU0rdtp8flrAryqvtPaz99s5laOsslTxAj7JMAF6KZFQH15+NNjzaTkAXO9onw1ODFtxQbHd9/l7sh9+vhgUx+De/ku/ZSUCHggNgYYKzAzzhmaj0d3KQ+NAs3E/eRAI80kMyRHnmEjcs1jTF116ED6WW+RplZeXucAhrAAZm6sJhwCx3owJExzAt27deluzeo3V1FS7EPMep1Q8tX+fhPyMbw27Yu+VvuUFsEObmEXo5LC8wnINtJOQ10yBhtBToh/pLxXizPDxF2Gn/AsmnGh4aMQXWB/Yf8BPsSX/5QLxLVu3+sZ/JoY4MJR3nFTH+RIgNDLfbC2EKBFzlwgoAeLU1LT1CiTZPdAh4BwdH7UiwqqzIB/7HnvMDh48IG1ypV173bV2w/U3+Cz1d++7z/0Z84wauZdJScayUQr8I7Dj5wt3ZaL6mGoG+TO991xEHJy6vGvtNbZ3/Qtty4rLFurlQsRnAK954Fftv7Yct5MrqvzD2wx3+KGmPPf/2V7GXtjzD6OEBvsGvExL6d3veY/V1YfPEmbS6lVrrLLi/PGtp48fswf2PZrcpQmNtLgoyEMmzefMWXvdgeRuMeX0q+4ukKnGwo1WlHv+Ptie+W5LFU1a84r19olf/Wh2kuFiUAS4n3n3b2YAHEwWi6QbmUihiGHcJ1M4IGdmFx7Gh9iozykX4cvm9Mz0SghOimOVFJbtYIAcAuhLSJQHwhId4AHwIaxoHwgXH5TmGxFsSWNHxOjQoB06sN81vVVi3CuuuNIaJegsIgXUglkqR5aVnuddgELaC/n24qTLApE2YTP9YhljE0eQ4HkM65qGMAANAYDu6Ozw9YpsA2MtGSbo5i1bbO+VV9r27dv9QAIWuRYVM6gubWQ8fIiEM9hy9dvT3WM9vb3W0d3ps7iYhTUCx9qqCqUz55rit+65x44dO+bFcJNZ8VJfp0+f9l/yhUPbi/mFon/MP+VZ6mI4iPvM97nGQYrJNq7YZVdueKHtWXu92v381fpLqWL4jK3qetRWdj5s8zOT9sdFc/ZtaeQTqoMLUaGAZimRfm//+Z8AhFi/6BM9S+jH3/JWu+qKK5K7ND1x8in75v7vJndpki5t1Tnrk7s0AXB9a48ld4tp7CBMkNxkUF5KHQ1fPVpKTVOWv3LGKovL7d4P3Z0FuItBEeDe9ou/cWGAQyB8nAXBoLCLhQDGR6tiLAiRQABZ64YWEqsFzQ1tbHYOk3XSAYzxFfw4+QFwAwRZa4Y/nw0EKMJCY72TwhyZ9+csyTCB5bkzp50h1q9rtssuv8Jq6xo8r1IERGhweT6LyfiVTyhgPnh+M8xE5S+UK9wDcLFMALRrfyLKEZ9xHYEglC+ED8/EzAI78kz+MVPPnDnj2lZne7vz/uZNm2zXnj0+hrdxY9jcz3FFoDF7QPsEaBzr9JTAka1i11x7rTWsaLQigTyizlfQWZd3nzQ1ZkfJA/UfAYh8xvaJRBie45bmP4I6LlK8juXFxfi5ri9fZVc23yJt7WarKVO9fw/qH+myfce/abcOHrBX5I4lvoGUuv1Z3qzdNXrhI76WM8DlbJyy3NVTNj85Z0/+6aNZgLsYFAHup9/16wsAFxaGwuBqUIe6IMQMHidsviAgUbgKBXAAFsDGgYmsoYrCRhj2rSL86ZNyw7gOIIaWgZYWtnhV+z0nU6DF+WbvyXFPC4EDEFk3NNjXq+tZ27plm0zUvXqvTrky/9gzY285eWIqNwfROZXfBOBc21JcmQ7/WA7u0SwZ/Ecj1a2XgdnPUAdh6QsgjR8gCCgzZkY8PCc81xDhOMcPzYpDEk6eOOFrAZua1tqV11xpe3bvthWNjVZVXqE6zLfWlrP2T5/8Rzt7tsVeeOstdvMLb1aZpu0ZmVLnzrb62jyAjT3IdATkl7yTpwXz9wIU80PeqN/YNt+LYv2UFVXa5etusr0bbram2s3J02en1PSEPd3xqB1ovc9OdB6QCapOT3H9ZmWNvVodVSaplu2Pp8btSxdY0b+cAS5/c8py10zZ9NiM7f/Tx7MAdzEoAtxP/cKvWXFJOPUDIGOsjWtKhrnn/nKSZb/GRUFGdHiG1gM4MBPIyvcIZBAggPBzLj/hZmaDNkccVB/hABUmG8gPfhzHxBjdwGC/wiHA7HNMWb+0nOH+fgePpqZ1dvnle23lqtW+hs6PHVeOOG4dE3XhkEflgXV8EaAg0sYBDIAzGuJCmVQo8h/zhvkZZz8BiGB+p+uCOHCATbwmLsJxTRzUNWYlR1wdOnDAhgb7rFH5vvKqK22nTNh1TU1WIvO95ewZrxvWBaZkvj199IgdOnTQurv6wqy0OgXKTvwQeSIP/GZSLB9Lfob6e9zPGTX93wL5PuLy9OA85WaGdMfqq+zqjbfa1pVX+P1zEZryye6Dtl+gdrznSUXKcpmwb5c8ez2qA/rlknJ7A7tmltCfC+Q+O7vYVP2PBjjeffvPv2OBB5gdTmVszoeX88Wje19+80UHuMJN41bQNGNzU3n28EceygLcxaAIcD/587+aBji1spupLrzSahJTLfr7tYQJR9Hdy7UdaRPSZIrEYFzD2IAS8cSxIGZoAROAAK2KhaQsMQEI2PCN4FZU8AHqan+fkxbGJ0ZDvpQ4a9/OCQBGFZb0y8sqfKB99eq1xpfv+e5mmQQ1V4Llm77VMl4GpZ3pmGmNZ6Mxe0t+MBdJM5xGEfKPi++o1B6Oy+BHwQMBYuQR/5DXUGfcEy/P8UOwAO0jAq17v/0te/yRR/x7rnwBbOf27XbTjTfYFZdfrjwV2lOHnrKDhw8q7FHr6+doeOVFQEueYtxcEy+OdDP9M91wAnDPRgBcmbQr3l1Xt0Xm5y3S2G600qILb4nKpK6hFtvf8l071P6gjaSGlI+wJYs6JE/c+9pC5SPwgdk7i8rsh4vPB7mPSvP7h5nJ5O7iANxbfvStCwB3IcovKrBr73zxRQe44s3jVrReFsd0gT3wB/dnAe5iUAS4n/i5X3UNCIZkrVkmwPk6LLhUDIvBB0Uhxvn2Kfl7Dy0mZjSOle8gXwQOwInnrMdCM0LTQ+jRmjjFlcD08qNjIw5iACHvCEYc8FheQvoMsD/x+GPW392hfFf7vlaWkhQVlVppWZk1NK6wjZu3WEVllXpnCZjyxqmxaHIcz42AeblCAT0fIX8BvABa8hHM0wBuUACKcBoLYX2/pZ7hiM9Jv76mTQ7iHZ57HamsXIfN+rovyLPBkSHfHfHNr99th/fv9+8VNDbW2623vFDaW62DYFtHmw0MDXi+J8dnlEY6flINZUnAVOmxRi3kNSzzUKLeYqPSFp+LGqrX2E27Xm1XrL/Z6ivSx289G41MDtqBlgfssZP3WOfQWc8H7eX58XZXPh3UI5+ETo5hhXBMU679eH6B/XRyFFUmfVwg93/liKtEYS5E3T1jzhtLqbomY6Y6g15z++22c9s2v37XL73L6+fZqEAa3HV3vtQq7fzZWM4V7FvRltwtpomjANz5efKPj5/vbUUbJ61wNWPQufbQHzySBbiLQRHgfvyd7/Pz4JxRxaCAHITwxMMow2hcuqiEBRRgYD+jX/eshkdt4jqOe6EhRZBDO8L0BEgg/ONBm1wDbCMCuAE+ZqMwaAJl5eEIJoCQQwcevP871tF21s+aQ3vj0EQAh6UVjL01NKzwtXH1+i0tL1ccLFvJVbopN/0i4PARE/+GQaJl4ocQokXGU2kjBfCWRsE4o97nOgJJoACa1AdxASyRiAcgdQCSgLsWo7AcLUWdnDl1yo6irT35pJ04/oxrc/X1tTaRGnfznBNbMKVy56QJAI7Kp6eREHkgjdjBxHxn/g4LJJfSrjVrrbLiMrtu60tt86rLEt9nJ851O9z2mD1x5jt2ouugm6SBHfhPbiFLIV3KhoYePhZDJ0he4ZMAyCzIfqvq5RfKztcS/1kA95ezk7Zm1QVARuU5e+bCkxLFxeVK93yAGx9THU6Ho7UYGsiklSvz7YW3lEkO8uz//O9+KywqsRe99g1WMJ3+/kkk1ugNTm9J7hbTbGrxEptIec2DllN6/rOcwinLLRTop2bt/g/vzwLcxaBnAzgc12Elf2AYZCpqcJGisDFmxzUM7Z/0Q9BkltDLAgiMuwUAy3GAQ4sDDBBKTEkAAABjskGi6lochyaSJuN1AB0b+Tn99InHH7FBmVxbNm8WwK1SuHAENljD9wPmpUMWCPQqpOE1rlhhDXWNVlFW5WmjyfkR3GoyzzcAndyT5wgSzO8hkWhbjL85KIm5vYwO6mFsCcDyyQavsFAnxJs5i0yc+AH+vAuRy1xdswNhZiplU9Le2Fv7zW/cbXyekcMgARQAbkRarR8+MC+AUwvEOs/ML470YpqeXnINDSkeCOG/fst19rKd66y8YMTyS18uk+zCJ3ZEOtV92B4//R07dO4RS80sWWAb8V2kJBNSXlWn7LTw9tcD6odj4HNzsBL0TB0IuxZwb1QH+Cul5wv2l2ZS9pl6jrZfiNiJcv17Aa6xMd9uEajdcmuZbd8eFuFOTc3bm954RvVenAW4DArd0fOcEGIcMhH0NKAMwRdzuqcc6jf3/ofwB8bzs9Dkg6D7qRAeg/zF5IAaQg1AoD2hlcFkMDk7GjAzy8pKlHaYOQXACEdymJ4cfVNRpkZXugP9g9bZ0S1mFfDlFlh+QYl621KlUaqwZVZWUm7lpeVh07tAdWhwwI7KzNu371E7/PRTMms6lc6U0gZe2NIlYBHTT08zcB+WrwTAUOIIJeWTA1AAYCZBKFsAQFba8wzTFnOMMlF2GFmAlqvaC/uuVJag6VAmFpByYq3etFnOTFO6YKOgynoGemxqZtxyC2Z0l5KTOa2HtAGgTV7gNjQnzk1jdT4O0CZLXuv6B6golwFUlHdcpJ9+4Z32+strHdygmYn7FP/5a9B6R9rt7qf+yT70xZ+3/3Pv+23f6Xt9ZjS2fvgjufib6fTnZUVrU4aVf4CQL0n59r1kqAA+IMznpdV/KBXOncukV+cX2dvHFWaJ/7+V6utz7I47Cu3P/my1/eMn19k7frZuAdygwsIcu+GG8xf3/menZQFwgYXSLMoeQMcz/cKEbmB4oHQYBzYHRYSdgxjDx0McJNRDu+kqcMOsw0GMb6FthXPDwqZ01rZVVVcIrPJ9WQg9GUsgfLwmJ19mVJXV1TQIwCptanJGAKf3p3MtNSFYmM6x6sp6W7dmg61dvc5qq+qtKJ8vgRVbJeapQGlweMCefuaQPXlwn508fcyGRwck/AKFeYRt3D+Ewlo7n3SgTCrnzHRy8KLM2iiMOJapoFlOCxj9o88CTKmswh4mVFirx1eiGE+UeSkzu6XlrK+F47ezo9O6unqsr3fAxjmxlh0MipvvS3R0ttvjTz5mvQPtNpszZnP5MpPzBY4OstLYBOh8OQxwY9kIzrVVtY+qUWAovVf544QP//6EMM0neEDPDNp/5pD+zwCM+XGB3MN+OZ4asYeOf83+4u5ftz/68rvt3sP/YoNjPTCBM7m3uq7TTvekRRYXJ+OdhHeOCa84SEuz95l135qF9qswrijn2FdnU/a7U6Nehky6SdX7c2PiryX+3y/V1MzZS186Y//9/fn2V39VYT/5kyW2Y+f526YiodFlaTEtCxP1R98RTFRAyTUXEb9oaQUSlKXEl+vRDKJphIbDnkvfXiMmZq0XBLAF7YfZx/RyAd4hLcbnMEvRgjA1ARqWgkRNj+d8uKZS5ila1gG+n3DksOLMs+b1G2xlY6Ov5K+vrfPwjFUNqkxsc3Jhl4BPC7g4Vbivt9fjJfyWTVt8aQlHlKMFKUtWUiwTuQhtctbHvxgvpA6CSZo2Y4MGx0xhgfsHCloT5e3t6bMTJ04J4AZ93I/jf/jcYviKVKhf9pvW1lTZ+qaVVldfa9++7z77xt1fVV3MS6NVekqTYcqRgVG10bhAi+/IchQ78VB/4A7QgKYdAIashOwIdPQLeLhT4GiiQh94w09YSV76rDbi+eKhEXuq86iDz8Uk3x/seU14THkrKFRHWBzuXyDt9rcK1dlRoAy6Tyb8f+3tshQFF/l5cQn5EejlwbTDRK2tzbWrr5q1a66ZtS2b0+Gei4aGZCbeN2bfunfUjhzJyZqoGbQsAO5H3vFeMcf5AMeiX3jRwS4RZn4LJdyADIARx5gwRyukNfFNVQAurnMjPCABIBC19956Z0baCxoJ/uHL+YWuKeAPyCFsXEOcQsLiYVbxHzl62Phm5tV79wr8KhXfvJWXlbnjRBFMY7Y49Q8PIuphjE15GBsZ80mKYQEP4Lx23TrbtGWLrVq52vjmhEueHFvN5qSRMQZGPqFo6pF3NFAFdPClzJSPL1CxMLm9vVNAPKXyFshM5gDQSj/KCWCi+igv9ZJi8bI0wLmZSTt+/IQ98PBjfppKQ73M9ppiP1iUb7uODIzZyBDnt7FbxHxJia/1U5nRgNHSfGO+Ig/tw0JntGPVLQfjeZnYAREOL4Beuud2e9l2xvHSbHu0o8c+ffDC3/v8jyTX0OAn/qN1dEvV55cE3oKuEcj9XlGlFcEsGfTw2Jj9Qts5G18ibsUlZda0rtquuzbPbrixwLZtXfz82Wh4OIDat78zZgf2My4c/FlDedudrxfAoe0upRwbmLrwQue5KfTo8ykAXJhUy6TcwmnLKZAmLoB74CMHsgB3MSgC3Ft/5r86wAFUEcxw/oGYhM+4j8/86OmiQgcdQAjBB8Q4DQOAY8YQ8CMsSxcIhzACZpG4BkAmBWboPxEsFJnHXVzEwl1pg2OjEnaOXppQ73pU2tEx27pls918000CtXLrl7YGaJA3vgFRW1crTTBl3X2JlpJocYAMA/2AEV/QGhYgsTSGZSVbtmyTSSuwnFHahQLbYpVN6g8aJ+XzsiXjiaQF2GVqcH0yPTtkgnJM0ioWHReWSotKwigs5+7zjdDwYWNM9UmbHB+xfY88Yp/97OftTGu7j8c1NEgDqS+xPJm5bEAfHeQLV2OqQ2m7insG0OUcvmRogPyQF67JZ9SOfYmLBDYASSZxn2Mv3rrOXrBxTfBK6JOPH7XjvWkgvCik5Ol0GFX0f8pr5LlM2qt6+4g6sdJE04v0xMS4/ey5czYqHqmtzbObby6z215UYTt3hsNavxeNjs7bo4/N2UMPzdmhw9STs8d5VFxWYBt2nH8qCRrcyOD5M7tQYWW5l+w8Wn9OEZ4/zslSqtx8dfTzM/bwR45kAe5iUAS4t7ztPQsAByG4OE67KHAOUNPpF5MVgSIc5hjPMekQLvx8WYDCsXqeQeNiQEHMytHYjF9RUcTG0gE/MkkgBhixNARAjMDBshFOJmHCAOIDw23qvTmp49y5Vj+r/wU33CgmrxGYzvseTfZ+YopybhvHaStDft5ckeKZUBqDgwM2J+2LfAIEfB2sf3DQNS4mM1atWG0NtfW+sb1SwuXApLL5l95VTpazAOBxrRnNDmi2trRYR1uHNMFVfgQ7QDgj7Yn3KS9aGwDHb2kZR7PzxalJGxAAf/Fzd9lXvny3QD5MWlRW5Argii2viI5BpvXQqMINW2o610oEvNQd3EadR+0SIj8xT9SwA4eE8XxxC21ZpPr5+RdcYRUC8kh9YxP2Vw8cPG8c7D+SqPsQ/eI0It9l0i51lH+sdqhIOpFI7ZXF1vLjM7Z2+9j3BWpS/GzfPrMHHpqxQ4fQfJMHIpJV055HRaX5Arjq5C5N5P05Ae4C5bB1AriS8wEuf05ylC9FIHfKHvnwpQtwF6ie5x8hELgoKAgPjoH+GfnD9AAWy0YAIdfM9JzZPAUXBaHSPzUy4IJWwVlmUw5c/p5sEfyIi8MTGZei+ywXY9Q11CcfWw7VCeiMCKwIg5ZVXVMjQOV7mwCUNElVe0rxUv2Mo3GayMZNLBsJn1OcGJd57HljXKzAtTq+RlYjQAwzn3lipgqB0gpbubJRZZkWcJ61p48c8m+ttklLYMM8JjogzZgZWgfjcjNyLNjlt6O9XRrlcStRHlcL4PgNRz9Je5X95d/+9JOGAdVpdSiD0h67Zcp2KI12a2mRNjI8ro4B7RWTXxqxS2AyceGzsWof70SCoz4JF9soXlO3EtdQ//67WDPieQgjU1egfc/xlnCTUJ3A97r1of7+vRT5aamLmicuhns2OqxyvYujs7w+0rR6eNJW/X2dfeGJOxKf82l83OzBB/PtT/9nkb3nV0rt/3zU7MCBxeD2gyaK7iffeHtdurQ8AC4D1CLIoZWxSZqxHsAN0wKH0KBlAXQezt8BABVPEl8QLDWePNFy4uQCAMYJtyyXAMQGB4ekddETS0MSOLCKvFAO7WdiYtKPDerp7bExmSZ8npDZQzSp8vIKB7ue3n7rlWORL+9z4m59Q6ODWZnC8Am73p5eX1fnWmNVhVVWVfqMrZKQpsgpvRW2YmWDrVxRL+AzAVCnPfPMETeF0foASMCQdXjslcUsZPyKJS1nzpwSo87Z2rWrpZ0VqUzj0vgYb0ObmlIZhtUz91lnZ5sdO/aMfxHt9KnTNqRyM6mxcgVn3dVbXV2D8hOW0+CIE4BjAL5IWpavK/M2CSDnbUKdO2BQ47AhgqI2UodDBxAW1IZ2wHnHkAF6B9t77ZxM4Ey6edNaK1d5LxZRhgBwXAduuRDIMfG0Z/cu233nHfbgK19pE9LoM2n9cJe99bMPWE7Gjq3x8XmBWq792Z8FUPvbjxVJY2OtZRrkLyVitpuJMJSES5mWhYn6pp/6JV8cC2UKAcDDUdgOTEIEhJvxN06+YMY0gmHQIBgTyvNBemSKWUPMshCToJEL/vNwYeEvs56Ms/EpOUCNsTqfjVUcLBWZpCv2d3P8FA0+TIyZiHm6fsMGf8bXukKc5DPHzcC4l5WDJ3sH+mwsNeZxMgmCNjQkf4AkL8krgMHXo1i6wTVjLZMCZr6+v2nzJgnbHlu1Gg2tSII06drlM0eP2gMPPGCr16yxLZs2+cQLC4cxkRmn42torTKrCct9gcpbW1Nrq1evcQDmc4cPfvch+/znv2LzuQXWcva42qPdKmsEqEw05KlembwYnpIpPWnTE7PAFJXpZSPj1AvXC2C2wIq5rkFyn8mesV0jrZb2/LYbFn+FbX9bj33h0L9vwuHZRAJ/HmXyGD9cM2mzedNG27J1szWtXeM8F6lgeMxecO/91jiRHiM8e12VTb2hyx55dFImaK4dPMjZg7XqQM/fizo+OSYgOX+gn7R/UCYqyyTnCs1GxRuH//RY1kS9mATjuZZGpS9ch9+o1fGLeRSWc4TvhxKGRoUZcVyHWbxZyxcQAjo+yUBvrWeER+MjjFLwcTwG5hmH46BGN111TTg//01Mg2bGp+UAK9JnrLCQpQFl5VZf32h1crkCl5HxURsaGRYzp5R2obSiOv9+7OWXX+EnAysDngbfbOV7DWiL5A+gVQ0obmY/OdEEja7RNmxY53tCe2VSPvLIg3ZMWh0fRampqbB1TausqWm1bdu2xa6/7hrbuXu7rVm32mbmUnby1HE7dPigHTj4pDTMLisuKbDt27fatVdfZbt37bTVq1YKxDFJZRY21BknzaJBM1apYguwp9U5ALKhU0GDY9KF8c8AZoBD0NAc2ATGyn5wDoA4v/kelGPtAo4nz3Un94GuWNMg4CvzNojuP4yUV/9LogTUdqlOXvfaO+ztP/NT9pKX3Gbr1zUtAjfoaFmT/debf87aywK43L3+avvo+JC98Y1n7Y/+x5A98QSarT963tCcKsGtovOx75KiZaHBvf4nfsnyBTQwveTHf32Lja75ilMcd8Nx7YInAEOLi73WAtDplkHwyKRoSgAeY19oWEFAw2RFNHWZsSQchLCjJXLqL+CDULO8g2OGzp4+4/tMr7h8r5/wW8vYnMKMC9w4K42z49AC+f5DY2Oj1ahs5TIrhyZGfbHtsExOlrCQP58kUTp1tbWe13GZynzSkKOeOFkFUxkAZOyPb7yyDIQ0N23abBsEnJzJ1qV8XbZnj5uu7BnFBOVjwrFOYAwAvL6+Ttpfmfv7Eg5ptozrtZ7psL/56Cfs1Nk2N2dHR7oF3vNWVVtmZRUF/qEZPoY8MsKEg8BZeQzaWhi3YfEs7BfTWwA23Qr+dLsYoEK4GDZQWWG+/fwLLrdi1UWktsFR++jD6XVg6fi/P3pWkZA3Y5qbNm+0rVu3qONZ6+3/vejeyQ121hqsdmLI7jj9gP11fq11fe53/RntX+oHNui6IBz5vpTqGpqsrOz8WdGBwR7r7Fo8FgkVleTZmo0VyV0GKe68qsWzz5GqZyqRnuQuTamqlM0VnL8eb7Z8xKaKpN0Pz9qRj126kwzL4qMz26+4QUIeGS0AECxKTxvXSwE0UZODGDOKY3f4O1PLgWsABv4xLET8MDP8R/jgx0LVsOg3vDMTxiaSd6M/4MKX5tnO1dAg4Kqp0/M5/4QdRHy5eSwTqRA4Fdv42HhY2CuzRDlb0ETZqeBf09c12qKDT0O9rRFwsYSD456YNWUZh2uZPhZmPuPLEhTG5HoZExTgcTQ5mhXm5vjEuH+Sr76+wTZv3izh3WqbNm6y+rp61RFaWUrl8JwqH8wWSxgL8wTYZ+3rX/uG4upxf8xKTGjkpEDP/StiaD0yuxAdZqIXOgKv7tA2iwGIRvN/59GFAG5a5UXD3lSfNskqpTUOTUxZ12g4/vzfS3RUaLsveMEN9uIX32pbtmxWG1Z72z4bYSFw9Pu3vv0d61n/EsvJL7QJAdiBhi029NjnrGSqz9uaTjLmkbHKC+W3vKJGWnPYp5rp+ILbyAW+YJ+Xn2MVNekZ5gVS1eaVCciUxFJXMiutXHWry0VutlAv0bFLI1/kiiVP+ivOqbC2x1sv2Y/OPHsLPc8okRUnBId7N1cdxNQUfh3uETImIFirFQe9MUWnASb9puNCQJ0vFkANDQQ/3vO4JdAArYOR0AAtD+0KYuwKs5JjlmD48Om+KglHjTMDQNPd06WeeNDzgFnL1+ab1q3zrysNDQ07MLZ3dDjokS5LQvgaFgt8YUfG9thONTIy5mvMIvMz/kb+0HI5ww3gW6W41yluxvLQGDmh9+CBA9ICOn0iYqXMz7r6eu+J0erWrFltO3ZsswYBH2UBINE2ATFMYpa8dHd3Kr14knCB0qTjmbbpKdWPH8sEGBb4NjAcmjBAGQQrilQgOgv+Qo0n13oc/NIUnqT/Hm3ptN7RxRvpX7y1KXzVPiFvxwWnt7jQu+6SB2l/QK3Qduzcbq99zR32s+/4/+wVL3+pNTdveE6NjRnhkydb7NOf+Yx9+MMfts9+9rP24jXj9q3K37E/K/hT+7m8u+zqnKM2cXKfyq6SJ+75SNMTczbUI4tj/NKGkGUBcAlPimAWHMVCi8sR6LAmSyIlxYJfVtIDbhPSShiInxbo+dfk9WxG15Ni0gn5T+ka/Y2vXEkcpTHN++p8jszJyy+StlToQsyJHMIT5QGwDCf98hsnDSbUy/b19fqCX4CvtLREPXKpVVSVWymTE0pjanLCxqXljUnDYwlHscCpUaDS0NAAFlh/T68NDgy4+cp9RWmlrVu7zpqbmq2qtNqG+gSEp876NivKvapxhW3bvNU2rFln1dIKhdw2PjxiA719Ni7QLBIQbVi71jpbW+2B737Hzpw8bmMcFCDApfaoThx7YasFdNu2bLQtGzdaY22jFeaW2OjghLWcabGzZ06qfidVphyZsJy6gtkvYJ1WmcalQc7mu1aZlzMtU2zeKiqZQWZtYQAJ2g0wRsvDcSwUGqPv+1QOZnNU33LylhP4SEP0ezRFnMeiKlFEX3/mTHIXqFwA9cJNq3UVeSJSGsh8L6q3rlp6fkadQq5t37bVXnvnqwVqb7PbBWobN34foHaqxb5xz0P2yU/fbQ8+8rQdPXLUO1Ho6uYq25zbbnfkPWzvLfiU/fD052129LnPt3s+UKprzvoOjJp1P3vdXAq0LAAuLjeIboH8PjAzQhB+Q3jX5KSxBU0urN/C1EGTcn/Wa8kf0zBqb1zjxz2iQXh/X2EZF/P49czPbpOZSO+McMT3fdJCcUwIBMkoWo+bsQqHRtgnAOrq7PQFv/jzsWkG8VmAjAbIJ+oY6+gX2LEMhe1hK1eslCnZ4DsYSIdwaEXV0vQ2Nm/0GdSmtU0+3shOiIH+AR8L7Ovt9/d379pla1evleZx2p46+JSdOnnSxkaHlD9mPUGbGZ/5bVqz1tYLUAvzS+34sdN299fvscefeNLrlXCcqBI1EurC60Rl9UYQgKBMFRUXOLizvIVN/qRBnRGGDgJaPPkQOqlICuX/n+/MTvYO2bHuxeYa6+LqpDXGMOlfSG2lP9pg27Ztdued0tR+9h32yle+3DZuan5OUAO8Tp1usW9++0H7+Ke+YPc99IQ08UGZkRyAWrYITy+vD0AXaX/H+bOhz0cqyS+3bet22TWXX5f4XJq0LAAuglgQlox7/vw3+DnI+XUarCKQ8YvmhX9Yr4VfWNfFkT6AXowXEGERb5hxFahIQyIMnI2A4w+I4fxoIDRCOQAO4WXt3Chf3pIf8cvTD5AEcAYHhuxcW5tvxwLoyEtRUTh6ie1THLvU0d5pbW3t1itAHMN01R/CxRHorCHr6ur2j8QwkUCemLBolFYXhTYuA+kX2FHGtaubbPeOPQ6KaGWHnjrgvwAdx/1wfNP4yIQdOnjEvvH1e+2eb37XHn3kccUxIHAGfAF46gbTM4xjomoCIQ4kSb2x/7ekpNBBrry8WCY7Y5jsEGE/MNUQTTYiwHzNNGG95TIcFH8DocVxSkkk8v2y7fHo7nRYB7Xt2+yOV91h73jH2+32V95umzZv9vZ5NqL9z7S02b33Pmif+Mcv2Le++5id6+jxSQJ2nJRXlKt+pblO03mFdwoqam17QVe4SeiJ4+d/qPn5SHSM1N0b3/D6xOfSpGUxi3rHj/yihCUcSBkEJBJFC8XzZ8mv+/p4mcRIXIng+7FKjJ/pOjMONClueRuBwWWSoE+Bwl5WH3RWvFQpA+yYpKyH8y9SnTwhs1JAsucyqyiv9LDERUp+8q96fmGDbwvDTGXCwpehsMRCph/PEUxmSgFLxsB8j6ziIG20LLQ98j4xPmLjAlBfV1da6g4gZUsYB3Ay/ocWyHlzjTKDL7vscrviir1WW1ejdKest6/HOjs6FHeezN01er/SDu4/Yv/wj5+2Q4eOyuKdttRs+DQijjr2pSBKj8XC07MTVlpWYDU15VZcyrgcnQMghgmqDkBVlppkn+6Un4/H6RqYqLRBMFdVEd5YGe3nYAmpg2HTPh2DB1pMr9i1xW7b1pzcBWKf6unBUWm0G3z2s7l5/XOCWSQ6u/auPjvT1mlnzrba/JRS55gkTNs8meTSRIsE2NRTakJ1IceSoY6WQ16GLbW5duxdi0/8XfGRUesZN9u09fLEJ02p1IDX01LKzWN29fz8Tqqux8aGk7s0FVVI4957/tHtVGfZ8IXLnbeqkD7lPCqYbVQnd/7kwWvuuFMdxKucDzeqA83uRb0IFAHu1T/8XxYBXAQoQCxt+iwGP4qNJYRQupmYAA6LgCOIZYbnGv8ghCFOP39N4JabH5aiEIZ4EWiPq7DAl3Ww/IK9qCzRwGQsLSlz4SEsM7mYqIBQscrAwmTACGBkETCNU1xe5rscYCAf4JfG5Bv5FTegRVphp0K1739lNhPGY3KDGVxAiBNqySMzqnylnqUrR585QkV4PhlrWrN2jS99APSmp2bswBMH7YH7HrHurn47darVTp1p9dMqcvJkUs9xhLryKFMc0GEWmMmG1JQ0yvlpB7jq2koBczjKHZOdfbdBivS+QI0lJJOT08onQCkTN3nmuwQy6p74uYusOjk2KoC7sKnHPtX33n6rVZWkz02bVLwTm3YnS4mem9CYW6SptbX3Wt/QuIB8ziZVptmZKcubxcznq2eF7vIKae9wGCpn5PnicOWd03dn5X9n84R9/HY+AhSoa0zA9jcltqaxSeZ6WBqSSaOjbXp/sUkLTU0xmZXcZBCHF3BqzFIqqiiy9devS+4ySHmraj8/fmh2i2pYbbiUSsc3WN7c+Xl96w+92V55+8sEbAPW3LjykgW4IMnLhKIAOHAkLoy34ZhNDeNpOH+OX2KOxmfhy0+Kh6j4EWMRLU6P3RTF7GQGlmAscGXBJw4NK4CcGEYPp2W6sqWLuBlMB2CIm7RdaxQwYfownjYyIrDCbE1h7s15fCwJQcMcZ9tXT69AiSUeE54ux44jJGWl5Yp/XubmoD8fGByyMQ7cFBCyUb8EzU8am4L4/le+vUr6zOTW1tTZ2rXrfMvNU4efkqb5lD388CN2/30PWMuZNgnttO179IB98Qtft2eeOaWyCoAVl5QsLyOaIPlk9hgTnwXNgDsmqdfTlOpWIDYnUMiZZyEw5+bNeJ2gSWKaFhRwrl6hHNvPFGkOe3/lOGHYNbh0O4SEAwg+G82p09nft3gLl3JopSPPPrBP+5w6dda++vXv2F9/9JN234NPWlc3X0kLbcNsMLO/tC3tzTd4OX+QduJUF9YQhrLDUznqbNGaq+3yxiSBhA71iQfyC1SH3/sr+pc8qUHoZJ0RLmFaFhrcq37oXa7BPVdR0gpBCAOzph0eYT1bEbN+AqPM51AEpEjRv7AoR8yOgIYN55wFR4+O0OTrnuOQnn76sG9+Z9tU8/pm1+B4nzAAA0Zz1CKZQQU4MFsdjMVICK2P40krA0Q5RbhUmhTA7FqeGI13KT/h2H3AQmPMMOInT+QWAeSaSQvAkwkNloC8/7d/wzo6GK97dtrafJ0VSiualmbC6SIY50XJtq5RmUmMX6LNcJQ6R6szicCkAke6s/MBjY2Tkql/yiYocOFgcz1mKVopYIJGQlnm5piQYdKHcIqOxcECN+ptcpxvFKSX0JcXl9mdN77C1m/ZYFYr7Up1VHr2qOVNpL9E72fqbdxt86pfiLo/29pmx06cttOnz6pehKDqNNgmx2nKAOo4y13oTYz9tSnLmy+0ivJqmd2c8DJmw6ND/llItOpcK3AwLypglrxc/Jhvf3T5AXvFhrTG9CdPFtpvP1xs61Y1L/BPJj2fNLg3v+l1vnMDK2LL2qasBnex6dnALfrz8yxBRAKyRIAAAZh/QcvLeGnhGj7AqfbQVDABx6VZ8cs4E/tRWfHOroJgIgJMCF4RPOab7uMMLYyeK1ANY3h5NiPJAqSIj9lY38ysMKwxYwkGa91YH4e2xiQE6/ZYSMu3EvL1HKAfF+j0DQ4EjVBx+USFANE/YtPY6FoIkxgcrPnU4UMOUt+LvC5U5pTyjibIGBj5x1wH/HG+hlAFZCnNjPI5OTElE3rMBvpHlecxGx9j3DBoyF7jegcwLy1FWy0LM6zqLNDe2OzPeODsLOftufomvzgrK61MZb3jshfbB9/1W/a+977Xtty82wpXlvu4JfU1uWKxgOcob4Xd5+z48eN211132Uc+8hH7/Fe/ZYePnpD5zALtfAFXhczqOpng+T5ZAQ94g4kwwSury61YJvdkSuUZ5sRjABQ+CZ0HY6sN9Sutvnalfyhod/3i8bSnpMEtJ2JohM75UqZ/E8B997vftTvuuMO3/iCgn//855MngRAGNkjwHGG/9dZbfaA9kwCDd73rXVZfX+8D6HfeeacvWv33UASkBSAScZXpFwax036uJckhnH4OnF8zOxpMV2dyFy7EDMf//BEHMYb4WEiLuYvZy1lmedJMeB/NDcBC8JgIgAAcBzjMOdL1NGP+wtIT3gF40GoYjwMUEVzX/PQ+Y1o+Tqd6JB3yD7GFimOwadqR0TGBHIP+mNUhTkCUTxNysCUujOctFsQLEYDkXwBT2m7m6o+8UHbGzgBYBsLz8jhnj3WCxfJHq2HWNswWEx6g55c6hUL5w2EDrBHkS12+To6jlmSyMtNakE8nILNdWtGLNlxtf3L7r9qTv/AF+9Pbf8Nma1TPLDlZQnPSkqeq6pO7QIXD/Xb/175i+/fv97rNUX5zcwt9XWOJwK2yskbpcGbevK+R5NseCuAaJQcVMAM8PT2heh32AX5m0CkGu2KYwW6oX2EVFVXyn7fC6RFbWx7KGOlQ77LRJ5xCO+IuXfo3mahf/epX/SSKK6+80t7whjfY5z73OXvta1+bPDX70Ic+ZL/3e79nf/u3f+vbfn73d3/XQfGZZ57xQW7one98p33xi1/0MGws/5Vf+RXr7++3xx9/3Hv274eiifrKt/7ChU1UNUAAKK5jU4QL73n49UYKv7Af30jVPz3SL8yNdkJP5Z4BYIIL5hLCVyTBY6AeISVeAAPHBMDJU6esrfWc1dXX+TYodigEs4y8SojJhKePhRCECX/WrLmGxGP2wSZaEmZvJC8Dv+RDQhaOYi9QeOVBmhUTAIA2cRI3eUSzZMaTAzkBSI5j+sM/+F3r61389fg10jbrSyrtwHDw37P1ZpuUCTrhYDptZcXSeBQPS14ALzb6M+kA8KJ5+To317wSs1RAVV5RJi2nlBrSOyzLYQkNwBdmgdlbi5nrH8aR2U0VFQksr2m4zG5bfb3dsvZaKy9cbC7dU/CUnc5bvOGeNj99+rSdPHrEXtVUv2ifakvfoP3ZPQ94zZXVb1H75XmnUFFRY2UCJ8xrJgmYhc7jnDu064I5dcJq8/k8Gxwc9a1t3iEmGiVDDrXVDVZaVKEOY853r+yt7rZPvOiUpwlNKuj2f1wn7XfGKtkulbR7JhVNjiqN88F6Rkww64ywmErrBMqrapO7NKVmJq1jYPHCZycVuvxZjl9608/+uNpIvLOEavNXi3fCGkvag0k5tPbdu3eKnzfaiKyJzevWXbIm6r97DA7hygQ4okNze/e7323ve9/73A8tg4+lAHzveMc7vDJYpf/xj3/c3vKWt3gY1mw1NTXZV77yFXv5y1/uft+LvifAiRD0TCK/4Te4SA5a+s1nLI7rxAEq8do/JL1wHX4BRDQLTC03j0SMo7Dcgy1SnJ/W2dnpez43bdrkY18YaIAX77uSrzwyjoN5FwBO9SiGIj+kOYdXki5g62fS6RdQ4Z5yw4DKqYME30Tw9xSnXgnAq6qhHYiXMTi2ZiHcfDH/A7/zGzJ5u+ylq3faa277dcsrqrTZgjKz6XH7hb8JBzNesV0Ap5yPT0uzEUCVF0sT0z0AR77Q1AE4vu6fSrFtSmn7uXKsjZuz0nLOpSt3LYg8cYz76Mi43pcmpZy7CS8B80kH/V636jK7ZeW1dn3DXivLf/ZB+dO53XZP4VNevpLxPDt57KR94pufcZCBbtnabHdcsdOvI/3Towds35lzVrv2Cj9KnY/1FJeUyzQtsAmZnyazmOGFnJwCy1O+ysrylDeZ20PK7wjgK61XdU69M0FSUyVwLK6wyXGOpg+Lvn98S4f9xlXpNXCH+kvsJ+7fpTB8Ce3CQwJrZ1QP3uqLaUYgO6c2W0ord2ywTTfsSe7S1N3ZYZ/5+MeSu8VU2njhr3Ld9S/fUjnP/4h1Y2W1A1/QtMPSKiwP2pzy04lv2bDhP88YHD0nAv2yl70s8Qmzbbfccos9+OCDfo+WxuB3ZhhAcffu3QthLkQIKKCW6Z6L3JRcAnrxnh9MI+5xsQEBmegHAUTMdMbFqh5W8Ub9xGcMpcGgDSFUPmkgDU1B3PzDLOQdwA8XGYO0Yty8j+m34Me94uE3msthskBmq+qAX2YhCQ8BwjjiBbA4ztxNWgkLmibPOLMO7ZlFqRCHdQ4NhfFB3oPUT6uLXxXADSootaLcoP34SSWYbZ5myD8aGA4vtDDGGDm9hDPNiDGUk/G0OQEbmqPiEhIpSy7GXkZpNMy2cl7cZeXb7Fd2/5R99iV/bv9977vtxatufE5wo25aT7dYz4EW++hf/G9730d+y/73F/5uAdyg+0+cse5hgVYGvXLPNisS6K9YsVpCWa06qVYnUKT8qCzScDAxqTfUZ8Y9OaSUZTfwm2/NU/syJEHHwdIcvq3BXmQ0Zr5Ty8EDO2oWg9gzg0UwkxUn9fl8oQkBNjwFDwZHpxX4hd94fanSfzjAAW4QGlsmcR+f8Yuws1QhkzLDXIh+//d/3zW26ND4oAA4qmxdZzr+Q8sQaiWOay71H1Iph0bDlqGwbUgC647luwILCRCOJRf+4Rcx7pTML2auYOQpPrrMerSZOZuYlmmS4lsJ0z5BAAAx25iSFuRfRZdmxZoqjttW6iCC5EcO01cAhClkeYXyy5PuIyfAmJLqJv6SxoCJIo1MJhK/UxLAlEABc4e9s9O6n0dwpG3MSehm51jsm5I2xTgd6+GYgVWvixlbXGxVtXVWglCq7JMCmVBzZk8MLTb1oN2VDf47kxqz1PiQBFwmqcy4SZVvTGDLJAazu+oeLIeThmW2cp5dPuNb6JQCCsromiVDa3nSAjgMU1ru/Gyu3bT6WvvAze+27/7Y39lf3f5bdufmF51nhmYSs8r7+w/bnxz6qL3xm++09z32QfvUo5+x0dwRq66vsYrqaiurqg0AJWI87a79T/s1RIeC9kaZi2SR5cucn54atcmJAQH4kM2rfLk5AHdK7cbEgQKJb0aGAT86Lz7HqKqW+VpRXmeVcnm5Rb5MZHpeoJY3o0LO2M4lAHdYytyUOpUctUlS3c8Lcj6njdXWPkaNo2MT3wXZSQJeovQfDnCR0FQyCaRf6reUvlcYjmRBFY6utbXV/WNPcqE/mDM4Anpgd/w4xWcJMSrmH45O8DBAZNS68IvPlE+uBS5B60LLYo2XhJ69qJOTbrKhpXAMThDw8K0HtDUEjzg9Ben9bMOCSDt4CxiULmM9Pt6j8EGLDPkCo33fLOlK00Oj4jmTCA4qhJGffwRaPfDoKKve48zsjK/HQjMJGpgnaB3jg4pchcugy6uTxVyKkJnIeZWVFiJvxBM1UOqAOBlw929YyIHdbjvqn3RJ13hYzHxlzS775V1vs3ve9Hf2f171fnvDjhdbVdH55lEkQO3Q4DP21yc+bj/+0C/abxz8kN3Td79NFUz5YuL6xnqra6iVNlYlU7NU2qLMTU880DOdPfZ0e5cdbuuyD3/9u/aVp57xiZKJcU4rHlenxGwzkwZoX2GZClYHi5RVJBsZGfTZcMbcGH5g/BBNtaq8yrVV9gjTzk55fLoxxzZVLT4J8qkOgat6q5zpUNfPF2L2mAakfaP27jIKP/CXruZLkv7DAY7jfqClmhgr56NWRxh6BU65zaTMMBcimA47P9M9F0UACbSUsdIg50CYkB/CmDjMlYXrBPD8V47fCDo0PCDkZqQcIIcWxz5RjjUH3FzwiT8JHxyME1ymaRzSiWEWu3SYCKzBnMUFEyI4nsexRMIAuJhuLC2Js6+kw4A52qPPggoc56XNZNKOihVWkCvgEmiyc4MyAFRuigqw0UeZEGD5CIthGa/h+xFsZYL7yUeB4t1bu9N+YeuP2d9c/RH77d2/Yq9cd5tArSIkcgEC1B7vOmQfeeKj9qZvvMve+/iH7Mvt37FB5W9Omu08X3Uy6pTZW0au5KRJlZVXW3VNnXilVPUugOLkF7l/ePSQ/f0jB21IWrb7y7FvNHwxDH2dMUMJLaeW6JrvXvC9W+qVmXDqnhFTTp2hcystLfNxx2l1Hv5cnQ3lpXPZVCUAXCJZp4fLrEgaesHzzERlnBfApx0D/wV//OAt/i5lumiTDL/0S79k733ve90PMGPD99JJhk984hP25je/2cN0dHTY2rVr/02TDC978zvFkOcPngYVWm6BMrmOYoeiw9SB6JnQgAIwuI9+QmOGsga/8Nz91MP5NiXYX4xPnDlzjJeNW3dXh/X09fgSgrXrmq26ui6AiOqIWg9Vj9O7xOfpLwE3hcHaipMakbH4Zb+rf/tVgBPH4IJjYD8Zm1O4GBfMij+JkB6zh5wl99BDD9vQgMynmXn7ldt+04or0vsYVx/6mP3O0SdsRmUcnxd4Sz6LqqusorLGRodHrK+329uXxa20KdvEhmWKTUsr2tuw0V6y4Vp7afMNVlP8/Q1AP95x2L528gH7+pkHrHuix8tdlOx2YByRGWDKFcY5+cA0GhXtLEHMKVU7ACDUBQeQCqpUbupENeBlp/7DdjvVaX7gjdiuPhmjax+zVGfKjDQ8RkdM/c2bwFCdR0lJtTXWr5Y2WmIj4uWJSQGcjy2qjeRe1zRgf3htsC6g9tECe9Vnmq1A1muh8tmbxyyzHigtP+SSDkZprzCOdk86Ej2DnYDbeT1jofJS2nT5VrviRVcnd2kaHOi3b33ty97Reb5hMSeZ5VWsE0xuM+gD7/8fKhfb/OAz6ofymlXKT5F4PfIMXne+Ur55Dg9s3rDeZfpSnGT4NwEcWsCJEyf8eu/evfZHf/RHdtttt/keRw5UBMgYL/vYxz5mW7ZssQ9+8IP27W9/+7xlIl/60pd8mQjvvec97/Fvg/5blom89M0/K43iArNDCPtcXOPlHBUuEwqn/QYAcdItgkEDR6aHmBrnFr/g5JlcS14C2HAvjhRbCuBmpBmNWFdnuw3JvKmprrWVq9cG08mXiMS4AyCFOJWmfMgSml2YWYW9RXy6L6aXAByO77r6rGoymxqBjGcQP37laUiApUnyjC02MCtax6FDT9nTTx+VJiKTSlX19hveLeHd6u9DW45/xn73qQeM7+wPTo/bpMyv4tpqa1ix2ndRdLa329joiGtuKxsa7bo1O+zG2m32ghW7BWrPrqFl0hOdRxzUvnbyPusa63MQms8JZVFtKM+Y3gIHAQ5bxRi/zZfGCbDhGPMrLChRfRWpTNSdAsvxdmRu4mAsFBDjjDrq2/LCREEmv8X28IMNVD5mwlmLiL90VQef6uoGq6tptJmpOeOr+0wq+Ey3iHr99cs67Ke2pZfdfKel3N7ztRVsWxb0on3Kk46JiReBQrFM6yJpngWsX+TYctqY9qQYyhrf9s2nAZfQrS+6xn74R1+Z3KWJvDIZhabuQxJT4bSXMEEw6yAVyxnDQ5jbLCinTmak9UNxZYCHdzmgLUI98j6zqBubltlOhn379jmw4aBf/uVf9uvf+q3f8ns0N5aJ/NzP/ZxdffXV1tbWZnffffcCuEF//Md/7FofGtxNN93km81ZF/f9glsmxQZaSgk8JLQ0TPo+vs//XDu4uAMc43XaH/Mp+AdzMHxdK4QJ4MRv8IcJ2DnAL36MW/nYlY/ZKYw79ZDJPc+4DoIaHQxJ3gC/IPg4xvFYcZ/eVZCUQ7/+XHkiLpg1mLGsMUvPrmKyDgyw55LtVXM2PNRt3QKYTJoqLLfKmT7rGO2wwQlpMoovzqr5+Wcy1W5af5n95vU/av/8kt+w39/7k3bHejS25wa3p/qO2oce+Wu75e9/3H7oc++zvzt4l3WO8jV/yqC6pIqVT8G3/s9XOcxSTOCMTNjI4Ji0FHZHjApcGfNkJpZN7gAeZQ/jk/xGYeRjP6xX84/+yLwGwPCn3JjrgAEdN9ra0OCwHx7K/t7UpLQtZ4xQ/1gKfDDIFwMza0q9q235Y3F3oYB3Z+3i8bcTPWp/8gO/5M7aZO6UpQrnLK9aeVpRY0UNtVKVymxaWup8fqHNMK6ntKbU7jNqJ5L/15A4xv+njBxlX1bONzpYghM0L3AtHjKBvMVOk94VnkUjjwTf8Mwdf4QTwWPup3cvZVoWe1Ff8qZ3PKsGl0hKQpmNEZjAHWqTkxqP3p/f5FlsUP/ln1zQ6JLGjn7+F7QqU48+PNxnXV2dNjUzZQ31jVZTVy8GK5ZAwbDJu171uk7ij00R7z1bSoss+X3yEC0xMif+wazgN7wPyMa846WfcK1fQNY/c6ib/r5+dVaP+flxOXqnq+2YvfkF/8VeuOs1Hg+0uv1+u/vBP7W/knZND19b1WRWVmw3b7rGXr7haru+ZrPVPscEQSYdHTxpD/Tts/u6HrITnS020D8hQAoAhmYQOxDy6jPM5N2LxH/y1//k2203xrIQfjUvhwn4NwuMY33oIDHd813bC590DO0OmDHjG3ZvCHBywhmACLEnQc0mbQLF61jPs3NTVl0j7bVhlUB+VoDIMfECANpDeWECpUxpfvW2h6y6KJl0EL33aw1298ligVfQyqZz1AblZVZd32DVDSt83eF8rvIulzOT7/w1q4IrSq+XklzGMUOeMunZNDg6NLaSkXe0YTojykj5KSjlQov3cWElAqDh58+9yGH4Ir67wGcAIeOUyTUdxIQ6yea1a5eXBvf8IefaDFp6v5TSzB0oCFlwYgy0M/GA8wG/rC5JnsEcPt4jx7VrYmIOB0M5f+6aXtC03CkF/o8TFZn+7ifmVmwL8eMX8ifBjnmSI10cR67j/JlPkoRnAB4OrRGHBsbMKhocv+SJcNDo5JD/RpouKLfLpPUgwNeuvczed9OP292v/0P7n9e/zV658orvCW6Hek/a/3jkE3b7Z95uP//AB+wL5+6x/qlRCU2xHEArIfMyBQBGeCA39yluQhKpEE7+aLTxGeVXxdh8ovHm5/ON0kKrqmYSSqBHHQqEOBCgr7/XT03uE7AzHDI2MuICOiPAo90AT4Q5LIdQvRFnhmMXCScnk/T03Iy3TezsfIO/wG118ewicIMO98rclaQJDm1oXgBbqHQ4ur1cnbJAYl51myvND1D25ULyy2XYQb9ohV7ufw0l9ehWhMoO3wX+Y0wunIzCPc/IP2X217wBAMhpm5ic8LFFZpmZRIFX+GU2GRf9/HTqS5iWDcBFYV/slvpfINyid3Xt90GIoqPV0/d6vjCrGoDHQUSIh2A42Og3nA3GuXCYBYGBABcWp7qZyztyIQ8x/eRaf0iw5wUXny2ECf4BuNJxRSADiLl3s1mCiV8AVr0kwixGeMljBFyEABrN+DgxVFLeYLfe+DP26Dv/2T79Q39ib9n1YqsvOf8Tdpl0YqTdPnbym/aWr3/A3vbNj9gnjn7Tzg0PCFjnBaiYhJj2aD0SZqmnjJnRYYS6hmL9hjs0CeoxhA2A4vVAWfVHPTOAWFSYZxXSjCoqyohBGhbLiQYFZj02LNOTb04wXsYzyXUQboGLL2lJHFveysvYUsZx8eVu4nEkFABWIf8ymeXxoztsR1PqfuoxB6UyW9xc1B8yndDoVI4dH86zaYATbbKUcbcyK6kqV92Wuvbpy2tYNygwA9hypOnl+cy74pRzrfVfQQAiZQn8EjquvDzqDdM9DFegfeF85luma+xY0pRYL3KBl9hWF/ZHR7Djo0lsabuU6T+ZBpcmhGcBMBZceLDU30FDjBLDZIKJX6vxvceHEaS5zTDmJUfYMAHAOXAJCCmsj43xTuLngKc/hCWkE9PKkPKEQn6SuCRomfHEa9amxesAuDwP7zl4EK8Dg9II/L/A4GhwRbrcXZJrL6vMt72rNljFxttsRcXijetL6UjfWfvjRz5td3z21+y/PPzX9qXOJ2xA2gpnnxXmF0v7KZa2NGuDAxNy4xIMaRaOqWHWM2il6Q4laC2MDSHgwfnEgPxjlaB1ed0lhWDZBgI7OTHuoMYM7/DQgHGk0fTMpMorzUqaV76EnaOeKspKrEpaXl1ttTXW1dmK+jprqKu12upqd1w3Jn4N9fVWXVXt28gUkQMk4MN3d3PotCT8U6Pj1lS8GOCO9hXaDADGycpVlVZRU2UV1RV+cgozwmybA1R9dtedShiqw6+ZJafczppyaHVoqCUCSj7yg1Yf+TRWDE3J+FtBgQCVSNxPBnyh3isp9hlixrwZ3qFMNdU1Vltb42Pk1CHPmVzgXfjC128qDprGOwLVMVsgGc+dYHLqEqblMQb3xnf4TNr5pKK5UENBcNLkTRbcgi2k58kYXKyVIPfccEFY/vl/Tuy3xD+aVDDk3DRfsu+WBjHsxwDV1Nb5uisZB3pN3OscHJglxA8Thygj0Pi9O8Y9QvilFMbeQjiId9N/ypWYkE37NDHaCoPcoWfnw8351t3VZQcPHvTPATIL3Nt50rauvsJ+5c7/Ya8QuH0vzQFQ+07nU/ZQ/1F7+twJmxgbd5OKnRJ1DY0O5uOjo77/ElNnijV2uYz3oN0q7nmZZ3NssFczGf6YdmgO/FA3CBMgwn3QQgNIh7K6Ga/wlIkPU5dLs6RjQdPgGCvC0gmwPMYrRA6tkUkGFjkLd7ymABZ+PT69FwILJJhBpF2VlreVUnPhVr7Ivl6wOZn483IFKotya79/41l75ab0WsKPH6m0Pzy8yc/Sm1H55nNS0g6LBJp1Vox5n1Oi+PWbJ60zT+kp+Vmx4BzjbkqxAJZTnU4qLVD1hmt32nVXbrDq2iIrq6pQ3RT4V9J8WYvaNPIPbU55ZlQf1IMXPykHdcxzhk7Q4rimbil3XKzOezgfalGe/Fqanx9UmnQoxIUmd8u112XH4H4gJJ5I06KbZyHCAAjB5MHFmdR4734L/ku0sOTaBREGQkDFRBDakpOYDIZyBvTwXAcQIkT4n/RCGHcef/o+UrhK+/nz6KufzPuQx5AmvzAsDEpPj0zEgXg0OBbbd/MtxQvQif5z9mf7Pmt3fPp99pa7ftv+71NfsvaxXj/mKC5VGR1hhnNYdcCC2HIrLauQAJYqvQKVJVdpq+ZkorIGgoFuBw80tIQdyTsnFvv5dmg/DvABiELYIKhoP/xCYa/okH/vleUryohrWb4kAmASYHDPoD3Ht7NvlMMaeae/v9d6pe2h8fGJR+755YSVnp4ud3wwu19+nKM3MNDv43d87nGeCYoZdRwC0hyVaXvdYo3m8BBjbSVSVHN9O5cSl86q9p2etJQ6wNToiJRKmbvyR53OFT/4iSIOIkkbkG+1D1sFx9RRTKqsQ8p7Z0+3tbW32dmzZ/2osZ7eXv/GLqcMjzE+JgdY0SZu7qLVCdD4Zm5YaoP2TPShPqlntDy0O8x0AKuygmPny9wP7Y8DEah/eBzA41CJS5mWBcAFYQ48seC4X3geQCAASXTxqYhLd4APVQIo4QLFx+6nMMGD+JIHclwDFGp6CbDMoWQAN0dCzR5Svs8a1mcRTyYFj4U8ohXIK+24j/knrBwF1C+iiw9Embh3P13zTQCySy/tX9uXP28Fp1zqxXz1+kViXMyeGNFIMgbXzgm3CaVGuuyx1kfspR/7afuFr/+JffzQN+zceJ/eybGpiSmbVa9PPPkSgPmCXPX6KRsZ7LfxkWEFybVimT7lZVUSkAqBTKHyJ13Iy4nGptyoWtB+jAkHaSSAG5qbg5mXKJpo+p9gwjtfXO3mP5MULCPhtGLWq4VdCXMyj/1kYbQmmaZ8U2FW7TIzLaGfHJFWCRCOCaTGbTrFljq0Fhbyhn3GlCGl+NjtENxEWFc2wVFKAo8xvTMp7W1awBa2N1hZ8bytr1w8wXCwv0B1rbwBBs4TlGPWBob7rae/xyYBvUg0OJ2i/lQy/5/DTNHgsQzm2UqmfHFyDstVqEOWq4wqTx3d3Xb6bIudPHXaTp05a6fl+D11+oz7nW1pte7ePusfHJLGPqxOiAmEKV8Gw1gsFggTSQChm7LFxVbKsfmYshXlMtmrXOtc0dDgv1VqU0z0tJRcmqTqXgYEX3hRxAS6ducYwL1uFojrTAfRRLwb3g8OjSH6yTkwcY1/0CaCv34iaiidsNRBqr0EhI3ZCCjCimnKYUa+x9WTJWz4zSTyGsBMUQIAiVsKbgBYBDkC00Mv9Po85yw25YVdFth3cTZWT9wxfsKBAnli5GL1zszcha9UmY2lwgktHQKMoxOzds/wtL2lpMTevWqznR7qtNK8IitlSU6iOc1Nz/n6NBaIltVUWkFJoa/gADSGZfoO8r0C5a9EgsLJHWhyBflhbIgtUgARFeimeFK/fhAl96ok6oNxRK8p7zCUropFGUKd0HGgURCOgX/KgVnG7LA0LIEbDuCiTfx3jm1qAifKrLipw5zEUacAEEc8+RauHMBS5hknC6styKdrwbpmdCJX9YTmhkazoWZCQERGA2HaHeoJR1JRHsxI1pkNjAxap8BtWACaI78ctGiBmGJSW4V6yJfzGWZ1kA76SjPfpuXLnl86gAIphWF9HwcnFLHjQHGwU5iZdA5SQAnHjYyOW1tHl7Wea5em1y6Nr8WPaW9v67CO9g5rEfjh2Co5JA2QRd9hrJivtpkVFeRZaVGhj1nWSKtbUVdva1ettvVNTbbqObZWXgqU0RzPX4rjDlAEA1wwx5IH3zfFuNJxPitlxM2lC2PCGA46iiLkLcZFqPBSEM7wG12keE8c0YX7dNj4nPS4hkiLa1Jz7Uf3sW7ifWacEIPKmC5kq7JqtZWWr7CJqTEXjGdSMjcVrETgniMA29B8s8fNmE8QR8ocThdmhrhCpmh5eYXAjoOXZJJJY/GtTv19vpmdo8k5QaakpEyCwwgT7AdoMLaFfAZTybdhJfmO9Une2b0Q3pNWnBxrxBhbHC5IXtE9ZcMvgBSaImEALvLr1+7IP+HDOzgmLNC8Qx2HOMlbeMYJGopL5WKcdZZz3TBNFQYQ3liRHnuDTg7l2nBq1senOMKKCRBmTNG60OiLCkt8bBaV1Ds2/XnHBIYrUs+D4iE/jIeyj5VhAPJL561QDvh8o6OhodH3cWNW0p6Y8/xiXvKca+oSk5UFzbQLB8z29Q1YZ5fAr7XVTd3WczJ5BXanz5yxEydP2qlTp6yjo9P6+gf0HuOoKrtSZudKlczXBoHdpUzLAuAQ/CAI6TExXGBShCAycdrBHOfTUr/F9zG+Befs55F5pIyV+Syq8gH57J8LrN8SJHG8H/Idf0MZ0nmPz2JaS8sVf88jJcYzP81EQoVZxXYaxqXIhq/1Ik+65rdCzI85gqDky/Th+O7xJRvuS12YFH7FRi9fvpItomwSRoSP46MmxidcXagqq1ac1T7p4xrJ3IxNjo1Ik+sXEArkpG1wem5hUamyivmucgNS0rpYysCYG2ewUa0AGyADiFEm6pJxOY5FZzyP9vH6AcykaQVA9yrwZ15I1w65DfUYwhMODZJ76hGwU91yrfBcc5wT2taMyut8hZ/+0I6ZDAHgMGln9a5LkUBwa83i8beDA4XKN2vKxn0iB1DBVMXsLC2lM6gS8MisB+AU3nPmeY75gnG5VzlVfmZ+ASwAEl7hq1+YmrQxeYSoJ/LMREucLKAeGEPzb+tKa6etmTxgrI4tXRy0wBfYGOfDjB4epb2GbQgQlEnb3tlpZwWAJwR2x0+cdPDrkEY4NMz72TG4i0406oUADiceloNh+CW0c/uzOIiw369L+C8h+YQ8JPlg/IsxDQQz0sJ7SRxL85u5pONCYTLvYd60X0gbQQDM+np6rLWlxVrVK7fItZ07F47hVl5wrhHI1KmsqPDtVjA3Y0WKzIbHF5/yUpoUsruy1J5ofdieOvOojYz0spVT8ajm9E6KQe3hUcuVZlUlU7SyusYKivhgsTQtCcHkxJgNSpNhbyTCXVEBCLLzQOk6mGBKBiHF/ENDCRpaSNwBRuUDxNBGMImDORvGjuIyC7Q/Ji58T2UuB4wyvpiYvnJhYXHQggBGnGoTWHNHXcILHp/iAgw5X4/x0ynAmtN+BWp5RQKpijKrrKu2cjn2le6oWyzsx0bLVUbS5qSZlANK/8CggGFM5ckTyDM8UOBpkCrjjq7BudOlO57MeidSKDORfdtwKvU4MxVOiUEjY88sGhm/+MEX1Bfgh/bIglz8fSaUZ6rP1DTnFU75aTB+2Kfak9lnB1A5zhD0g1jVFilpbiMC0z7lv6enXyZvpwBPWp7cpUzLAuAyKYKCOzVSYNjgfz7BKmkX1mHhD3FxoXeWUjADg0kRwBbNAHLBg0sh/03n7UIUn6VBCyCLv2m/GA4GdoZ1oAugih/3/KIxdMn8wERijyUCQK/Ou+QXAoBZxMq9C7g4Ymxy8UnJJb4mwqxw1VZC+B+LIjgZQzCg+JSuQCzFeXMyY1hczEm3rLECVnKSBc4IG3lg83p5WaUDoQOIhIo8ozEFk5PV9qzjAqCCaQ0xUzo1NeFhMPfCUT5MTABa2JGAN+NSZdJ2ShWmiFy6fzglhllDWD46WiS60CbhWrFJUwQk4QnMsrBpPWVTMktz83Nt5ZrVtv2yXXbVzTfY9isvs/LqCttRsxjgTo9VyOyv9GOXWLgLSI+Pp9TR8OnGYmlTHOzJceCqe9rUU/dWUF5hGf6TH6ay/BobG/zEHXZTsE6lUNqff6kt4Q80M9oTFxbxUj+BB+P6TBXHSspKlS9OMq4SqOa7xTGucvEVtgnaETNUyfIlNiY0FLEDnn9pDL6TA/jG1I5oepcyhVZ+nlMwAwPILKUICheiCBTRBfaOdH5cFyLnv8RBMAagFJaIqHr160Qa8g/pnJ929I8UmTYz725G6T6CGM6n6h3kAsBxTT1gjrACP5h1YVM5QEcPz0p0TJjoPI2kuAjDGN8lyKBoohbUrLLckrDWqUBgUSxzlp0A4QM5yoO0lBRbe8ZHHbR8uUF5hZUkM37kjfPnhkeGdD/rC0vZAM+YHRoTVUA8fNSG5+SbQXQ0MjTTWD5mOBm3y09OB+FdWNnLoYIg+IBcvh93zvpIAKFAQi6Y8CM6aJNgoqrA3upxgTGAWVffYJu3bLXtu/ZYc/NGW7NqjTWtXWcbt+2wPVdeYzffcpvd8IKbrKqh3tp7e6xjoM/qSiatjEVrGXSwizjnraS0RGCCaV7udUJ5mVEuLESD46te6mAERuiTymhwjEsqm2jI3JeUFlpT02qrqanypRp+sorAhzpk8gJCM1+6SDcCHn6Yp4A2dcrxVtW1NVZaHj4M7s/kyAGAhwmLRslsrXf8QIXamrFD/6i3tDtAb4G/L1FaFgt9b3vt251JLggW9H5q6EwQxPmjCxY9agw8WxxffC8woSjxD8/lp7Qmx4ZtbHRI5pFAprzSChlQz5eAwwjwraJYiEZ04TykiXyjrUAAGjOBABzCTH7Cc/XYeSqXwgAAUbNjESbmSwQxwiFgzuwSECYY8G+XKcs6LxiXj8vfuvWV9qLdr/M0oanCc3ao/IzdP7fHWj/zQZs4tc+aqjZYbcUKG5wds/FpDoQM5WAML4+PuEhwfMxH5Z4en7TuwS6ZPGg4of7ZmM5nAhmjGxBApKSZIaABbtiOiRZSICGTUEkjDOUC+KhEaXgCNZ9NlBlJnL7tTPHTsTCJUSkTGH8OHR0bG/U0MYV9HVyiAYJzgAR5ZyAega6WaX3l1VfZxk2bBR6VCk+9c8SQhL2YxbQFVl5S6vn4+je+bl+9++s2pXZ57cYZ+7sXpU37vsk8u+xT62wub8a1LLQuXzbkwJVna9ZutJrqVSptsbIpc1v5Ia188UMIR5vLHGetmjq2quoSu/76K23VqlqVG+09aOmFxcy0Bt6gcyJfgD6OOqPtw3ckAthRu0yIAJLcE4byOS8pInG7x4Hz8dBkcgI2hVfx5x7ifnx8zF778hdfsgt9lw3A+aC2irK4OLRKAKMIBvxm0vnFTwOcD/JydV6Y4O9Emmr0MCgsM0zgNjE+bIUS0HKZAAWMs0joGUh29U7xxiw8V9XHZ5lhnblYq+XpIQghr1y7gSl/GBpmxw/mjQPNvENYmDoSQAezDstsHBcI0CNz9uc1615gd1z9E0kos1UFh+31db9hY/NF9s2eWvv0/SftQOcaaRVN8kvZ8NSoTU5Peq+fg3AVFgvkBGAcp1RcakUS0rHUiAsB40AQ+WOhLgPnjA0CcIBPrgCAOmLTPKASloyE3Q4B5FgGEsIAfgAc5Qqb48NSF9bFccgoC4zDh7KHVAfTesB7c9JyCt3ca1y51vPBV67Wr18vQJaWJU2redNGa9BzQI+jrkgc85LJAUxDPljDV7cOHz1ip1rO+vs3j33dfropPR51f2eZveXuVQKuUPeAN6BdVFTgX89vaGyystJ65YYJHqXheDZvhSoL9UJ5vY1VGkBx8+Z1tnv3FoF3nuILbUxJcwsEgoWY3gIu+dGegFvU6rjniCvI+UVxO2CprTkfEHDnGr7wfNImepf4w9FaKnKiTfOMuvY4FRbHsfx3vvS2LMBdDIoA96LXha1asSj8RpByThFxH/zCdWaxF1dBCBf8ApAsfg4tATh3CNi0A9zU5Kh6bQkZAMc4i8wQBzhFEzWUQOH6vOgzwsS4Yz5IY2l+YDg9cEaMPTYCyWRHBDcVSmkrmN7lOXGgxWBKjg2T5wA8nEq8feUee+uN7/J7qCa/xX64/heTu0CyUOzxjjK7t63avtZSbMf6JwRiE8i/A1P4DCCaS7GbqAVFjPXwqUBO8JgIQCyti+OlEEyWYLi2nYswInzUFVIvTS0ZZ6PYYQkO4UO4dLvykDqiqOzQkBnoH8DOcVBl5wLAVi7Nsrl5g11xxRW2actO5avQOjs7vD4czNAOAYhiPhfI1/ZxYZkFEwMUkE6AJYZ8cEeoAZfYlgd/2XblHFd6gf7vMw323x9vUPCwk4BjldhNQZyrVq20hoYmxVmlLDOMIOuDSGWkFig+dhqETpMDEaatvrbK9u7daY0rqpS/ZF2fmtRNd0Bb1UTYwN1Bm6NOyLPzinesAeB4B5UvACR1Ffk9xMHzYmmq1Fv4ShidZZjBppoJF94Lv9Tt615x6WpwcNCyocDo6UYL42AMtAbHfVT9Q9jgYvhwn6bY6M/loCQWMV3QsvAI6QFnwS8ybKCYDowVrnnkvanHG2KMLp0/3WVcQ4T3+JO4g5knSnpm5B4nuRXgCfQAN/JIOuRXIIjJQhjAjXfRtjJpcu7800OYHLx+7Zj92nVt9p03nbSvvn7A3nv9nG2tVVTEOZWyWWbtJvkOxLDciOebzxYiCIwD+QJjgRJtgmDxPIxTzgWTU/EEcEdbCEtGCLNYE+e5njnAU1gEn3ZHg2WZzIiAdVLmcJFt2rzRLrvsMtuwoVmgVSVNk9N5KwR2u23b9s1WXVPhZuz4+KiNKL+9fT12Vub7uXNtuh/1fDArqi7C81MglCuSVlYhTXVtHod1punpAcxv6pg2yXOTPJxSkgwRgOC0bQguCg0VgcRNaYE5365d27TaKqrKvYNgtwa/fvaf6iO2P3UVNNygreEPiOEif/AcQIpaPvfB8W7Q2HjGJBCTKrBFkJcQX5o/cfgGnr+UaVkA3AKvi2D8yPxLhSE+C/fpcFzH+7QfFBrTrxYa9nznz5OwgZkAOMUV3xMTROZIM0kmoPF+IL/WfzxLPw9uKYVwgXkXnlMGpZ1Zbp7B+LgYPlMoGFTmbf9qltzIxOKZsYk5BP+5WeWKhgn7jWuH7IkfGbDHf3TYfuvaUdtbM86WBqUz5eNv0UQtKi62KplpaN/M1AXzR6Akx0xgyDtmWhhTYlIB56eBCFyoLWo31HAsI/8HP+revz8hkGN9HV/LqquvsT17dtt1111nTU0bZBZP2P6Dj9kT+x+x9s5W5SPf1jStso2bmv0sOTRE117UBixyPXLkmJ04dsyG+rstX1pToUzosAJk2vJTQ1Y1t3hpzVN9rIFTPlWGYmmwHLpQWlLi447FMgFpGnLO2BjlgRTUy+7XXqB5W7Gi0TU+tE/hpOqJd4KL7cjv+bwLK4R7wgBoMbxr+Qk/MP4Wn+HCjHb4EhuOZ/AI1kEgwsE7+GMtLN6adqnRMgG42LCBKXB4uUPYfYU8DOCBAvm1wsbfJS7TlAzaV6bTs8RFxsDR47qWkfmuLn0JAF15wowwmTv5LbjMe12zrAIXFpumgYkMU14HAQeCtECE2S6eIdxBY40UBYD3FNKZm0WdgXmVtyTPpL/00EvYZOvf1dnPfCFlXz7GF7TS5bsQba2ZtV++JmVff/OQPfbD3faBa/vspkZphTNTNjI8YkODIxLQfKutqfOZxYLkWxGePzlvlHnlk+UTvhYOTQWzVHn131AXAQwpp5zbaZQNUlwggIAIUCgpLfaPHnnUesZHkdDi6uoqpVkO2JP799nDjz4oTa1FJmSx7dqz03bt3OFjcFNTMuVUPUwU9Pf22pHDh+3MqVM2MjToeWUtYdlY+D5JpKnZHHtmqMCKHdDKwjpDZWxkhLHAKQEdJqA8KANl5U5lYj0hZQU0ABbM2aZ1a/1oJS+3nmH+ky7f5GVc0XlFoIQLfBbaml/8Al+EWuH/uDYz1jcO4pd2ID7frUCn5++FoQwIUCNfEfSiJngp07IYg4vHJaWLgiAHYWZ1fBBgGpGlBOniIuRhFTuAGFgNRpSHvxOYJ/R0gT2IAxeZQs5/xVBipolxaShyBXksDaiwgmJpPrnqyZUu4fIFQNCMv+SXCxTzntkcni/9kqcYPKYNwVwxj/wSPpRVv/Kjh0UI3CSVHzIP4Y+D0XlnfIQjjSaoEJ9FZY/jb77x/4TACf3l137TUmMDVmoFVlWQYzetS9mtG0fspvVjVl4U6vd70eBkjn2zpci+1lJq3+2U0BeEsS32hE5MjNvYxKiPa4XZTpmDVIUALqV8s2kfGDOlPZurtpEQ+klVHA4p/zwff5O2JjRizRnHlQOAfPS6SubobbfcaisEcuxXbWysE9+ofaSCcRrGqdMnpaX1yWTN8yPJmzdutHXS8tgWNjo6ad1dfeK10WQsME+CPSl+m7fa2nppho22e+Q7tvXYX3oZocMDRfbSrzT7+Gu5QG5G5Rro71RRJm3Hjm22vknPVJPzOcXihQKbZc0dRyWpDCVuAgs0cmZt85Z1tnXbRuUzxzu6OLsKD0T+9A+HR56AX9Ls4+H81/+H9NB5KYIeTnHIEdb5GB6V88eJ/uPjfCKeL9YwzSeIfvj1r8qOwV1U8rYCRIILC2zppQIzuLaja5o2NiQUrqNJlGaDQIvvo7kYGQuijX3Q3ntQiVbSY8a4IhPE9/j1rPLH9QVcDJ++9v/Pe4aLZQGoYhn4DSv7AXfWQLExO9QFUfAeWg/jQAszY7yfxIVDW5iclnmZQZxdNq3OQPBjI0Loe06W2299Y5W95G822s9/YZV9+nCl9Yxjsz07VRfP2xu3TtpHX9JvB97aan96/Wm7fUWHVeZP+5IVgKi8TKC3sFUL4VOe9AdIkzeO+GE8q0LhyssEt7Sr6p5xP76wJWzkVgA+K3MYTUNto+Zqbeuysy1t1j/AHsxhO9vaLtdloxPTVlpeYw0r18g0rbeUwh8+/Iw9uu8Ja2lt84mSTZs22pZNmyTA5cona+z4XuqML6Jmr+Zc+/6khIEO9bP2jjpjNnLa1/1NpSaUd9oHXuG7ueoMWW/oW8xCR0bZaGW0OQ6gbGioV/sErZT2hCdj20OhzTNFeCkPBwqh06QYFn49PTnnY/G48zdpLDxPvx3TjjKQmZdLlZaHBveGn1WPGqbFo5AGoRdDSSWJgASexwaKjaOgoqThJAlJZ6VGphGTWUhJjJ9ooTA9bSfV6096GmnS+3o+42MSk7ZufbOVlFVYbkGptI0C+kdnvTx6R/3z0YzM1yMpfv/JuIYyNbhMimXwvCv9WC5lxgE3OMagGEvSc/0Se6ij8B7l49uWEwyi63pqMkwwvPc1f271lenvo/79tz9sR1setZL8EqsrqbPSeTa9Cwy97vQ/QiqB29E4aS/aNG4vlWsq//7O6weAHusutm+2Vdg32srt7NC8jY0N21wKU0kmE22hvPJNhByWjxTkStNhL8W8z8iihTFBwqlF7DLg6KZcgfekD5rPWk1VjczReh8DKy4ukJZW5b8pxc3puLQzyzfq62t9+QiLaFk7N630GT/jfTaV56HxCQBZrDw6xpYodoXk20+M/aWtnG1LSmP22/vq7G9OrBBvhm/HDvd1CYDHraKqyJo3rZNWV26TozMyPeuton61zeeXWp60uUJp+zY/Jc0v1zZv3mBN61eqE2I5DGAWwS20e+zQYFfawEn+mRpcpPN5h0AxYMIz3o7BBzkJ/B3eRDPmGj/SjXmAOHPuR97w6uwykYtBaRP1nVLjA8BBQXPBqaEwZ1zww7PMgXsoNCQAEcw8X+cgCoCRCRLBlH3yvi/JpFs8oLyUbnjhi6UVVNl8nkwQthCJKZwh3YySew69+bzm0C1jM5mUGSZee7zRLeQ75N3NVMJRPhcJKE48sBl+zE/enZlK2VB/ENRfee2fWfOKnX4N/dN3/9juP/Il3wK1tnqDVc0XSygldHrm44tOYXdATn6eVdZV2q7mIru+sceuqW63bRWLZ2afiw7JxLtbZuxXTxXawa45m1abMQ7JrCEKC0BTLCBTb+Jgw4yrWlsgW+jmaWlFuX6LbFTgh4nKmjhO2gg7OwJYABoMj8MjtDPLVcrLS61E2tmKRgFPeZmPhfFhZ8z3coHmmnWrraFxpe8e4Aj0iYmUzaRm7ed6ft3yMSsTevM9q+2x/mppexU20NdnE8MDVpg/a7X15Va/osa3tM1OzdmKlRusYc0m8YnymyNtVJ3hzOyYrVzZYNu3bxYAFqs+U5YnUHdNTpUd2jjwLTzlHQyJ+n/8xovI24sp7ZPu3HExbkKk34NReZYuW6YlQLhLHeCeQ9SeT0QxaBQaB80N0ytu4cmkdPPGHjA0Zrp3YhB24VqNGRxxRjMwvP9chMbmkuhO8ckv87XApBd2kRb8/G+xX+Z1posU8w/hvVBO+YktHbwBDACOa8KyHMEH5hNa+vGZ8hJ2BqhsArOpuWlpS2GwXyl44TxNXVPjjDVODo3bkdNT9pnjTfZrB26yH3n8RvvI0Q32cE+Za1rPRbtrUvbLlw/YN17XZY/8yKD9wW1zdsumIgl8pZVXcloJ25yKHEwpN5qj7Gy1OUd3CygKSvy0kqLicj3jA87STIVmc9I6cdNzeZaayZU2FtzsrPxm821EWtWZli771r0P2te+dq899NA+O3LkhH8Y+55v3Wsf//jH7ZOf/Af70pe/ZPfff789ffiITbUfXgRu0NN98J8qRYA8I+2SDoqlInTCk+Ph5OGJiTFprspUMinFEIGf1KL3amurrbiEMWXFq2hCZxvqGn4MfBja0ZcC4agL7pM6eTZHnQX3/7f3J1C2pVWdLzqj7/sTceJ02XeQmSR9IY0oSgqacFFKuWpdgfJSFirvMuxKtO4oxnCMwrKeeOs9u3tfMeSWHdZ7BYqIlkmrFCCQJNmQSfaZpz8nTvR9u9//N+eae6/YZ8fJkwmJkceYO2astb5+fc1/zfm1hItXuiS8AD0fY3AmWVFi7m2gqEOUt/Ozg6IVXBIUBUHhRwXg1RDrwy6Y/7Jzjn4pN6MsKUR+Rd8dLt2sKNgAOGaMRzjQYak6zz0wZjfoi3vd/n127diIXT06YvvazAaapRo1b9iweFCsb771Nm0GS0nt0bVb3KX7TjE7qMFSmAQQbGsNWKji6wVoACElnV9hofOu7iOo+m5ipFoms9InF3ax/RAz2lHpOIs0ab5uJLW3M+bCKVYB3Kat0h9HAy5kCH54Z34XjbWyJulqSurZyXO2PrVgcys99rdnr7Sf/cK19h3/7Ur7pS/st7891mvLPuKyM13Rt27/6jlT9pc/cNru/rHT9luvXrQfuKbFN1+U/CVw4gUlyfBhUhmxeqFTklN3z4AkskFrbe+xFSHq9NyiQE1A0UQZksuAIetVOYSF/ek6dd8t6e2I7Rs+pBxsFzAycMTaXg556bc1fRAeevQRu/0Tn7C/+qu/to9+9GN24it/4+lMOrnYatOrqj8OSGpg5IXumyS2c/q+MAzBUxmpega4gPb6IxeQGDlMprdPtWKT6TtI3iFlB8DFh8v7TbOsGtSBC3GCpbM/B9j54AJhkt7qD8DM6SFYRVtILkyL6+6kS0JFfe0P/6wqKYd3RManikrex+6tFK48+JsGqLkZNYuCdPv4+tVU1KwMqKZRIbD/0qf+my3OxclJP/EdL7TnHan1U307iCTmq2xjVdDtz7wfV28/foW4xBecCh7u6F/0VQ9iOsOxHxs4YqMDh+Wa/Giys5I6fv0v/8DXmg72jlnnVpt1trVbp0CfcwRakXLViNmUUqXgEdEGopdI9qNSw9pbbWllxRaXl2WGaZN1dzTZdxxate8+NGvfdWjeBjtqDepCtLjeZLc/0WYfvn/D/uaxJltaV1o6+m10/7h1ScJDcqtIil9cWrFzE+d8VYMvTOfsCJn7TiQKx8uchOrCkif2x2MdMWeCri7PS8JjJ1/6Ydcl1U765p7UDdRcDnz5hRun7KeeW5N2P3mix/6XT+6zwcEBgVnFZiZnbX1xznq6O30HEiTfybMnraujwy67/Go7eNl11tk7KklPqdncsiuuHfWVFp1dALEkbElxa2tRhyPdcSJ/FWB0LUviEPeYpTuvC+JsG1yxT/cZVoRBVoR7nlGN28QM+FTjpISLjz/bt//oD75+T0V9JikOH6GgaL7BLvFQeWlszlBeCwIUcMKtrs5+H0AZX0tU3VB34VohE19deN8GIkq0CDSgVnGbuF3c0VwR2MQp6N3iHuF7r7hP7WRAPCipEh4Sj8jDaEeL7e9ssXE1pEM97Xakv8uuHOq16yWNPkdS6Uj3qm2tPyJ+WPyQ9XfE+ZeKyk9nX5WEulxZtxVJphtNAkjlHGlzNUkAgDsGbFh5xS7iKxNztnxaQDC7Yh2rklTFHWtmG0tmn3uk2977d+P2mv/fDfaOT19jf/rwfju9XOtTbUTs3PGma9bsv7xhy47/zKZ9+M1r9vZb1u3ggD5ubIopFbatvdO3BRo/cNCG943EzhlIsF6OLdYusCgzZ5PygWNZGNM22I2EbY2am9lks9O6uwesr3/Y+vuGBVhxkM6NI3Xq6VSxzEqMNNvqIMJmAEye5ezWXqWrT7kl+dw/ppI+GWURodaOjAz5AIhPeZEKS5768YICK2iDgSCm0gigqH9wftADBOMe8/woh0YToIZ/BmW4wu5GTOX3stU9HzsHcEZ91aaYopKjbxFuSJUBnG68a+nSADj6j4rC1p/IYUocheJUVxBRODLkr7jn0ctaDZR7AiPMVAtoGGWKuP5pEBNzk5Q7ti4QXZWCuiqJZF0fE854QFsMNVf5pqoVX/kCTKSKtgrU2tYr1iHpi/uW1Q1d1XiW16xlbdNa5ObuMwP2O/debf/zp15h7/zyq+yPj15vjy30RcQ7ULuK5dYrNu0/vmrKbn/tV+0DL73T3nrlMbu8d80n2g4NCZQkXbCTSqck/dhSqMNBA2ayLmDEMjcaL4Tq3t4e+6ExQt8q9RKA6+8bUVjDkvSGrKen354zWHeK1mSn6o+AiIEP5RlrcgmXjQhYPcEGl65tsKOe7uk7jAm5G9bV1S4A7bZ2fXxaWulqiToGAzhZxyGACIDydbwCJDY5ZZUI9tRVgJx3c7CTXz+gp431vCGZUcEBNvwDmLlagdBZRx2wHB8tpDjCkb4nb9GmaB/VNrSL6ZIAODI/AKjWAXvxtN0txeVF6GHUahj9OzGfrOZ+YXXNphaWbFoVd1aq0Nzyii2srBoHUq1X9NV2lqIhDnWw8PgspOh/hHgJNRK+7LrSD7eqxkmfHACn1uyMPMD7Rl7qT9JKi1TY5uLaLsm4nfKSmyY1UOWum7UqfzdWV21xZtbuPt5kv3fPIfsXn3qR/fAnX2K/dc8Ru/Ncj+flToR0+7yBafuZK75u//WF/90+eNNf27+6/D67sX8hJCpY8VTnB1JfYERi/fmBPHRLKB0sundwk1qeINfWxlrSHuvo7LGDfS020rF9qdJDcz1KgwBtTcCjsJh+AlgBHkvLiw4m3ZyWj6qstEDY+drWdiYmSzVelQrvQMKnJFXP2oeWOgiwpBTGjjGoiJPnznm3DWa4wT0h0AUBwLJd+toGQBZSZ7mtIN0RDuDHHD/WDrMJwQMPfMPuv/9+e+SRRxTHjNyHHwA3aHdX6kuiD+4H3/6LXlnyi4L84AWnPyqPm8eHRxQF418xERWAlhiHkVCvsK99LSN7qp7t7z/+hzY/s31hdT295rYftua2XjUWdkKNykt8qCVNap0tTUx5iHgJn45ojoVzVZt0kyqZ8wXl2VPs6Qg/kcK4YhZXL0ylOd6wakba06/SULWXGY2HK5lDU+Brfub4ox4ngwrXHrxZDYJtkFZsZmnZ/us/3O6STU/viAAg+nf0RpJFmqyjqd0GuvqsVwDQrPZTAeXptyEO4txgyyCeQp3l2yH5QayPAelS+bX1SB3s6PTdZbekzjHdo7Wzw8FobWPNltdXbWVh1oaaF+yVh2fttVct26svq7gEdzF0dq3bPjd9xP5+6ojdszDuc+ZYrubvocZOumi3sQ0T+a4cUp64OkZ9QRUnj8kz6d4v6j1jv/GcLxehmy1JAn3Rh59nC0sLsmfnkAEWWtjs1BlbmJ9TfO02NLrfhgf7bVMgxpST0YNXSrLqVVxST4d67cCRQdXlJoFom/K5W1Jjp+oFe7JRJ7wIvW54fSItpFOM9MZGpkhu3T0MnoR0Ki/0xDiAAXxMiNaD7NhvL3ZMRkKDmE7E/dzcjD388IN2zz132/FjxxwckXIPHDpsr3zlq+yaa65VPLHjCH1wP/7m79+bB/dMUBng2JGUzt98HRoVBRAAp1sxVyoDlAAH+SBCAXC0vFCv3KowK4BD/86dPuoTeqsk6WVled4W52d1v+Uz8g9ffo2kmE5bl0gTE4bpT6HDWA1HobdI+iFdUDSjIN8JREzT512gTC/vlQMhkaagcvGlXS3t2RDCn0yC3V2Ex7NPAMadePrcGUkZHJQSWxrRMHAbMgRgChAXndz+NVcDQQVtbrd9A/ts/8CoNa9JhZVEy7mhbEKpmFxS46tPnEhJARZb1tre6urt6oYanfKud2hQGuuqtSp7WJTPKe9sHzQv0FhcXfIDbNZ0v7CyYJstFRvsarLvuXLTbruhxV57ZF0AG/n6ZDS30WFfnDtsfzd10O6YO2AbzbE+FHWO/OB9XXJS2lzCEljTRRH5xny8LfvhsW/Yvzpyv4cHfXWiy378M88R0Mz5e3Z29QhsOlU3pmx2elJALtVXKu/B8f3WL+AaHB614bEjkgxZvdFq4/uHbfQA/XOsB5XKKRAE6GLN7oDyOtTZBDeIK2XCH+ZIa65OilxCK4A73LkHkMwrCe/jhz1LZQcYGbllvew999xln/3sZ+zhRx5y0IyNRfUxkIR33XOeaz/8w2+x5+iKVM/h2T/2Q3sA94xQAtyb3iaA0xclXqX8OkVLLyhflWv9fT6njwSWvDYiB47NZVuam7QpVWDC4CyC7p5BL/wNfXWZY8TaSk5fIigALgY3qKSEItnJv8oBACzdAeAiTZE+Ki5rM/Xp9crv/gSWXmWLMCBfnO5u6SRWKMRRNAaXPNxVhFnmdeZjEbVAlcm+hMFOrZzGtaZKzcS1NjUE/PvWSqSxGVUH4GMdZbcqUqcdGr9cfISpXd6nQ4NgjSknujdJwqDDHU2QTm7C4mPQr/Lj8ON1gUizRLH27i7fIZe5FKh2HLrMqV/zktzYdgkVjsm9jGYimVA+9KcNjx2w8cNX2svG5uyVwyft5QPHbajt4lZSrGy12B2zB+wLM4ftH3SdXdNbSaKk7FgDC/EBbNpSI6cE0CxbNu3fHv6Cfc/QMbeH/ss3+u3f33WlVQRMFUmcpK9teEiSW5udm5qwhTl9BJXXo4MDdvjQuI3tH7f+QVYr9Nq+4f22f3RE+coIvfJbkit5Pb+w6CozJ3Cxw3BXF+fKkgABFGkrPurExZVyTmmUZyodVYT89jlumFHhZMIl8q/dujok7SmeRx59yG6//W/tK1/+UpSvyl0e/P2pC3zwvv+Nb7Lb3vA/KT2Dtrq8Zv/zm27dG0V9RolCU5FSENtJjbpoBGXmy5b9D2Wz8nMjTn8wJFM1bKKJyhTifqsaZvTXwd4/iPqlr2CoBWwvzj0jY3RAR5+KtyOBGBUR8krrIBjv5W8oM8DH7THx9w4ffsv7qhITnt9jVFD5/jxy9/F+vjd/W6tPp/ApFcW8OSo2ndm0JN6Zg6ZROcl3AAspleVawgqJXnr3bkkFAz3WNTJg/eOSQA7ss75xeMx6949apyS11p5uiWeSDtSY6c9DVeWEJ/KP7cGjf4zO8TalibloPdbexSqFTgEMmxi0CvKV1t5+G5A01NLRa1+eP2z/x9GX2VvuebP9bw++zv7rmefaydVe3nJH6pS6+Yqh4/YLV37RPnTLn9t/fM7f222j37B9rTMqEqltKpdWf2m9r6SoKKwWu7pr+1zBuyb0UZOouiWgFhS4hLm+JrBTvrGzcZfyln7H+ZlZmzo3JU0gRkkBMnZCbulot07lR5OAhtUlfCT6+jmBrM/nxE2cO2tPPPG4nT1zxpfWqVC8W4M6lX1zXs66Zj31eou5X+M5B4KoQ9Qnym95Req/AIywH3n4EWOrJHfPa8s1EiznMyDVszEBaaOOopnsZrokAI765g3brxh40XkBersvyAu5KPh8TrOyXTJmSflc5kQN39qIxq/YUCMgYqZi4Y/Kl30iLGwHCNnFlekHuOcj2dyiSi61B5CIgL1aKZTsG2Rkjg7gUF8BPiQ03PjmiK4GI1UhY4Ra6V9wQsr0NiDMOTjGO/v1Y8cMVBJG/7p7e62HBe2Mquk9ADdyTjnBC+qKRKYnt5KqvrEkoJL6zjYgCBnilq426+wX0O0bsg6BXee+fuvZN2CtfV22VFm3Balii5J4pmZnXA1lnhxvTWf41NS0JBj6APV+TIwVsG0p39YFauzSsiHebBUQcu4F60+VDp8qhPqr3/3L++z/c/r59hPfeIO948Hvt//7zE320FKsyNiJ6D64pe+s/esjX7P/cstf2396zt/aj+y/yw63n1HeIhFu2P/4+AftC3/xf8psO8B94cFj9sh9n7OHH/wSSz8EcJKklpdtS2A10CJVs73belhOpqqyMrdsmysb1iqpm8GVDgF6h/IauZzvRofAkHdZkEpOnnDQ8si+Yd+rDqmYrZ2OH3vCJW059DqGmgnTFsrlDzkY8ZFS3fGBAq/P1FWk/lgKx5kcC4vLNiMAdg0BVthMm2KVCBKt7vSxZsMB9vFTAcvvbqZo6U+R/u7v/s7e8IY3+L5aNJA///M/L2yC3va2t7l5mV/2spcVtkGM2LzrXe+yffv2+b5Xb3zjG1Voxwvbp0bleM6jHfI/3SdwcS1zfXjlygKFnSqHfnRU+x5aAI9+LmWBPbR8D1thKUyeqQ+haBKmnBGM2/NFlZncI8f5VXaoHrwE8XslFMD51ZdaMVKXwOpRhVtFQhoyzXnN98l3y2cqgYOxP4VbOtoZ6XO1SA0PcHZSWLhs2kKlYbtx4kYNl1q7smiL4lWB7KYaJ71v67LbUOPbkpSxLrNVgTLPFYEm00sWpGouCARQUckbRvBY47mwtGLzui4rXxdX1hSm0tTWZT1M0Rgasa6+AWuTutba3alrl+yQYiTRNAs0mpC6UIMFSBWp3BuL9uBsk/3nxw/ZT9z5Qvvnd7zC/l+PX29fne7zEe4L0bU9M/YTB++z//Omz9h/vunj9i/HPm8vPbBlN401+4TgJKTre87WpJlOpYsJ0N2bTdaxvGWdSxUblDo/2Nxpwx19JlnUbF6S7+ySNes9NwVULQL8kX0jNrpfUm4fea6Pn+Jol1THZF+6DFgre9WVl9nBA/t9UIgT6Y+p3dBdQ5mnJAdxpS67FiGu1m8ATuyDKbinvuNOgMXUFYBsbYP+PMIQiAkIm2S+vsbh091q94f8yEc2L2i72BGefyR6WgDHaU233HKL/fZv/3Zhcj697nWvs1OnTlX54x//eGET9O53v9s+8pGP2Ic+9CFf18fpT7fddlshCT0doqaWuTHR2OFs4OdxUQm4h/IKpd8k7HjcUEUDbFxFFRB4vwWViAaQ3jMc98490lr0leEPlceZryTeJFL5l5Yi0nPEW8TnkhygKrVihf6oJYGsGgkg4UBRk+DK6a2n6juTbhpBFcRUMYo8oJPbQa6TFQACJqWFvsUKHVGs7VQD5hmAo19sYYktwte9ZlUUBuOzDK4A2jBb8pCidoXXNzgk1XLYhvSRGz90yIZHRwVgfdbRHYMN+w6M26DsuvsHbGBkn/UPq/GPj9vBw4fsyBVH7NCRg3ZADX1YkqEEHmXpohr9ghrinPJo3laXZ21NvLQwZVNnT9jE6eO6nrKHJ5bsP9/XYW/79AH7zo9dbv/2q6P2mdO9tuLzXHamy7qX7ccvO2qfe1uHfeInOO+hRo9MCayLsSdC6VBYPZVWG9jqsL5NScUL69a53mx9LV020CpJTuLt+vS8TR89bounTtva2bO2ePqUndF1Xm2Bjv8eAQj9mAzU9NJlIMBbnJ+3yXMTKtctAeE+2ze2T+Vkdlb+jh8/ZlPTU96GKDeXCqX2IoEH8FHmtbLl6sBHuapQKMMBlcng0D6VEaftt9iGvrJI0KpuEko2bXBkzA4dutw4uYxto+jO2M30TQ8ykFEA1Zve9KbCJCQ4zt+sl+yS6JAcVWVm8fJb3vIWNzt58qQdOXLEgfD7vu/73OzJKAcZfuhf/rx/fc4nlSYHhRRUbvAUbiOicvJOKQGV/UDYVa8yX12ZsbOnnnB1anBw2MYPHlblYhcIvuoKp/CK6hnTDfxBFaiQvAAASUK+cy3A5HtcME+JXin9AAQARJWM/c58G20FwhIetgLPDwKgGqxKK87+FiivZdr2XrwKgMsnWwDp8WKieCpIipKiVuYXfWsipiMwiZV001fG8i4kUDrjUb/7+4dsbPygz/ingaDmoN40C8xRuYBsXRzOmW7BM317pISPCxIx6eHsAz4c2QhzsIRvAaN95N+ygN2PG2QLJflr2lB+KL980qrcArwABQdOT56Lht8h1ZuBIPqSWC/b1KKmzKRa3mV5zl6xf9Fef/mqvfayDRtop7DOp2Xl54p4SGlK+lxru/1vnUP24K8+ZItrTfaia15qresCmlWggjNZ9a5KJ9s9MWjAt4+F9fTZsvPMdTc91254/g22MYJaulitn3z4mSYyLm2JicqMoi4uLdmMVHoOX+7rHfS+Sd5tXuCHZtSpDwTtorevz0GIzT8h8sVHYVVkaBsQVcDrAuWuK+32Ix/+iLS0z1lPN+e4dikf12xFUibl+N2v+W679dbvtauuukJl1Cz3k/Y/3fqaf3qDDJ/5zGd8m+jrrrvO3vGOd/gXJumOO+7wzL711lsLE3N196abbrLPf/7zhcn5ROEBamWGvOKrwpWZClJ+hsrXsjnkhUxpF/cXQ0hoSEx+CAiqhCpSVZUTVePweLhPECJ9pXS5HemluetdpGq1tG1IypG61aGwW9bEG6pgAgapFS5tieMdI71UcBotecQ17wGJ5Kjg0V+Y7HZ6B1REVG2FpgYFSDb5pNuKQHlFDQp3Lt0KCHxyly6MDFvRd9gs1XBrUxLcwqTNTJ22pflJAc6ymvaaVK9VvaRASbyl5y3vghfrmT67Tb1bhekd7Yyk6v1bla6K1MtmqZnizS1JqJt0us+roc2Ip21+9qziOGeLcxN29uTjks6O+Vyz+bkZmxXPCQDmZqckzUnKFTCvSc3dkuTrKzLAULBcavYm81BYfK/7hbU2++gjHfYzn+mzV/3tFfa/3HeZ/bu5EftPXQP23n3D9vbxMfseSY0vlfT4iCSkMt3Z22Vrox32b1/HJgDKliUBggCUYx6Zw8euuNQVP9GMbwLAz0/pWZhbVPrPSLqcsGkBBZ89NkWgY39pYdEn8E6eOWsri0uyMUnUvX6sIWtnz5w5aSePP2Ez0+e8fgwMSgKW+cLCrJ04cdSOizl3dkMSPooF5Rr1MqolDJYivTMtZ3hkxG54znN9T8Px8UN2+RVX27XX3mBHLrvCbr75FvvOV73arrziKq8LTCFZXdm+kmO30TMCcK9//evtj//4j+1Tn/qU/eZv/qZ9+ctftte85jXe4KDTp09Lymm3oaEhf05izy7sdqL3ve99/mVKRuILotiDo/B4LV3dLCjBJIHvqVCEGVx+hgAJKi4Nv13qAHG7NOJgRh9HqryARqEqeK7jnxvJHqrxIY2tyq9ArbVi3T3N+rJvWUfXirW2CyRaGV0UtigeBzfAsGBAM94Ziv63ZEAtAQ7Qo1IihSHVcM91TsAQW/iowqqM6NuRZzU+vafAc12q57oaKQvF6VtraZdM0tGidCn17HHehLQpcKyoIQvk5mcm7NyZozY/fdrWBUgbknKXl6cU35SkD10FUIvOehYvr07bMm5WpqXmstPtnNxOyt2U0nVWUsIpm50+ZVOTJ21y4ridEqCdPP6onTrxuE1K5ZycOO3zsTakFi6vbDgvrSDlsUElKwhWlcdKpvKJdarIjVtMqWEwZFQfm+t0ffG6dd0mqewnO2zkF7ut8q4N+9oPmH34lh77z+MD9t8EKl+RmniWD5jy5Crl5VckHf0fQwN2n8DugY4AvL+cLMpBQboWoMeKihrJlDWdWyzhUtmzOQFlJieyCWmZIw2R1s4J0I5JdV1YWFKdqKjc1vUOyzYxMeFq6ClpOyzN6pNER58cka2pjGalnp6bOCN/cy4hdipNayvLduL4UXv4oQelJR1Xvi7IuRBWfihn39beJXLqbLQP1u5eddU13h0wODQi0BtVW7vcrrvhBte8OECHPluIerWb6RlRUeuJPjgO1qW/7Yd+6IfsT/7kT+ztb397FfCSXvva19rVV19tv//7v1+YbCfcl/0gwQFyP/j2X/BpBBCSkVLl6eLNXCVsQPna4a6WBVFsQVRQqOw2iXuAbW7mtE2ceUJShqliHLb+viFvQAAcvvGJ91RV3QT1kpFBNTLsOIhkdXXR5hdnZLZqPX0tNjjcKgBhbSGNosPWlttsY61D79MpqQTAiu10XO2lBXkcRYz8FWmHSD/pTakt35n3435pDQlNAKXnFpl360vercZM3w0bYc5OS6qQ+aZ4Ve5QH3tc7QkApUwAT44kdABXwwXMu5noKjWHkT0W5tPIMwcBTlRVEouZfwz8Q8B7SJp2NTSkHhaqEzZp572YzkDGYYdEy2DMwMCIdXaNCEBjORTSNSpTS3uzTW5MWNNwxbr2t1n3gU5rHlaEg8qHfvKFNDw16qWw5W9B6YX+15lZ+5ga/WmB34n/65jNfH7OXnjoRdZGfsppc4UBGd6JowZbfcfgeGm9gxKwJVV1cGzYvuO7XmaXvfgGBzPazLw+PAvzi17G4wKb8fH9nr9zUkXp70Qa5AyLnt4+G5NwgPbAFA52T1kVcHFE49DwkAsTlBPhgrZDg8Per8rcUVYpwPTZUWeVrQLCM/a5z/2DJOF5AWiXypKDe7rsOQI4zpQYGWGep2q58nhubtre8L2v/qc9D+7AgQMOcA89FAfjUlhUwunp7TvjosYixe1E9KeQiWU+j2jsBdF4n4x3ctfIPIn7BAjUOlS8mOtGxaWRyr0qP/1Y8RPpX/bJ0f9B57uLcnLbpi9tWyd+K5I+FuzkqWP28KMP2qOPP2hTs2ckxW0J9CRpIMVJYgIwmEPX0d4Ri8fbO1VBWUCuqyotlZXKTmNwaY+0KL3c56x1OM9l8PDoLBZAsk0Q0hxqHmeDMkkXIOVLT78X/W7Mvers6vCthQYHBm2wf8h6unoVdqcDm95ejXlTUtWc1KvTzlOTp21mcsJ5Vjwtnjp3xqYlccCTZ09L6jslVe2kTZwSy2xC9WHy3KTNqZ7MK02LSg9bibOSJMqkRaDbpPzpsvbxTtu4QuD70or1vlEfiLcLSH5qyVr/H/M2/vOdtv/tXdb//fpovGDDmi8XDzw9cIOG9W4JbtBnFf+LHpuxH/iCQOnri17es6rfiwIg/al+gMfUCemIAgUfy5B3AN9PfJPKv9W0aQ89/rDd+dW7bHpqxkb3jdk1V19nByVN8d06e2bCnngcdXPW7a6+8ip9QLq9X3R2esZP/CLYKy673IGILdZPHDtmX/7iP9gD93/DwXBkeMQHHchb5tNxbVPcgwN93tcWp5vFodDRXdHk9Zr+VbpfhoYGfddj+utov3wUBwe3a2G7jb4tADc5OenD2QAd9KIX6eumRnX77bf7M8QX695777WXv/zlhclTIZoUFb5WY/kSheQChpxfk6OB1JnjqaC0h0OyCLdpBiFRUBHo9A9AiQpCw4PCXwF4hOP3YkCAIJjY26yvvD6R7FfGIMUI02YkDayurdiEGjcdx53dzfoadwgYAZs1zzsHJYEcX2HfsaKl3Zc0cc+hLeVDZfKe9CTg8QxHuqQyqeExHYFtvYFfwI0RuWWpQoAajZGZ7FsCFzZmXJU0sC7VqU0q1eDAgJ05+ZhNnztpM1OokwIzSbbw1NRJOyMJd+HcWevilPv2LuvUtQMgFqNehwxXMB8olYOEFgcHVDROJdtSHrWOtVnnjV028JoBG3hzn42+c9gO/u+jNvprA9b5r7as+4eltr2+Yj3/TO9ylSSMpymhlWlrTul4rMkWvrBip//raTv6/z5qV31+orANekig8Zu/c87+nx+Ys8oSedxmi+vLtrCxarP0wQFmApJNSZOrbRVbVJnPSp1fVvmvbK1bkz5wB6+8zA5ddYW1KP8fe+KY3X33vQK1s55Pw/qIHNx/QNpBv505dVp299jR4yesSfWtxw/f6dVHR9Lb2XP22KOPC/RWBHCjdtWVV/syr/m5Bfva175md991t7SAdRsb3ad60iyAO+1rTif1senQR3FsbJ+fOMZaVuop5cGVjzIDHHRNzEpiY3UJdYDyp07vZnpaKiojOw8/HGdBvuAFL7D3v//99t3f/d02PDzs/N73vtfe/OY3O6A9/vjj9iu/8it29OhR35WAWdnQO9/5TvvYxz5mH/zgB93PL/zCLzgQMgBBI7wYQkX1UdS3/xtjW5vziVcrarguKq5qhee1eXOXrzwH4prgVaXCOtyHSgdzT5/VxMQTNjd7VtLMsB0YP6QvXY/sFIZABH+ubukmVFRVBsKT5BcjgUwtiUoE8bxVWZZUMmcra1M2M3vKBga79LU+ZOsrrfboQ1O2vorE1q+KVfTxEQ9hin0unb6uvqpAcSBhevy6kv44m8Gj8nhd/dPXekXqMZ3Q7oevt0AMJs86fXY9KvKqgx2jlKSWmf0cAkNjYG+0u+76hwh4B0ISOHTZdYqX90T6JV1w9AeRnwxcNA2KEQqGBLwjAqrRFmsbFWgM8mGoK5tvEVXmm2zjnKTxs1KBJ5usS3ncPNtiyyfViJckMUt6mZ45ISk0zqt46wva7L6fvsaWpaonHf/Aces5cZm1SS1fmRXQLSxZm8qoXRL2SN+Qz31eWVuyNT5qAiNqR7v+b6zog9XZYbe87IV29U3X2OGrr3QV9qEHHtRH45TPpduUejk0PGg33PAcuW2305K8Tk+c9dHW1eUVGxkalrR3tS97YwrXvNonqit9rfTvMdjHh4u2ODM7Lc2nz+efdkoCZCkYqivL5sb2H/SP7MTEjH36M5/TddpXtlA9b3zuDXbddVfZxupS7Drc3ePtlAnJt776n11aa1EZIQXQ6umtb32r/d7v/Z73x915550+5AzI4fbXfu3XSoMCKmxl/i/+4i96fxwd3d/zPd9jv/u7v7vNzZNRFeDe9ksBcIBFYecv5a2+2qLj4v8LewgAKG79ppodpcYEYCkcGiHZFaOgUkOkxp2ROrksVYzzMakgbKtDF43HVwRBkMIOD8fvkUqYJkJnr7uRIQ2cob0mfdFbpB7our6+JKmqxXpVEZcW1xSXvp6r9KXhXACjBubSnMDDJTSpOxE+4Ea4cqdwmRQsGwczOLJCDUcBxcHSksoANTUK39lXQOibHiq82EwUEI2F3DQczhlgMTxhMsOexvPoI9/w+HYiRgWvuPYqgZjykXYwqLISaDUDZMMKS6DWPCCzZwjEtuaVMTNSaacqtiYg2zyntC/2WPtiuy3PLbv6ixrHpHOOB4w+qxUvFiY8Ly5KZZ9l/ln0+43+5Jh1Pz9GTKGlr63Y+l90+2j0qtTGZkk3qJADbLTZ1u1bQLHqYI1+OOUXZbalOFaY4KsPxY3Pv9Euu+Zyu/I519h111zrH5qJkwKy4yft6ONPuGp+7XXX2eVXXWl9g32qPRU7JbX+Eamf9JMyYEfXz7BURvKaMj9+4rgAbU71ckx2BzxvGSxaUJxTEib4yAwMDnq3xSp9qeubAq9eW1xatXvu/YbqN5uchrT/glueJ2HmZpX9surgkk+34RwPRl/fcOvu7YP7pgcZ/jGpHuCQSsoU0CW+2DYjpy5JeI7gqWABE0HTB+UjpgI35l6dO8cUhRMChw0bUwXaN7pf9YHJkXw38VMD3FC99CcOqS4A0+ea+ahWgJ0vqodlRvrZt19VzAcWGCnzFQOqoEiPdD4TKPHQf0JF9ZFcNjDSZzeAKYCNiBk1qw2cIEUCcHonSZP0a9GvgrQQ7qU6V4EtpojQT+d7iqnhN68p3bxnE/1yTQLf2rF5SGLt+6Qmj4n3t1vHeId1irsPd5v1P5MgJqZbd6bZ1ickYZ9UY5xQ2vXc3dar/GBUlfmDMdDCZFXeE0loZUWgpHRRn2jQABzHAiKloJ5BFalmPsLdK3Xt+c228qrY5RhiJszKb7b7agPyDymX7oZeAQhTKZC01ldlrnJhCRyj4QuLsXlAu+6vuPyIXXXNVdYx1CVN4ICNDsmv0tfe3GanT562Bx98yDhpv39owJqk7nb1SpKX5Dcj1X9uesbPiaWsFxQ//bKADYMxy2LSwTsggXPkIut8qUvnJia8/vmAQ0enb1lF98mpM5N29733yS8qaIt16qP9/OffYi99yQuVwZL4VxZlzmwhRoE37Ydu+749gHsmKAHuzYWKWn6VBLs8lfuiiTA8GPwXDDi5JBgA50Er3AmpCROnT/l8MaQ3htMZFVt3EU5OVAFw6veq8sAdspuzvp5ULlcjUdV0r9qTjkUCONIiOz+cRGHihrhpQKxioP+Phsl0D84OoDEi0THgwBXAo7ESjjOSo8KDeCYcH5kUmG5sKjxJHSwAB+QAL6a4MFiwprAhAA5/bIO0tcy8NzFqdvOWnT1z0t10HOiwa37tGp/Q+kzQ1oIAd1JgfU73U5JmJ5UfksYqU4KUdSbO6qqy8gnJyh9Ai8Oa6ZuM5XTkYUgl5M+CVLT4WGx6Rztrb8kXJCDelTWXNFw+Fqwk8H7KHuWrpM+jt8agWdLSB1ts/hsxiovUPX7wgO8+sry4LAlOKr++Yb29fb55AKOgi8vz+ojQ/2k2vn9Ums53WftgpyTFeblft46WdhuTZkA/3OnTZ1ySPHzksC2sLNm5yQn5l3qpNtCkd7rqyqt8CoePvM4tOOAgvVGXmLd29TVXe5uYX5y3mbkpm56a8jxidHRA0l9rO9t7qU6Ijx4/Zffd94DyQFJuS5vn33XXXW03POd6qaTM82Q7duoaE7Ar9oPfv3t3E7k0JLgdAA4wAEyeEimIWtMkAJ5Q/QpgEhgQLisJzpw5becEcB2qsPsPcDL6iIMa53iSlgQ4TwvfdJLnqi7zxrgG0Kh+FlcAlDjwQ/zuwBmA80EJLMTeX6Y00TABu2VJdb6NEGqVzJG+aMD0rcQgQ2zJTVgulckfcfl22Wp5uWEAUh4AB5OEmCu16pKbTzJWGKRlc5lpJQIB3zpp004cO0qCram9yW78v270+6dLlWW92zSqpNT0ScUxJbPpTVs/K9CaJ3/oveqUSyTMKI9YZgZDMboNuJFf5AH5C3BBOdCScwR5bz4IjBDiniyHMOvp6XPQAyBbOchGYfvKCUV16tWP2NpgbUum1c9JePzYio88j+4blUQ/ajMslp9flDq6af09/TbQPyCAEQgtzauerNtAnyQvfSj6BDQ//uM/Ztffcr3UVoGfQIpBg4kzE/qALRu7ewwODdoLXvRCaQtjPnfxhLSHRx580I4/cdSlO2YqMGGeaSCcV/rgQw/5rrwMftH3fdlll9mhwwe9vB9//DFXYRkdBeBYNsecN9ai3v/1B+zuu+7Vh2zdPwRDwwNSj6/1ZWEbDIqoGnF4NvWLPP6h1+1eCa7lvYwIPEuJ+Ve//uu/bs95wSu9EMvkQOA3RW29SCp8ibgTezhUeock3Ud4dOQzW56+m04VNGd2Mk2iNvoEqOE9QuQpzBQKoFA8c6Wx0eiYYkGjxZhwYFTdkCBxH2G7mbsLSYTG1yFJA2mDMwja9OUHuNYkBaxK2lqT+umN24OpuJrk0xMUnO++UbwT6SEdfi8O0AVYSUPYEyew3SyQBEho8Mzn4oBkJ73a0KuHrKXrwgNFW0sCyTMCl6MC2oeVtvslFd65aJtfXLDNr0oivXvdFu9Rw35EUuoJSZCLUoWVHlR09r1rbmIHZ/N3kwzn0ia6saeH5Cp9pJd34OrgLc7nAPdQVcl/Jtnmrin0w7FaoL9/0O/pY2TqDdNw6N9qUlz01613CvhH44QwqKm9YnNfELBKumFKhgJ3aWuDsydUtv0CIUG37x24IWDuFPD2yIyuhpXlZTtwYNwuO3LIt1UaGx3zKSL0rTEVhO4QlmfNM4lXZTc0Miw3o9bX2e171wE27ALy0MMP+yCDr4lWOlE/jxw+LImr1R564AF78IEHVS/WqnWV8yroRz13btI/jpT7gsI5+vAjtiRJcm1xwQ81GlV8g6yS6GyTai3QlvS4yOajkor/8sMftve85z2eht1GlwTA3fD8V6gwmWBagIiYipykx4um3DtrG3uxR8MJQEBNXPMKR8WMBjGgyt/ukbETiPsDQUTc45kfvj28JuazgzAAVdxT4XDLVxGgwZtzYedTKhQA/SKYulSpZxo8bhLs2OUhJLcOVXQkLqmVUpuQWEJqYY5T+CUuwJLweDVPKokkXOBCjjwt/i4BDIx8KlTZCjDEqKhzqEMF9b+g3/vgNhbUcI9JGpHatvC1ees6rkC/JsD97LLNfWLBFr8oyfNepee4wEgSW4twjE03fUNNJkGjUuuWib6KVOmINALe5AfpSYCFAH7yj/RG3hQSqt4BaSylNQggC/Wd5/CfgJf36T4lPcqa6TOsmqBjf21RoPzcUN+h5t4mW/jimgTaFusb6PcBh8XFJZJuXQIURh4BHyQ4OrH6B5VPrDaQxDc7zQASI9lr7mZZ/uhOYAoO70p5XnPdNV5U9z/wDTsjyYylWv2SMAGs0bExe+ELX+iDBmfOnrHHH3tcGsYZV1mvuuJKe9UrX+nSHYLAhCTDxx99XFLggp86drnsx6Qis3JlWkB339132V3/8GWbOnXC5qcm7NB+ge3B/QK2BZuenfQ+WSRGujOmJs/Zp2+/fQ/gngmqSnACuJTgsoIG0VgwKx6fjKKen0+YexjhAJBjGsXMzLTE+BXrl/jfJ9WjCnClSGvpAYS4h5GB4j5/PrUkw1flD+DxJ4UhcHPwK4DIw6zZA1ROurpbVEnvL5Jk1xHz47wxq8EwqMDSnLU11FHASuEobv/p1uMpfilZ+lIw3QenOyQhxSczOq6XFhc9zpa2Flt+aMmmPj5p0x+fsvnPz9niXYu2/sS69bb0WvNSmxCrXYArFVG8tcmuvYxMAziAOOEKwCSNbcp8c0PxVVS2eknyhM55AAPgC1wWxKEq6918g1FPsyx4LflxCVREXvBc/vAhOQVYbgc36hV9c/MCAKZE+ZpLgQibUM7NTvtAwuyM1MxTC9b5cuUJZzcWtHZW6vFpltqxMH7TT7JvUpydip9VATOSdOl/I+2cuZBxo1Jzlur1AjEGrU6cOGlnJ875R5SuB6rHgYPjdu2119p+AY6rqCdO2JQAibWq9Ptddvlldo3sr7/hBh9RZTCKDSx5T4CSejq+/4BdeeXVLonyXoQzMzfro+VDAscumZ8Q+B2T6tuMpKcEXqlwX/mKlwfAKr8ff+Jxm5meUphSuSUhfuwvProHcM8ElQGOPqYyuHHPo5vUjJ+cSg0A//7oRnGTUXDyEQDH6CMTMPt6+6sAV3UkKt/xKwIrKGxLUcpruHLSfQAODZ/WHPZxTbCTvZtxH8/RVxeAwOx536FX0hyqFhJenJDVJKmE/ruYOsKuIYSCdAhIOMgCGAJGBy59QJjOAOBh30q8uqKOAZ4Do4M2vH/Q9o0P2WB/r43sG7CR8QHbd6Bf5n3WNbJP0iBnhgrgWNwuKQdw44Bmb71IaK0VhQWwSppTOiQgKH95nXhHgIvpFaTJVUzm+ym0AC7SLrd6fd6b/EKCQwryvsME6iL/8MN9AFuzAyB1CHNGT5elrgFq2CMBUw5rK4uS4qQ+Sy1jNJaTwtoPKz/2R5gQQLvy9YqDFx+SjVX2qGtxCQ4V+Nyk1NNNlru1+oRulywVB9IQI53XXnOV7ZN6yhw11PFzU9MOdAsCIwYn+gRUjIruG90nqa5bQDtjE7KfFUgxhYcF86OyY1kXbtg4AQlxUm6OHjvq0iHz5YifD+GBgwc8f6amODdCrPSdeOQxmzh+0tr03j2qN6jOnCvLaEiXVHdlmK+FJfPpo739v//3XQtw0WouWapVvIuikvMEjfMpzAAFAIKGT/8GlSVd7+QTcjtUKr9BzUPCCIRLsIqVEKitcJpFo61JVaFiwQ4+MgvQI2i5Q+0VA2Zur8ZBvwujeIP6UtO34ye9q0EodG+MKytrPieR6QU+ikhICpcVE0wtYBse+vk48JgJzcmt7ezuyn5xbDPOhwaJK9IfHf+6VroFNl1qtB0OdE3NHVKx6NNq9Y5uQKuyyWix4qwAgs0+iRQwBagAJ3YC4Z18j7MOSX8VAZBUOqQKwG5tfdmZEWEGgchbrjk1BDAB5Mkz8pM8823jKUMBP2ZsScXqCXKR1QHtbZ0Ckpi8TX8TAMiAVkdntyTXDtt4eHsT6rpW70F6lH+AIlMp8OPTgWTPR4G0YE/fGnlPlwJ9qJMCmK/f/4A9dvSETc7OW2dPv+3bf9A6pIZyDOUTx0/ZV+68yx58+FG905bUxsN21dXX2IHDh6xX0hTz4u746lfs05/+lH3pS/9gk1IfmTY0LoC68uqrrKu7006cOm5fu/ur9sBD3/BdgcnbG298rr34xS+ya665xvsK2U6draRUotarMjokqW9IGgonaJ06ecoW5uY9zYfGD9j+0dF48V1KlwTAOTyocp7PmGPZmBI4qtzA8XaT2hPSI19dpJtsHFjHteASVZ+KGySswosoAA4KkCI9AFuZZabG4VITAJdcZxYh0qgAGZjwAuwwJxwkFRo6/SioRQAee4fRZ4ckxKTPFVQy9ukXAxDgMA2erzQg164G3gbQtSOFdCkfGFEjHwAnpDJUYsUpZvdfj1+SGLsAVwR+zYBKp6Sm9jbbFAjxjuyLtym1dXOdrYIkrSlf2RGDvELCC3UTYCIdbb6biW9GUPQFblUA5hWBHPMFOe8gpTfCjkEFPkyoc/SreXAKOqbVMI1kQ5IJk5yJD39SKwVucaCR0s2HgyVxADtnQ6jxV44ymluj5k5JdZcJDBVObOfe7BLaiuJjs4LuPqmlMkPyQeVlUjAH+qBC9vYN2KL8nZuW+nn6nD3yxHE7Oz1rLR1dNjp+yEYFdiurG/bQw4/ZV792j4DuMVsR6A4ODwvArrabbr7Zrrv+Of4+rPv+whe+YPfdd59NSIXt6euxm2+5xf7Zy18mVZbJ9ExzOmP33/d1e/SRR7yP9tDBQ3b99dfbgf3j1kHmKn/IL+o6Ku34gQO+TRMfhjXVC9YJsw52N9OlMcjwgle4BNCYkEOeOjlQ4ZOr409NPaXkpxHn52asWw1+WADBDrWque40/PqN3wersvsPcw+wRvo6h5e4xj1uxEVQYeEudFvjsArpjmvGz889hIlYQFc84o30pBSIZNOmLz3SXFWakpvq1BEx01JClSy+isQnZqE4J6ajvhIe9j7ogVu/YqYGDchKdYwBkQA4pDLIV1JIbSNNxEHfGxIP2YSKiapGngO+ec6F70En74AXXQNIdai3kYBQP3GX/YeefJlvFAAH4CEtAvao76ur694nBQF2vCUqIKPSMcmaGW3087VZe3e/b1LZq4/D6PC4bR1ZsM1OBm6CNua2bO2hLeuUZMs5B2ssywNs9TFkLtu6Ph5+VCP5KnuAkDWlqKhIbRwwzZm6gNmy3K4q/hUxEu8BgdD+sf0uoZ88edpOnjohQF/1j9TY2LgdFAgdOnhQauqYf5AYHWUzWab5MPCxX+A1yjItyll5g8p/8tRJ+8YDD/i0q+X5BXv4/m/YuRMnrUl5xbKx/tFhm1dbOzM7LUlS+av0ssnCiICVgYf/votV1EtiHtyb3v5Lapjbv6RBvNpTALgiJ8K9GiKAUTTqmipJf8+mPfb4I3ZKFWN0aNAuP3zEuqRGsOsCsVWKhguSVONWOPxoJEgbhE/Oe+5nvB4fdzVDXFcd1EILknGWXvhVyGo4vkMuKpFLPeEA+wAqVKdo/BGu/Em9U0tz0MowGERhCob3N62teB8dKFEFDgEL/mm0BOW7ESscgAoQIR4613lj/lgVuSnJbVOSGZIe0zzUwl3F3NpcttXlBZnLofyxFIwNPgkXgOIdNzlsx/vC2nwgg2MLBSUKFVWySw2VTStXHYgYQAG8UJN9Fw9UdfnLPjZPn66dHeyiwRy3Fv9YIhmiuseIKxsoyL2KncEG1NOOLlRjqZMCI8487ezukNonELniQZs48pjSE7R2csvO/uaqDQ8PeV1YWllSFqDatjooILXNM9FWV0AIc1Y3dPcqPcP77eChQw6yXnTyT3rpX6QPr7+3x6647IhAbtRmpgGvxwWAi74N08jgkB0qAI64FxcW7Z6777ZjJ44rD/hgbfmKh8uPXOZS48L8vPk2S5KGH33sUYV1wp544CH72ue/YOsz89avcrrqqqvt+978Q9azf8QePHXMTitO+vTGR/fb826+SWnusTe84ba9ib7PBFUBjnNR9RUOAgQKYHFJiUamJzcokazqX51KgHnc80CD5ynDETdtqTEu2mOPPew7pXI6+aFDl/mWPQ6GSCG0zO1BR/SFWZycBQUo1bsNUEvivpR4ua/aKj6eHDqVXsJCMglgo5ELdNxh+Ectwg3u6Yjn3uNHvHEAF8mpu/FrjrhK7WNlgKQA+uYIm/5DgA4JyvsfGRigFcpvgCwgV6QFKUbgF9tFSXKjL83lQNRK5rDRJ8WEWQGkpLnVlWUfSWQVBetteTfAzcFK/gA1Xz6mNCBtdnb2eH9dABzS1obSuhXs/WlSd6Va0s/FYAIqHCp6l6SlHHhxdVj2SFK+/b0kTQjpLdRZhcOSAyRPZ/rv6AfcsLmuU/bE87/k7pOe+N+XrLfSY11SSdnRFzWVVTXMhetQ+OsCt8XZeV/Gxdbj3kcqabFneJ/d9LznWU9vvz4wygPqkkrRs1ZhbKgsmJM36McJsuSrYj0CWqbSzM5MeV6PC/zGx8Zc7WVHGPbIY6AAqfjYE8c8XsB1dXnJrrjyCnvRS16suDttWv7//vZP2Ef/9P9ra5Mz1q68u+LKq+0H3/pWu+k7XmwL+hg9euKo3fu1u22edeaSBpmP9+6fe/feRN9ngmqjqDHR1xs6TUANIlRCmArOc9XW/59P4aZGqlh6DoAQ8SkHTNTokTamz51VhdsQwA75SU9U+Jj/hr+Q5FJqw19GySWmgVBxa+Te0o2uNVZ6/V0yLLEninv+65ceRQFOmEUauKYqiKoGy7Bg3CQRD5KOAKX4Ebo3ZPqdBAoABB8SGjj+6ZOi4R+3y1YAAFwlSURBVLJhoi4eF2F6ehUn7G4c6EKd9BFaATwNFsUVzOCe7Xs4ocmDlvrZUmlT7GwpLtBWoyU+B1LSJ4D0/rpNvRcDEqjBCg1AX10BkAFMAS0DBkieBeAD4kySBQzZ22xobJ8NDEnV7O+1XqlcHd19UrmZyKuPJaO7SkwrgIjURheEQKhJEisTfb2O6QfoNq922tSBxyQwFh8J0ca5Jls+xo7M9CW2KP4A/JCuKwqvXcDEDr6tnkcczMMSPwZymHyLZAmQ897ktA9Mqe6Rfj4uiwKnuYU5n86yKkBnhxJUWwZ55heX7OzklI/AMueuSX7Gxvf70jHU24H+IeXRmp2QBnJu8pywvCK1u9O6e7oEXHP2yNcfsIVzs9bMQJHev0vSm3V1WKWDMzf6rYO+XuUrEuWUgO5z/+Nze6OozzTRqKPPRRXCGzWNIRppUO1+O5DVuaFCuT0SQ7gN2zBDQvIJsz5/IQDA3bufpBpsNKLyZOKgmvsIqmbvz4VdUs3f9nson7nmKGtIWjGdI5nn5CroOeooTp49L6J60KAZDKB/jobHgASnL/kp/gKF1tYOByKO+1tm5YSkHh+JpPGrwbUKMKpxCvRy63Y/jEbPXm6KC/ALSapb0lWX1J8uH/kDXDDHH+59w02lp7tLUo/Ag6VvSCMry6jUSIGAYuRp1gN5c2lrdXXJFhbZ0JNDaLZcokMV9UEIlekGYA0YoXKLUb1Zb6tSV0bkxyPy2KVfwEe/3pnto4m9N7YpfAGuPsLYs/cd/ZKkj63Il5cY/W3xFTD7WNY1MuLLuOj3I3y2pYL4rvrHgpFpuafJMpDDrjWSmSXlVWxmdtFOnTpnZyembWmJ09UElsqDCUlhx0+wueVJe/DBR6V1HHf3hw4fsRufd7PdcONzJYGN+DrXO77yFbvjS3fYscef8LMt1jc5+LnJ+/aY7H23VN1PfvJTdudX7/Q5gLz1/v0HfQun3UyXDMBR2YJrzxeirKRJ+bzdtCDZRcXmS8sk33WXDJh0SgOphVWu+DtT2maa8x6KeErsYcZ9I/t6KtuVQSy52uABFTFmDnoMFOieiqt2CDJU3UV4uhYAiDv6PLulzrGj66BPOWGpWpesJa3QkKUerkltcglKYcYZn4BpcfXwCvZX9H/6hcTICGt7l8COqSlMo1DYjGaSVgYU+vt7bFjS1+Bgj8COrgRUSQZElKfZ78hP6QXcCF6KroBs3VbXlmx+fton8QJoWQ7+fgIxpK2NCqOeUk0FbAAjIOclRzK9rIJRwaHe6e07UXdcIylNUg+H3awK+Nv1Tt1dfdbS1C5vzd5XuCSgQ50GsHulco5KohxSfjJg5Uvt9D7+TgKr6vQVAR0judGPKXZps11ScrMtLa/b1Ky0i5lFgThz9TjBq0VS3JLd8/UHJWl9yb74pa/Y/Q8+5NNQWpSfDFpcL5A6dOCwzU7N2IPfeMB3B2YeIhtcHr7iMnvJd7zUvuOVL/OTtNiFhAnGrJR4/OhRhV+88C6lSwbgoKyoZb4Q0XDrKYzqzQMw3L3CpFHwxWeFAOqOg4C7CdcXihcbH8ETl91Vw6+nwhxOUCpzmdJdclL6rbfHzEFPnFcAxKXSAszk0NmBz98xQCmTjtrI/Lp+SR+oVqyt9GViqCtyS8f2ulR5JBI0TfAAv9H5X0iKsJ4x835MRlwxLeLmOELUYiQ+5nX19BJfj/X3dXv/E6oSqfOBDV3JFveqa0z6JTTyHDWRvsnoV6Svj37FBCnKw3d4EaDFhgj0Ycquif4zJRoJTiZyqT/8RCaQzr7Z7RJck16/9xr68mI3ERbQt7cCzJLSmEMnAGH6DRtUzkpimhfYzrMN1sqK1w1eQm8UP4WPkZLt6jcfj036CCXRVgR4SGyc/G/NkuoEehISbWV105bXBMuyq8h8faPJzk3P2zceetS+IEntzrvvtdMTUyYn1j8wZNdee73dfOPNdkBSWZskcs7SaFb9pheAfsRrr7/Wdzv5vltfazffdJOX9ez8vN1z733FG+9OuiQA7nxAyed68/MpG3ve6783jjLxHO6IS5XG+5zoDxFACBDcX52fJwPXpIy/EQDBQeeHlXZ5Jb6Ms+zXGy2tQ5SgWAu35Fbs9v5OAjxXKQE7vV8hAiXIgRyAB40vyecDspVQV6fP0GeOHR32HWxVxEdA4eDJYQEgUwONQ3eIn3SFGhYcI4jksQ8uIAQ68HkylC6mhigNSpZLW1KnfH2tyqY6v9CZf4VXmVfziGSLN9ZX9cyoMqBIyogo+shqb6a7wn+AG+EWATjHQErLWod1LQxgXaW2a/URFFhsScxhC6P5uXnvg+NAH3ZKRnIjDPoH2fZqbnbWJqfOeYc97mLqjVj5Ex+gKA/m5FGkXF0iLsrIgRAVlsnWkvKqACizij4Obe1dtqXneamxzLM7dvKsPfbECbv/gUfs2HHWtnbb4MCItJJuyatNtiREPXluwj7/pX+wL335yzZx5qyPwl5z1dW+7vWVr3yVXXf9dfGyu5QuCYCDvDGo1LMSB1MJ4r4sNSWXyRt63Pn/MtXc0jey5f0qhEXfDRWvDBhPhRJc4HK66tNWpkZuyuHUcz1h5o2lBHRcq8/84QaQQ21ti+kVgF0AHtJdiEihXkY8JAdGAqS/jH4z1mOycsJPxmdaBaOYkva8I58wInaBGRKhwqHBMkcOCa6i+Eyqsxqr99mpASOpoeoCNpzJSj8oc8zW9MFZ031Md8ky1m0BSNxR1f09kxUfxyGurbCona2h6NJnThr5Q6rkByATZzh+p3hD4sNOfy4dBkj1To+5u6RWARzHANL/tqE0zs/P2owAjMOqW6VWd0oFZ0mXzz/0vkflTQtHHy5IPV1R4IrH41faFA/vTt5yH6PZSJvSKBQ3sqZezO2UAzJjWk6RcuWdLPgyOPAxiALwcYDh5Oyi3ffgo/alr3zN7rrnPjt64rSUcr29ALhNavOBK660vv4he/jhx+z2v/2kffYzf28PScVlk9CRfSP2YjbB3MV0yQAchV0DOVU5r+RR2b0i1HGCBLyd4jkart86FVXF42AECsrtvKnoEH7ymvcNqZq+87mePJQLhFUfZz27VFYFk6A051p+DrOalFc1l8TkkkTBvipB7CBF49E1dilWeA5W5IncqnG3tnVKhWVpV7fPHUP14SR2gM5HvglL/pi3tlks1eLaKrWqo00SYFu38pm+N4GmVF/mXaH+ovKuqByYAMvJWoCkDy4I45jSEeXsryfiPZHsincSI3ltrC3Z9NSELc7NWEUASQ+kEqC4cRO+wLg48Z8bxKYAN35Ij0hauIO6p7arqa1jkgz76aeVxCbwAjQXlxckpZ21qckJSW1sV94kNZttk9gqfcD6ersiDqUDMHW40rNPvdHV1WxdfZqPIk6wBWD9LA2mpAiw/Qxb8kB2UMXdkwJGtZXHLKGjH0/5urnVYrMLK/bY0ZN29PRZM9IrtbV9YND2X3aFPe/5L7QXvfif2eFDl9mZ0xP2tbvulmp6r91171126szO5xjvBrpkAA6pBCqDWH7lGgFJutlmzs/vVbGLxgBhRj3hypcYfzR8JJtwk1V8u79vhjzOpNJ9o7AzzrSrd5PP28JsQLhjJDMBzkleAD3yNyS/uDKxlsEA+sVY0kTHd0gHSGeS9AC4QuWkY5w1nZ0OcuxZpwbd1yNmoi3HDXKQMJNqUb1UJQVWLTS+gtvkF5Dg0GbiQgUDROmHov/JGyoTh9VQUXt9DpvslSN6gQhPiSiVkhcmXytbmJmxybNnfV7XxpokcwEJk5p98wG5IR+q+YEfAKW4AioOQkJBtnLqXhiylnWlo0Sdz42BGw7nYfdcjltUAo0DmNkXblIAy9klTKgmDgCNuYBUZ2aEuASnOALYol8Qs+hbJAalRX7gUM+zLmCjNCqdDnRK86bucQ3IMSmd08qQ5Cp8aJSvmyqzDdl19PcL4Aase2jYFvQRWZP/sfFxX+p18/NutrH94z4x+dTpM/apT3+aROxa8iy6FMglDa+I1L8ArwSwMvEMp326qXK4qj5DXrn1x9KlXLjtqlg7alsA67eKyvFGeranH6pV4sZcpnyuN68nrH2KDXlYggLueM5+MldVBezRHwS4AfKYx311wT0MwKFuwrpn4b+HIVWLJUAMRrgK2ztgPT2DehbYtTNayunzrWqQHFeIhIi0oYYoMNvYYIRWMMD6VmNZGeDHmthOVwfV7JVxhZTp8Upq8TyNtwkVtQBsPQNkc9OzdvrESZuaOGebrNxY5WCdVd9mnOeKPmq+T11RNshBkV9R5yCABJDpmdnnz0mdz3EZzAXATkmubKsFqCsQD8vPNZ2djW4PAHdhwVaW2LGEw6txxseUkKinMZfPgYylag5ovFikJ/j8OkA89GUyMgvQuUMS4G8ikBOvyn5V8XcrfQPD+6xncNAGRkbs7NSkfemOOySt3Wsn9SFg4vHA8JAdufIKu/HG59nhI1d4HLuVLgmAowChqHBU7CjgJ2vUSdEAgvWPP68ITDfIsGnkgCFqQBXg1BBjhO4ZJJLEpUjH06HMh/J1G9OQqAlFY6FaAEotAJSAojza6QAlsAHMACzv5GZAQqDlI7CApNzTaAjUR2hljhrpsxwUH4ME2QdH+EiC3T391t837NtOsW8a87yYvOqShsJyFRQJj765FlS+fuvolLra2mVdHWzwyZIrAI5fkJdjClzocw5p8i/wRe3dWpP0pUSxcHxmatomJJGcO3PWlzBxfiiDEKxaWZa0tSLVknlySG0huSngQhXmw5cfy766frjK4RWBRp8tE54Ahm2QOgVwbE5AfvLBYMIvu/KyRA0JkvAAOuof3SAuVRdl5WEiiTnX6mdQuAnOMsurSHngeYIAAHvauTfvs1sVkLcyAXmg36cA0Y1AF8Ajjx+3L3/tHh99veOue21iZs62VPbDY2P23BtvirB3KUUte5ZTFYS88URDC3WqVimS8jkrAoT/qKBZYcQRZEF86QLwUHsBuFDTQhV7JmhbxS3uy2b171WmbX4LKr93XuGQemthecOV/zQpu3fph0bkz0gRMN0Dme8xEMDMfd+8sgAy2MFQeeVd+Z4+JJGQplwCFJgigTHlxBedizsEBu2snuhAUgs1uJm+uY5+GxwcEyCO+JQGugqQBrvorJdUTTpIT6QddTfCRr3FfZtAsVUgqRriP5WixPOKbwd0+uRJmz434WBD40CS4nwDtqZH0mJ5oEtZLF1jEX0BNAlwPTMj8lWjStuWDTyH3VaQapFCY7KvnMof50V0+7ZVpJWPJ+8CuDKiypb4bF9FtwjkOa+4iI86SL+cz/kjO52xx1V8lPzjpLfgCrjDnvMAMn16ALWnW1dsCgmeuZ30GbIkjL7PppZuSZhNUqcX7dTZaTt5ZtKeOH7SHnzkEd+iaTfTJQNw2aipKC4heOUOygpYdpfqRb07txa7uZgKzCibibf85KllrxDsj9bajjpGE1HFKPwFU63cVA8w2VyKB9a/jCv9hJsauxvdBenOg+BKdXRP23l7Iki+0qdUeHAlNcYrstJYXDMPPG/8rwjDjQPEquG4rX5y6xJuNjBIDpDwUF9p0OzykSfvhyQS7MvBvNEpjygD2XkW0ekEMKH+6uMBsDEggUqH5INEQZhIi8RBAnMirJ95IDcDPX3WL7WXnWbptGdZ0gBH8OnaI1W4s1sSotwQbrPcc5I82xFxqpRPtdB7LQjMVleZjwawxMux7GtteclWJc2xVG9padYWF6cFfjO2vjJnlfUlOVqxlhWB1vz2NZkt165LMlX6Bf4c6zcvlXhT6Y4VG70+Arq4smAblQ1fHsW8OdydPHHMThx7ws/dDWVSb0x/okDSp9kIlKPMlG/OcuDPKjPc6l894yglwJDkQiIFLFl2JxvvwmSvAlaw6J/c0kWg/GlhmkmHrShbJqcX7d77H7av3HEXge5aIs+e9bQdpKLwkDBowAFawWWQw0+Zq1T6IuIuHlBJWMazrAbFljpbUo/0VVbj5avoYFatZAqPX14zDv2qQJdu3axm7l/b0q9aafmX4FUFMa+KJQ7zvOLOgcmjKJnpOTqj8x7GUUGFGVf3V7VSyLr3/nrlqwcejjBw9vlZYpfIComJfjqWayFZ0cBj2gdb9TAlol3hJbjBKi/db3iQylWBGBIEUhdbD3V39bikRvwrqyoLNUr2KfO4rM26JZUNdPXZcO+QjY3st0MHD9uhyy63g0cut5GxcesdZN0wWx1J/erWx6mvxyqSFFln2aQPVosAFYmR/GDHZnbjoF/MVW+lpV0Sa3sT3fDsBTgnkJuUmzO2OHfKVufP2NbytNnanPVObp8Pt3Fw3np7O6yysWJLs1NSjVesQ+EB3BWFvbi2aitbq4yVKH/a/QQugPTc6RN2/LEHJVGekirN5A2ImkH/IxIxsif5rbJ0myhnH5Rw6S4GJXwL+GaYDQpwGx9gaptrJXrHDUmJjBbznlv6gKyqDa3SXlQeFeYIigFi5sfp8y4wbtf7N9mpU/Oeqt1KVK1nPSWIQAlkUEpocN6nfXKAWIQRV/6nWTCqGaDp/W+qCITF0ibUAKJidCpiDIqQIO7yKdNYtq09Z/zxXDMvU9VJQ4o0+3WbuzQvqGyne8IMDgu/chuPtfsS46aW9jIHkS8uyQFSYqxYVA5QoIIFxyisdye4+oa7YADSByS8DzDCwI+fLQGgyY4T+bkfHh7xNbFMKkbiY45dm8CKHW6H943a6Nh+H/UbkjtUwa4eBiQAXKm63Uw9ib3wmIxMHLEcTA1YEhv7w3F+Ah+QphY1fld9UXfjXdAU6MNiUIBDY9jue356ylqPgtY1WutdsrZhNibY8Ll75BRpJwz65QBqWiJ1yreq2mCz0WXv+2PuHDvoqgIWjZV6pG9BIVEnuGU5U5+Dqd+b7o9s5WPv5UHZ4dHdqu4K4JBOkQaRYH0nFV3XlC4W8RNqcwvCAnfU8viEkmDyKvoSdy9Fnj3LqQYOUcAJXOVGC3tjK4g+jDLAQTnCFo2tMCyIfiNfg6qCj4aKioQ5YfhtlXiWafz0UG+f6UmKWzmqGuGhzlMDKofRiCLuJw8nKdOV4Zaft3OkOZ/r3ULleDELsENFpZMfUCtAAokO9dUlPRpggBtECAFwqEiUCeWX4QiMkOykZjIFo39w0PpGRqx3eNC6+vusTZJem9RPwCvSRNroj0O9ZdvzTuMQY/oLmbrByWjdCos+ROxaJU2y6H51ZUlANy/AY1ujDTV8AZDqAKIN/XqdzPNrZ4F8q62zvnR2wdYeXDZbjnxI2jiy5Gof0lGzwI0ReAATyWlrg7UGksmUzk1JcuyRt6J46ecjb3wTUoGqIlFIilsSGVJVE0vI+Hk5C6S8LuYzZSDXquOsB+bqeaB8rJaVp4xgi/wp8hZcZOOCxUW2yGIUt3CJRO9EGyukPiLZxXRJAFyZ6jM8n6uFWjB0XuHIHDWsTLj1r57csjcaBUvjZMQO4gtOJYP4T5hUpgTPjCPviTo652tc+BRH5a0+531dmqB8h/p3qn9OamSWhHkAUK3yl+/rWT4K3h5fcn0eACy+GShMY6FvR1fu2X4IqYsVE8yhU0vWlcYvSYqrnpVJwUUauWfQAUmPBeiowi2SyFqZZyYVlOuW0gEYMZsf5jBmpDGm+eREYOby0YBjDhobUjZJopPq2COwVVIAkNV1pnFIOqPDX4CzKrccSLO4IAlrYc02VrccfABH3wlE4a7OzlvTw5RhjTYPryhdneigrupRskj+61I9udI1AtAxQEIeIsUxULNvdFg85PUEX6Rze8hRBvpXPJVI7+1lIUDmffmo+6RlEX58WR4fF9VngM3nL0pFRrJ2wGaEGekuvDhFNPxrEN8upEsG4GoAEo0MolCzoSY96b2uDi/6FxzVib6K6NdAgmO00FuAOPy6K7n1CZVyU27gtdFZORHjPtmJS3HrVH4um9fReeF8E5RhlMO8GE4/5WuZwh1XyoHqFgw4xUADYIoEh8pXSHdiV0cFWkh27hfpwv0g3UUYKm3lLYDKvcBOjZU+LSSkJklifKwAEzrLGaBApXJJXA19eYVtjDoEeGzzJODisJrKityuCoRYJrUsn6xVZYfglVhLypmoUkd98bwAbklmc9NzsluUNEPJsppiy6ZnZmzt62zgWaONcYXXRD8uu5ksu6oagItWwAadAs7FJUmM7GbcYv1Ssa+6+grnnp5OueecibVqPfKXQ4UHmCRt+moTrsVHoFwUnn9483oIWgVQ+kAT/uQ+VWbiZoqOS8ZMZ1FZ+AeBAQ3ldZRbwkaRll1MlwTAVQu9RDQszKOBbW94aVZvDtWASawrlQLiHpEcFZWvXlSGCAMXKv5ScZcAza81GxlU7aBGaYAavRNmZd6J6t0lN6KdzKFyPp3P59unn2xk0dAwl72qGg2jbM4VO7eXXYBczK8D9HxqCfcuyaGiFe7zWgCdP8s94MagRVOCnPzQxwQQMurdI9WVQYZOqaPN7ZzNquJlC3UHCoJQ2bZJalubEwQAdhuSJJEQBaCqD0zZWJwXyM3N2erCkq0vrdja8qotzbNQfs4PUl4UcD50/GF7+H885h/FKrVV7Nz6A7Y2fVp+zxnrR5EqORyHsAEgRlZJM/vDHTl8xA4dPmgjI0OS8Db8JHmAUCUWWaAEe3cKJkU0UQ7xkHmd5YKnyHvsADlyhfaBVdFOsKdu+157jF73eHnkChOmtfia4SJM2glguZuJGvKsp2zA2Wi41jdcL8DCHoDKQkrzpLx3SUxfevpdUB0AN99ZVpWCr12tcVLEIbmV48z7ctgQpmXpDko3PJfNytyI0n36uViqDw//5fQ8GeE7GxB5GQ2n1qAacfjCvlblMr64UDYBajDNDzMaXQIfnf++iiKBz8EvpECwhH3oUIMBO+Jx6cbTqXAVBrvzdrHTiUCud2BAEh17tHVbH6DXwUlhkhjVuFnH2ep9ZEw5Eji2ky6PxVc1bElN5cDvNUl+awK9TZBS5E2d9Cjpm/OSEh9bdvOkvuf1+VVvJQmJpWd6N2kDHMHHGQqcs7Bv3z7fXnxkZNi34uJ1FhlRnZzwrcdXAEXVS/KabFPp6x3PL7fId70/iQkT58hq/AQ4uSQnKw9HJl6OgJzqOPlD+QaFf+oJ8UO43e20+1N4EZQZDpUbaTSs7VRudGmPn2QZeiXIBs8TrmLO15arpkyCpN+CauHVROZe8PoSA3SEkYWf8WS6yqNYUDkdZao3b+SmEWU8jehCdk+VSE6msT6tO5FcxW+b20wTZtgFCDoQ0kfHvQNfgF/Or/N1qfTd0V8kc5AgupfkXupqTBwu+kpJHw1XZdYiv0hvcGdXm/X2dVm/JDvmo7W2dqkcadj98sOBzCRJZSmg25J6yXb1NHeWSPkecQLCrY1YfcCoZpdAa1DAJEsSYgv3LPg1qffmXr/y+n097CJCGgSy3exv1yeQG7aBQTYj6BTASiKVO/oMp6en7YknnrCjR4/axMRZm5+XBCm1mX3ryD/Klb5hrvwArmp903vHtkvUx8z3cBduA+AcJLEmr8QszPf89zKA8Ue4NY5ydItdS5cEwKEueqFQwF7YXtO3mdVzFNr5hZPABqEC8OWncTiAiYmL/iEKHmcZAn4c6FTwWNSHn/ZplnHEY6SJa5mpRFwzrPRbDqOeL4Zwl2F8q6mc1ipHyxErjcUvpIh4/+DaQw3kdJ8NTNe0iz67kMoc8GBJeCndYY8735VWfqjksWKChkszDW7vaIr1xAJBtl1vbe2xttZ+mQ8qj9jVg/Mn2rxMmXe3ImltbZWzV9dVFwQokoKaBH6omYsCnWWpr/raKuSg+bu3zxHrPNRpbfticMrXkRYpAah8CpLC0Sspd2IXYY5B5JSyeYULT01N2vwim2PO2Oz8tC0uzvuJXWwVtW0E1WNIivf2GQKUwQWqSFr5FafOPJFO3ivqI6zgnC6yyv2j0SUDcHyhvAIXOc49jaBa6HWchLsypR3heQcsYQJu3v/G5og16UxVyiuCSwcef/jHvL7cM9y4UkG4xpfQgVENhmu6iS9yVtq4QvXpfaqU4SQ9rfDcy/n+dgxLxt5YdFvOGWGOMQDA1TuhnHgWQHl+4kAexe63FAb3mAN8qLCon34gTpsQoigfzztlKelyyZnqHh5dqvH90jxu2QjgWtpYGiaAa5dE18lh2MP6mPXJdYeuAj82EpDbDQW6BiiJWX1AWaGmLgvkZiVhKWKPHxV1Yx4pq0Z9N4eayoFF7C4MA2Ira8veJ8fEXCbVMveMqSkzs1O+PxzSZlsHJ4gBxM0+8LG4NO+rLpakujJokfWnnkgO+QCRC/HS/uK1q8/o1W1Beet+ySd/Jz4wNYaKy64l3u4p0/ve9z57yUte4hMnx8bG7E1vepM98MADhW0QGcKBXQcPHvTZ59/1Xd9lX//61wvbIHZQeNe73uX9DsxDeuMb32jHjx8vbJ8aATAAWnKCUABPrUCysKLAgsqFlnY+8qkKg2pKP5xXIAc4haug0q33vVEd3D+SQxEX0XEtqAqKXgkj7ognQA6zALsysAXntIZwG9LXTnyxRDjfDBFVxnfRcVdBTLdIZuJYLkae4r/2HmmXkhf2cXXf/CvCABCDUUGR3vQgHAs3vCfzwHzAiLxTEuRa4fLxI0ykQCb5xrQTnHGKVmt7j0CFHU6GrLNjSGrkPuvt5ZCdXp9fxyjtRnPF1iR1+Sn6Ul+bqCPLjJ4W76nLeWrq80JNbVMdZTRer6B0xCRypDHaBOouoDdx7pQ9cewRW1tftP4BRjU53YxJz+QJWcLGl3FgNVufr7JY398z7JwVF/+jHlHPMKdvLjgggCsuuQ8fcGxQwOBC4Sa+Bh5uUK08dyuR4qdMn/3sZ+1nfuZn7Itf/KLdfvvt3gF/6623eiYn/cZv/Ia9//3vt9/+7d+2L3/5yzY+Pm6vfe1rXdROeve7320f+chH7EMf+pB97nOf80XMt912m0tKT4W88iqzyfjchDIKWC/oDSWfa4WT16S0c7diKgRLWNhBgjM66QsB7LDzNZWKB/e4058ikn+YcPwHYREgleHrKdx73dAzQOoGNao91ypmgltShteI8XdBqgYjd9wnl5+TyvYljnfQe+lSsyBdyaQl7tM8qOS29EtKP4CQq6nVsuMaknJObYhRxJrfyJ7iWffcRZ8n9aDoi0o/so9RwWZ9uJjaQ8nIj9zxVtRBVjNUtgRELV3W3Tkg6alHEl6nn1/KYThtbMfe2R59dCmR1dXd+Xtq9X3p0SVbejhOz2dktt03JSBNAVSLiws2Mz1tk1NTdvr0SX3sj9rs7KQNDPQ4t3Xw3lEfSB/s9UNX1s7in8nBAWSRx1DkSNYjf0sx+VBiz1/yJfImKN0BgAmC5Bl5p1ueMNrF9C05+HliYsIlOYDvO7/zOz3TkdwAsH/zb/6Nu+HLtH//fvsP/+E/2E/91E/5zgyjo6P2h3/4h/aWt7zF3Zw8edKOHDliH//4x+37vu/73OxClAc///N/+UuunkTjJtOp1HHvy2Agf8soIIg0BvujqOanujpB/xht4rDdibMnbXrqnCTNLjt06IBv1siUEQ75qFT4+suv/rwCVcOuZa03SDGElJZpDCfpLhpjmQiDBdFQ+ilzUt575S6+vI0Ju1q6In4aRFA5zB2peK+aW951exhhR6NC9ebDEH1PkSe1+CM9aV4L0ye/FpTSF25jVr3yjTBkFlMxYLmRaof5lj64QiyXhFj+5Ft649bncuFN/j15rM1UWuU9y4d0cAU0HEDk14+JZIKw6sH6eizdWlnlPNIl2cdZEKuLyx4+a0Qfe+yB6vu09LRY3y19DnSMrEKEf9Nzn2vLktpiVYQAVXGwU01ze6deT/FtLfg0lf7BXtt/4JDAa9OmZ1bUhq7QO3UrbYQfH2TPCu4FUu3tXdbX2+fz/jCPYiAvqcv6L0Cv+H55WYcA9CCceh8y92RK/AXJUq71rF/xboTHrisf+b//o7fn3Xjw89OS4OqJl4MYBYIee+wxfYFOu1SXxKGwr371q+3zn/+8P99xxx1eccpuAMWbbrqp6qaeAElArcxQNopGVCvI4DKFmd9ts9OTf1W90lMBVKAxRcRCQpRaE2ojDSYK2wtdf+UY6uOrEeYJblA8B+X9djNPg3+BQ5JLPp/K/uqpkXmjML55Kqcv8zmuMNVuezrTrnrPr3hOt+k3yyWlDg/PwxQpSqLNt1Iq/B6pzyezimPysMqxGKRAtU2pPaSfmn/CxU9HZ4e1S2Lr6euXqtpvfX2Dzr29w759U1tnv21xepUAhL67waExGz94mY0PHbb2hzqtd6vH+joFPuLeri6bmZr09avsJLwwN+sjo/O6cibpvOo16RgaHLSxfaN+fsTs1LRPLGbdq9BNucHSwVXXMEht5pRLnnxUAKqiSyByoMhFzyt8B9PFUq1T/OS0Wq8i24OhvIoir8TpdpfSNw1wvOjP/dzP2Stf+UoHJwhwg5DYysRz2nFl36mhoSF/Tiq7qSf6/pDYkpH2ksqNA/ICK2d+uXEUHI0juEqFF/erSqIiVEEihXDKEesPmR6iyqGPsW+P7aJAEH4IN/sAM460y/Rgns9l84Yk75k8KiIVOCsktLN/zOKrXWPM4mu+nb+1lGlCquP9UceSynle5qS8r6r7dZyUz5nPfJBkWs2bIhTdu2P9Iw0h5ZAepvlQTgxQAWAMbCi15FiRx5EvHgeDGG1xkI6vC9V9dxcbdI5KahkT77d9+w6rLu+3ru4+GztwhQ2PHrYDh66y8QOX2/j+QzY6PGoD3b3WJ02jX9IVZ6Kurqz6qGwcX0j/meIFvJRc1rh2d/TY+uqGnT51VtrDjLtdWmDjzTU2XhHw6V39falTIZUBbPHxpe5m6fJe3Ae4udqv/FUJufu8Zn9y/PAWuZhUrmdZFo3r3u6hbxrgfvZnf9ZPvf7TP/3TwqRGmQlJXvHqzOrpQm7e8573uLSYfOzYscImqJE/zIJ5KD/vxHLntaEANqm4VD76SFQtfIoIy1di1AmgohGpQtQxYUFcy0D31ElpIuElIvy8ZoMug55simvN7befyvGW87eWLxfiAKwgfy7yEE7iruqe/jV3sx1MffG+GNdkBSxTB7foVwIcBQ4ABGHIHKCTZ327VL5c8SvOHYZRtxl15XjDFvrnugcFciO2b+yg1MkjNjI67n11y6trNre4ZAvLUm0FOigBaJb0+XGUIA+uCRZl5EutiAm3a5uS8Obt9MlzNnl2WqAm93K3uiTVeHnJtlQnW8hjmeFfyYw0F8+8ZQwK6FKkH1PZyp66grrMxy45zOOeYD3AgrdTlkHm/W6mbwrgGAH96Ec/ap/+9Kft8OHDhan5gAJUL4mdPXu2KtXhhtOpmMRYprKbekLNRc8vc1KjjK4VdpCKI65FwdS4MHM3qvb+DFOBWKIlgJM6zZePbXY4wNeX9xQNJOMBZPj6p5QFZRz1IJfmUPptRO6i8J+Mv4wz/dYATs/+NVYaxHqSubioxBFguNvO3xqqvVftXQm/nF4o3dVz2ulf9Zmg8n5bOCV3ziqLcEf+4LoIA8kdBsAAM4ywVV4iqLECArsYPBJ4Cch8H7sC0AgqUh1LloR08is3heQHKLJpAP3Aff2DNjSyz8YPHbGBoRFXaVslsbl0qLA4QMf9FPF5ujxtSoOnPUZ8V1YEjjNLNj8rcFxV2QmPKgI5TpYH5DgFjO5I91Lkr9/pmgNgVfLbqmO5DmktJLYgzxMC9AeeAxAhgt6W7yLP74J3Mz0tgOMlkdw+/OEP26c+9Sm78sorC5sgngEwRliTADMGIV7+8pf784te9CKfZV52c+rUKbv33nurbp4K1RdAmdysZMxzrXCCq/4EBpRzm9QYmOrNHDikueiXE6ghEYjZeYE5WOVCTqBJhhKUyu7yuWwGVdMh8jB09RTKXaq+6Qf7BLcyxxc6AK0MbhEaz3kvdrUVjjjqqfweUKYp73eiCCvyNdIU4aSf8j2UcXMtv1/ZTT1hlynGVaFVypx8YIRR7y0HAQSECzjhI/qevCxJI350rUpxfEgEWHkmLGb6Jzf0x3W4ugoYxNmxzbbZxBZK6z4/jsERdiju7OqzvoEhgd2o7Rvdbz39AwLBNtk3FSskFJc3v+Jdi1Qo0f5em+t8WPW4JTnND9hROnArMZA5d63y2iH12htw4SfKPEZoHayKPjin4t7j8SzgrvjxLPfuJzLLzYoUhfs6yjLa7fS0AI4pIn/0R39kf/Inf+Jz4ZDUYBYjQ7w8I6j//t//e58GAmi97W1vkyjfbT/2Yz/mbuhD+8mf/En7+Z//efvkJz9pd955p/2Lf/Ev7Oabb7bv/d7vdTcXS9kQ4DKRDsxoYKxC8D3sC3eYhRv+B+ClhOTh6M+/hCrwtRzhUkVnxryP8En8p8FsrMdQfdk/lGDjcdf1m9VT2d95FEnx8BsxVJYay3Fwv/057YP5Qdk3meElNUqzhynzpIij9lymWnDnpzn8becy4Y40OajXAqqS2xfhef5V3TR539bsTJxnwEg31RyJm1br0RR+0dIUgpt5WZEOWQNkkScCsKKPzte8Fh82V1P13MI0j45Wa2fDzA6BYTuTjAHPJq9vQkmX3thJeFBAx9boa6pHHMOHROfqKlc9+zSV4h0iOwE21UUBnB+SU+x/R4rpMllaXPTBCZg+POm8ctNsvT1dSrfC0bvozXDueRQhE3C8IVElQ+Q/dSjLwvODd8Ct/nsYBT+b6GkB3O/93u95HxiTdw8cOFDlP/uzPytcmP3SL/2Sg9xP//RP24tf/GI7ceKE/e3f/q0DYtJv/dZv+SThH/mRH7FXvOIVDoB/+Zd/6ZX6qVA508sFUW60WYGj0KJAg3kq/NBQvFHhL9ww2saC7F5OGWINo9LGQAMz8LnnS59xQBl3mZ8qZdoaUX24XL2BF+8a5iRelyIIgqrntHO3okZxZhzn0Q7mjdy7Wcm4kZuMu8wQboOjmtaei/fMq8i9uCjCqzGHkW2IxBKDqm7V8Kt5Va35ui/lF3FHmMEJ/lXpWYw5zd5PClN1YuoFKituAT4/y4A6DNgprC2AkdFaqaf05HIUopuhAhMH6q6P5jKVBkmR3jWFIXMGNNraGdxgY88+33OOKjw7PeMH04Blvd0dPgmYDTzbFTddLC3FYnqTJAuTYpIeOwEH+2CLM+8qKvLAM9M5Lo0oy2i307dkHtw/FuU8uB/5X3/Z+z/Kr+L3KjcqZEg41EQ9qxKWAZSCpkM1C72Zfez5hGLOT5/59bUVH70izN5eDipWJfNKqIoqtzlPDSqngfC+FVRdCF1HxJWAnQBH9I0Eqp3SEn5qaYbKbtOOa5pzTRdhLzkEs5K/oEhIhECe1/zjL8PM+zIxrUOW4bnOvhpPyQx7P75PEDI7M2kLs9PWp49S38CgdXT1qIwUnpITUh9dWpu2sVYLy6Vb/TJKzAurqiTDH28eo5RIzKQrpFyZhGP37bDl/lxrUJ1iGde5M6ft7KmTfu4q9Yoyw18bC+uVHupRCwNXAjckx/ZODtrhRC5JgmKmqrA/6spSrInFf+9Qv/VLQuQQHVRn9ojzA7mL/sF8h+oMANpDfgh4Jf3z9/M2oDwqzPPe30XOq3leR+trq/bnl/o8uH90KvL+vEKgrhUUFTa4vjGlPzenMPnKqSLon3OHvqD9/YyU9Xslon64G7VZd1IKuxFn2GXeiS7GTZkIP8Et42pE5XDL4V+MGQ2gzOmunnYypxwa2V04vdv95Ptte8+yf937aVuYyR9qNLdIKFE/FJau7kUfDK7RwU94Ye5W+oVZ8YQ7lTV5nG7jWaqjAIMDdZwFLD6AISB3cMCd4mZaCRJYV1+/DY3tF49bi8Boq0XSmiS2ToFw/9CwdfcKHBQOshaSXJeeezkkWhoPh+Swh12HAI+DjtoEel3dva46L0tVnThzyk6fPObHHS4tzPkHOQ6uXrGtdQ6uXvfnNTbaLKajAMy8SzVPleQk3q+ax7yI87OTSq/17KUspLz3ylgwxNVVDNSHkrukvKVRRCNWo/YvM3ahfgBsnJ6e0t+mvrbs2V9uhPUNEsKsvnFvj7uoYCWz9FPvrxGV/UE8BvP+oVbpSWERbo2h2v32MHYi0pPx4a2cvotJ64XclPOh/E7KBY+rntxdcQ/hpeYtfPFcVb945r/SQBnzjJXasq7b466FXCsDzLmrPfNRiXrVJkCKw2oAPPK79lGQS3fT0dVlg/v22fiRIza0b9Sa2iVlqT71SfoaGBy2geER6xGocXyhLweTe/ancw1EoSB1ra1vCqSQUpsEch3WyZmxAnVW2kydO+tHDJ48ftTOnj5p05MTtjA341NKADznVSS/FR/w2ygGzkgrQO+gTGr1ntSbWh48u+mSALikrKD1DQkzRHQHOV153k7xjD++bFRMVNqooAEQ0d9GBUZsk/oh1QPVN+tB+K01iPrnesq05v3TpXI8ERfhZoUl3PJ9jWOeExTP5fRAGR5m+YGA3V3h5ulSpLNGGXc5Lqj2Tnk9n6p+de9dCwFD4ryvXaBQLePDlFMzYN9WqQgLikHH8Fg1q754IQG6JCeWpJaHTQOoARih2q5JHeXUeDm0LklhI2Njtv/gARuU1MYUEiQxJLaenj4bHtlno/vHXaJD8os92RSW17lmW9+o2NLKqi0uLvuW64wae7xyxpKpJV/LGutYT0sVnjh7xiYnmSQ8KZ7yda6c2u8qrvyzxpqJxS7NkR+Kj3bCa0aexD3vm2XRiHczXRJ9cD/6jl+N/ocyFW/F0D2UjSfv87XzPtkP++U+bL0CQwmM4Q+34Tcp/Bbh4Juru/Vb/ovlnj9vwGHnTdP/inTwq/rjPuyIy2MrxVkE4eRpwUpm6R/anobCXUMKB9hnPkX8JamtCKT+Od0lYR/Mk+xoid7ow9xN68JK4tnD86cizOKSbtNNUringaqst9ZsauKUnwo/NLxPYLFPIprAgvyVdU5w9S4GDjT2ACKMKil84iA6jMMuOFYO6CoON+X3CXO/VRzUhzWphD7NSJH7ZqmS3LY21+3cuUlXF/Hu+8zp3lVDQtHHE+BhlJZTvggPXltD1Vx3kOKwHNbZtraprPRObJ2+trrugxAdPeyG0uG74Hh6BWYtG1vWh4rb1WHt/T3RPynGPYMZrNiuqF6y3RRzAX2WgMwAZw7vAfB4hyZY6O8DbTJbW1m2j/zhf9rrg3umiaqRP6+LoqhsWSFjugaMeJ5f+6iYQVQ2l/JgB7QIIynCiQqcFTsrOZxfdL6C+E+mHyjuAzzwWvVXmJHsUItrgBJuFC/A6eApw4J5TjUo04V5hltPGHkD0rUR70SERdgZT5rltVFcSZ4kSYqAS1I1rQXlc3I1HrFCj19dPG5fUN5ji6RKhXZpRNfId6Qf/kph6BppKhjzMlep7l5RZVoyrCjPdId5ljUDAwI0SWKMvgMIlBmncpFkNpo4cOCgrnFu68jIqHV39SrN7E6ij7X8KyvkR8HKA1NDSPUBSX9XXnG1jY8fsF5JfeQvauu6AI9DYegH9CMVUYEFqCRbNn7QzoxA/4yku1NSY8+cOG5nT560OUl261JjN9ckEW76IRXyQ6S0Ffrr1vUuvJokXwGzlBi9j/K0wgj1qt4Xt7uXLhmAS1IzoRbGg19oADQaONSTYO4Rz4P5KuEtKy+VNNWy7ZWY+tYAXApK/xlGPZfDaXSfJh4G18KkHEdSpqM+/vprcv1zPZepPr6MC6p33+ge98lQOb+g+vieLmU4XLmlayG6DvjQnK9Sx3O4xWK7/xpfiOrdcS2Xb5l99NP7yzjVK3ZUYRsu8gJ77Di4enR0zIGOCfJsOrFf12GB3uDgsCSjIbmXv41NYz+6sfH9DnTjB8ZtdGTM+noH/EwJwmKgRZnMUIf19/ZI5R21fQfHbGB82Jr7O8062gSGGzYpdfXEqVN2TirtKhKjgIq+uYXisOmVtSW1GqbYcLwiKrjeTaDHRpvLvtHmrF9XV7efO7Hb6BKZJvKemARJhY1/1Dp3EwBWa2z5ulkBoXrgqae0S/+NGuqF/KdbyMOQ0zTBV/pNAEmK+HSVMW6S0y7TUbaDy/Elpb+dqOyH/Ii4I+y8h7MhQzznNRtsmkHcZ7xpznOGUXYLPVkaoXI420iPqKhranSTZ074mQXj4wetq29IzZIuAeKTfzVb/vNpb9oqVNSC6tMDYQYTn38ES2ZQfTpqYciN/kux87S5H+WRA7A+rKw3RYX1Ud6CuGdKiQJ1tTY0jVhJMzU5KVWW7ZL2C+Q4O4L3YB+5DQHNki3NL/ixg6i9qLycjNXRxcn9tIuKTzFZF4CxxnV9ZaOqFndy4M2+fX4ID4MbLe3MzZMXlQ+DJ0ik/kb6x/ZQM9OTvusJyxeVOFdd7//K/9i1KuolAXA//JO/rC9X9MHRcKIyZsWLCs1rUqHyfnvFpNGlnxpIZNaUw6NiJbCUqewmr2U3GSeTjbPCpzmUfpIwD+YBkwg/uWYf/neicrj1cdRThpXu8jnBCE67TENe8z7zBq4n7AgrpeJ6N/jP8Bv5h8rm6RbiFoBbXZq1c2dOChTWJeEcsvbuAdtkDhwNVV4T4Chvyz44UTnc8n0AScSFl4yyXAcy3fnMNe51lRTEuya5P9+FRvaFO7biwnVMwgUQIxLvhpAdIMZGlhxQ3dHRbu2SBNFIoiuFeOVW7gA4jjRkrh2jp7EfXotz30CfT2tqbetUmDE3lLMclldXHeha2lr9dLHe/l4HPfr3QuJsMj8Tln4/qaTzczO+pRNnRvhAjJI6efSxvT64Z5KirkRlSa5VwKjQcE0NdV/O0ReH2+TwmxUbinBqV6/sqrRZcdN9I3f1XG7gPCfhJzkp/dTTxbhJKruF0n09J5XvoXyud1d+X8wzP/K9yv4wy3erT0/ZvJH9hajeLc/s1KGbWv66m7K7ctr84lROc9J54W8LpzGV/fjKGbhUl3LqDuDEXnScrs8GDiwBjP7KIO/LY56dzFn/2ts3YP0DQ+YbWco/IbLvG0u/NgSEfkpYT7cNjozYwKDcNbda06pAaGHFNmfmbfn0OVs6KZ6adXAjfrZ/6utnc8wOV0/nZqftjNTW0ydP2LmzZwVsc3484srigk2fO2sTp0/Z3My0ra4s+bw6+uA21na3inpJABxfsbJUkJWMCpvgk88wbvM+G4I3Dm+05wMVVL5Pv+m/HrBqYdXSkfbphud6v2X7MpXN69ORlG7KZknpp5yu5HI6obJdPZXD50q68x7CT5rzXpnPUL4vhFma58BPlhGUaeJaz+X0JUMeL+AliOCeKQ5hITe6FM5cpcq406xMaQd5mEW63VzuM76yeZmh89KV/kU50i4bmcmc8heQIS35vnSorHKvtxCIyY8AMc+EjXNKAb2Yl4l/dvZF7WUQYZMpKgoDlXNoeMS6BIZtypU2Nh0W0Nn8is1PCMTOnLGpqSmbkySGdNjb12uDg5w/0W2djL6urEkKPmsnjh6zUydO+BQTpqAgFbLzMCOpcVgOo7SMSu9euiQATiVdrUBQVjAaRFLUt3RXq5A1JivCrkzlsKJibicqb31jTkq/6X+nMPBXbgRlqjepdxNpr3Ga1VOjeJMuZAeV7fO+HEfZvpyWMicgwBB+0l/Zf9JOebUTuVvFo3+6r6VPsce9/xVpLsJNN/WUaa5nvJfTnXSeu4K49/dV3QKw4DR3dyWu6CONVJU7msijjMX4Rw3FHWaMDMsdYJhLuAA9koQEuCF3rUwq3j/mKye6+wetg4Ny2jtlr3QIj9bXNm1padk33WQ968rSio/8d8oNI7Mjw/tsuH8IEdHmpmZsSeqpLy9TmfAW2Z2jS6ipu5guDYArVdhkGgiSgYv9Ytm6m7iHePWoRHkNroWRRIXO8C7U8Br5hbJR4Df9exhFMGU/uovrtrC2h1d2/1Qo093oWs9J5XvoYt0lZTq5prSK28wHzBP4yu+U4ddz5mGZ0s7vsaec9ExosvGr52sYBOmacXMtx12+LxNhYJfpcLM6tzxvf59oYiTPkygzQKv8vqTR30G/XLTvqmyRX3G0ovw5uIWkB7N6okMSF31ybUh2Do6KT8/t9KeNj1nfoQM2cPiQ9Y0fsO7RMeuVZDciCY8RWyYWt7R0COQWbOLsOZuZmfG+Pk4h21wXCwiZd8ckYnYPVio8C/nvE+dpL/4Gu5cuiUGGf/6Tv6wCrx06A+WETF+oLsKubA+VzTIbys9pVr6vp/pwG92n/2qjKL6A/JI89Po4ZI1RMlROSzmupHI6y/dlKvtr5N7TVhd2PpfdcA+nXTbadJNXqOw/uUzYpxsoPk61uMpXqAwQSeygsTQ7aROnj6uNt9r+8YPW0tkj6adN+ZtAQxmobug/+/kl1aenIbnfWvrr01wfhlz5j7sY4Ip3YPqKHOveL9Xw3EXplbjNEKnGGX7G6d0pUk9JF+ED6my75FOgMBNQcQBPk7iZ+OWWw3daOth+vcMHYuZZ/TDLQdKMjDKhl4DlThIb8wmJmBFThRrsU6qInWfi2rJpqbx7gwzPIOWyqm1fdpUCFaGoE36tVcAwL3MjyorENTkpK2XGWwu75r58D9MovWESv1fEmj9cl926e/+S17hstxOV3VzIXT3t5Cef833r3aR5/T2Ubsvuy2Zpnlf8Zp7Uu4HKdvXkRoV/wNGRQWaRnsZpyv7WcHMRVIo20xDh1NKdYXkc7qFeQ9Azfouw/LbEejvnsExzhYk3oU+qh0TjYSHdobKK2yXddTRLemuhv65T4N5tzV09ZlJRm6R6tvT1W2cf00F6FA6H73Raf9+QHTx42C6//CobO3DAl5OFqkz9U7T+Pt4b6GmJ+DMtUS93M+3u1D0FooJl5c6vf1HVdO/FI0Y94gpFJYn6GHZh37iR1gNMI043UIaTYaWbpHp39ZT22/438N+I6t1dyC2UbspcJtKX+ZtpLae7fJ9UHxb2GQbUqHFkODD+6vMzqRxWNU38FU7YQLLsPuwIt3gW1edIxpdxNuQ6d3BShF+KwCnqWG6Oit8kN47bWvhuHffFg19gogLP/IwIeURCQ1pzi2JgokV12wcVWEUhAGNggsX7bQCdNJwtmW80tdj6ZpOtszZLAbLigv45pogw2fjw5ZfZ4cuO2NDwkKu+nkr/EDAnjwEFyoaUka7odtjNVCuhZzlRuajsCXCI2/4l19cnOSb9Yh6FVeaqu6xRUZ0pTmfuY3+tqGleYVWpnOXeK2UDyopfX/lxX24k2Gc4GVbNX6TCr7JiJJCvq5up8p3H7g43RXgyKbOHCwiIIcJMxi+s3KxdXc0X65rmvD/LgiKOwr9sIg2kKziXmNW/f1K+a1L52dNe4nraHmbkUXzc9G7KIN8DjiMe6Vz3NATw8dqciOb5kO+X7ygOd+czL+jdC1nuUQhizJTf3leW5oWZpx1n7rD0HnEl1X4vc+6R2pkJ3uQfYu5rLDhxe69725pu4R/Nt0V+6auTNduat+kZZs1qWztLuNhYUxZywGacyi0HSl6vReXZ09FjI/3DNtw7ZJ1tXYqlVW7YQ47zKNjkUx8QxQi2EmejctlNVM6lZy2VK7pX2oL9615toLqKqahMUmSro9qyLXH1CxUVi8pGIRK0s57rr7ijomUhl+Oup53MoWzA5cqSbrl61ZcV7cZZpebPeggvuA32Z+Li3QmjCIewE1DdS0FxL/dFPtG+/IpFqdFjnnGRrxgrdm9wVcBNf5nPRcPxrN8Wq7wX6fL0yFOmrz4fylQ2P8+dguOdHeBImcKKA2OK3XE9ftJOg/buKBnV3s/tVP7Vg3oasCIsGL81nwAZI5o+KLAN5PR+AE4pTzPdnvbMVLkPR/KnACNZclMFt9i+HIBzllufLqIrKyKir0zOBFyVdt1I8JJgJrVVt80VAR2L43UvO4CuvUMgpytBA3JgKfVYMp+1SLpr2Wi2ztZu6+nst/b2biWtTW8fG2XGoB3Jwx/3JHb3Ern6rKesMDSQHKlLM5puNF/+4zjcpxnMGQu+L76DX0ntEXGFy2bl+DKueko3T4UyLjj9Zxjla5nL8edz2SzTnQyV/cGY179fhpPPcJV0C5i4H/2Sym4iLDFGYqzqwymn6cloW/x1lOHQyc4Ppz6iqBvMFWukgztui/tyPpXTkems54wHKru/EKW7DAPKcOrDKJK1I53nHoArwqynjA/OsoTZXompJcy7i7l3Ma8OqQ/pryI3W7p29PbY4NioDe4b8XW0JIzyJn0eLpHoObSk3UuXBMCVC75coLrFRPa4EeuJ6l58UhtyTsRsxBSwFzIuvfIU3ornMqWfp0KN/EQ8EXbew/F+tTjr78tAD1ER4Uz/dtqe9iTSUh+uc5FXfikl1wGvSH/Nn54LN/l+cDkvL5Yy/jJlfBDvm3Eh3fozVHgJr/wjnFp45XQ9GZXdXay/jCfTvqP7ajpr7st+ynFhHu9IOUdZRwDbOcKgHiTjh5kkHHOIyko/XZs1Ceisym2SBNuspbvTdxTu6el1UPS0KHovZ+cox91MRQ14dlMWerkSwFE5VIFhOUmOgj+/Qri9CiyBoFx45XDT3N17ePLtFacm9dRTVLQaN6JyHPVcpnr/GW993Dwn0MH4qw+TK8GlfZJX4pK7pHyOhee6lxfyMlSXdE84tfdUjp0XzsVQLa6d860Wpz8UEjhm8Q48J+iFM/6F/Ta/BdU/70SN/Dai+jSX3yXtMiwPrwgy7bNcym5rhHkCV9E/XOR9MBRmUQdCqqXs+OGE/jgHuo44DlFIJlVXYNbRbs3tHdbW1e2bcnLgefhXeMpfJUThqg6Uk7MLqXFrfJZRuYJsByaVYFYMcXVtYMFpts2uaBTlBg5D5Wt9H1e6g8sVMqlsDzeiejdwvks+11OCVzLx4izdYgbIpUqSo147hdeI0m26151VspGIMm6qU62RZRoCQDNPkmt+npzK/hoR8VB2dDP4wnXiLZzGQnY9e1J1F0nyf2WJthx2vms9Q+nuQulJKrsph8F7p10j+6Sym3q3QdvTh/32fC2ntVY/wph84d3lT+bUCz8HFmZtrBiA6xS4cR4Jh9qwVCz6Wwsuwt7NdHE1bJdTFnDeJzhB5QJIs3rw4jnNiubg/9Me4pph5TVArhZWOdwLUdV/4TYZ853s4LJ5Eu6zUqffVM/ymatX4ILLduXwy2FjX/ZfJn+Ss3o3EW5UqQxnJ0r3ZUo/5XRA+QzXp6VGAqzqyHktfPIiqJQe2ZHO+nqQfDFUdkdc9WEkQ3ktpz3v086puMWubF/2dz6V/IvSbyMOB+7IOcxLaUAyk4M4zJy60mqdkuA4rZ896TgDAgBsR+KTikv+4mY30yUBcFB9QVYBS1fduBmUkhfmNIYNNQo43NecVgcddPUwRITtS1SKhpnhJJefs6El1acvKd0nRaOsARBUDpsrnFQ2h8oABteHBaVdcj2V48j0wBDu47nmt+a+FmajeKF0W//eF0v1fjIuiHJk6x92xkhJDrUKyhzDPfuuRT7VBiIa5W0jSjdlt+X7pDRr9I5pV/bDO5CmnfIsCfuaG66N3ae7svtt4XgZigEy+vAE+MTPHnA8txUDEUBEu4BthGVefX2uqnZ2SrKTSsvWTZ2ddUcF7DK6JACOAsxKDmWhZqV1KhUuBADlF98P3sBtURnLlTLV1iRCIcwMNytPUvk53dVzmTKteQ/Vu6kn7Le9myjDrjfP8MtxeMXexgGKMJThZFhw+otwMvy4hhuuYrLK79MNdH4jvxCV01tPO5nLpvoO7GzrjbNIB42Xa654qe76W32P7ZTvXn7/eq6nzJv69DVKL/4JG8I+050Al352iutiqN5v3vNfpen35JnHF3fxk4NkvZEDIepqd0+vdQjo6L5hR2KSyHI4TprbzXTJAFwWYFaYrCg+YRKmuPzqxViY6/VVz2iU7COWlQ7KcOTU76ukeLLiF4+1uAp329xfBJXdlysllHa1+C5c6bHydYlFGsvvVKZsVMHb056ccZXN4KC6NPAoJn64RnXuLkDbw9+eljJDmQf5zBWAcCnE+5JCdaILgTlp/LjPDxvSXlLWl0aUeZh50YiTMn1lfkok5zv5LZvXOMxrlPdck7M80o7yjsEChRDFo/rCXLpmtQkHNxk5RwTyIvfK05xO4vVF7LuaSNLbzXTJAFw9ZSUoisrNuKpYnOk7oDGECkPlV1kDdNxU/dYqvz/LrlyhvWIUt0lZ6XGf92Wup4wnr1C6zXgzDfVhpJ80D7vz4yj7gdJfhs+v/FwDvsYNv+pPVjXrsjvde5SN0/NklOE/GW3PCzHp1Y90043AM04wyzDxQxmn34xnpzjTHddyfBdDjcIsx5t2GTbTLsi6i6d0TDPmvsxBtaWJUJEP+pFTkVvxCyFAl2TSBpAJ0Jg1zGoHTtiixjs4AnDk8x7AffuovsJAmMBeoLJPpgFwdbvCjKJlv3xvAHqC3I3Yw9RztTKKM+x6SveNqJF5pvtC5BWz4KRMR/k+nrfHgVm9JEcwwQqTvAAQivCTy2bbw6+52X6/PR3hFqql+cmoHNaFKMOuxQtLQvONGFGhmnwBOu/g6qiHW3sfPm7b01hLe5nSPVxPZfOylAc1cl9P6T796I5/Vcrwy/GcT2m+/UqQRbAizMQ8VxkzbxUKO/IFI9IAjMU9FHNDN6TWN7e2eB9cW3urdbSzE3GcGrab6dIAOMnVroaoUKIeqGiQtSmorEQYi7ZVlvQg9kqGIxWmj4xSYf0+C1qUYYk9hCIY90Zc+nlF8Z/HXrovSH5y5DVMt9mKys9lezrMA3S2jwwmQ+XnADW2znG1bDNHGMPO34tbp0h3OW/yPkEuqXxfJYWDcSMrf2GnzIm4D2OeS1wyK4eVYQeHRaSPO9xzIU/jfX3umwJDhQLIAD3cRd4hvUd/V5ZlqvTJNSKCzPMCBBRdlF3YBWO23XynfHJ7d+smVYq0YIVFYSmn8Z4RFpfgMDsvDj3W8rhGmPkPe+Ip6jVEGP5+SGruP2PXf4KXMflJ3vb19vpxhyPDIzY0OCQetIFduEVSmS4RCY4GQYHoqjdi/Z+DgJ7jVxSsuwzOyl+tuDJz9VSF38SKYioBFR5pQHbpBkbikcdYrKw4QuVxL8Z+W1yJDfO898qT8dAIfQ1ssTDcG2SwnDjHM66Dw8x9+z1JqJkV71/cn2+WYUVcGR9rb2tHKEbjjkYalA0oGwH5lWbgQGyXLfDkPUiX531wfHCoXgEK1XT4oSqRNqy3Mekt2NPI2mBntuuRe3Gz7GiLrZSxkhLmHMBi1tKmVCh8V1Vb2kmR3zO1IRKl8mYSK6CncJqbdM+JW2r5YGAcBqNy1X2wwuMdN7iGPcmKe14J9+FHqfErz9hxMDP+MkzY1UXY3SptxdpS3GSYaa2kRj6wHJ488LxT3qQd3Kx317W5VbGLq3lHHsuOq1KhMAq/MK8rrXKzecvWbcOZ+025ZW6jhynGLeXR0VKxvvaKdcu+XcH0sPNIV1/BPdbX3aWE7F5Sdj37iUaXDQ/K5zCrmUP1DTi/zgl0UHxNg6FG7tLMw8+KWzDeoiEoDAdKPbsdgevagMpxZvhpnvdJ6Q4quy3fQ/Vu0i79b2MhViN3SWnu7+/vXaN0X/YLpX/Pp5rxjlSOw7sNuBZxJQADqJnmesLE/TsQk/+bUq3W5Y+NFNSAw4W7bZScctqhjAdOyQ6Qzw9jmpfdJSelvzLle6a7fM8wd6NtYdTCrT3zUHMRlOnP8MvciOrNM87y1aVbcg63FGM1zEh3fV3YbbS7U/cUiMKoZf52TsqCK1NWrnLFxU8jt43C1Z1ft5G84n0bA3S6BqWfAgxLDMU17OIaftM+iDDK6Yl018IMxzX7CKfcIOupbFb2l5TPgE/mV5wJUMu3dL9THBei9FP2p6doyAqWa40L4M84Pd5wxB0Sj+8MgpTqV4BGfpz5RThJmfZ6hralp3Rfb8/1yQAvqT6erId6wrJwVU+1sPx/g7AzTeUwG1G6K1M5rXmPFoJWEppK8ZEo7ILd+a6lSwbgoFqmXzjXsUcSoDJS0NlQk8uNlXvcpfuLCR9K/8llCtUNxrzGBBtB15uHXTyTtkxfhhPPtTAb007pdr9FGsvvV5/uqn+Z02fTCOTq6WLyCsp4M699hxdxDPgQBmnUGype7y8SYe/hF32TVSkaH94YgwE7GHCD+C/ruKmjyNcaE27WByjTCKUZlOlPLlM+p3v8ZxjYpVTqzySqzn+ZynHuRLhpxEn5nO/VKM1VUt4ivVVzkw+G9Gm0WYXiv91M59fIZyFlAZULqlxg5cJtRFngcIJcNljCoQJuFHOnykCXxG2ZKXqY3VJjzlHwkwEQFGHEe2SayhR2NXdls6Ty++TzThR258cDZfhJPPu70zgLK/xF/LW8T1DYCfR2ovRfDqtKSh5xZTqxdaAABIsrI32oVAB/NF75oS/QAbC4x0yezwu+CDvDL1MjO4+TvKhLc5mTyv7K9lmvqlcBh4dZuIXwW8vDWjh+V4RbjqsRZfz5DslpdiFycFOGMbnXy724KgRf8aBMLVzuTnpaqXvf+95nL3nJS6yvr8/GxsbsTW96kz3wwAOFbdDb3va28zL0ZS97WWEbtLq6au9617ts37591tPTY2984xvt+PHjhe1To3IhZwWCiDefy+YQdhBm5cqajTP9ph0VsVwpo5ITJmFsZ4VehF9fgc6vUBlvOT3JEOZpB5Xt67meyv6gRm5k6JeMB64PN/1x5b1r77+d03+CWwBN43fOMJPSbyM/6T7LgHvccCXejXXSI4cOaHxM8h1IU4N8Ka6NKONKKt9nujDLdNS7zee8ph/SWTard5v2DiR1hPsMpxFlOGXK8OFG/svPZf/b7vXzlR8ba6r367a+vmbra6u25Weiyt350e4qeloA99nPftZ+5md+xr74xS/a7bff7g3+1ltvtcXFxcJF0Ote9zo7depUlT/+8Y8XNkHvfve77SMf+Yh96EMfss997nO2sLBgt912m1ecp0I7FXwWLETlyQoJpTnP1Yolxg3PEG7KYAfxruvr6w7OrHmM7c9r/rlHhCeccgNILlfyMpXtym4bhZG8kz1EejPNUPk53UDc+2hvKV319kn19xleOZ4kzBLgErAauduJ0j95X87/DCcZIu0uyam1ObjJ3CUOpTFOsJI7JT0kz0h3hOneq2E1Sm8yRHjlPCibNyLMsx6U8xfCb/ndPKzCGne4L5O7Ke6hRjGmv2SekxvFX36GqukQpb/1tQA1lrspk62ysWnSS/QjPeUU7U56WgD3N3/zNy6h3XjjjXbLLbfYH/zBH9jRo0ftjjvuKFwEsSZwfHy8ysPDw4WN+TFjH/jAB+w3f/M37Xu/93vtBS94gf3RH/2R3XPPPfaJT3yicHXxlAWzjVR+9YWYBVfmMtUXMFRf6SHsoiLhhkYDYw7oIOGt656KTUOjssJyI66LskqEXW5kyTtRus80PRk1cu/vuFOCRDuFnebla70ZlObl9ym7hTKvy40z3ZTLIP2U/ee9s56RKjg7QEH4KDbTNbb3YYr8lWsAUh9eXus5qWxWn59pXr7nfRLk0rz8XmUAj8GosIt88VsnPRVmJcOnQOk3/Wd5JNen2831zIcBYKuoTkuUsxb5R0ZWqv081t1MTwvg6gmwgsoABn3mM59xFfa6666zd7zjHXb27NnCxhwMkYSQ/JIOHjxoN910k33+858vTLYTUhNnoZb5QkQxUpEprPxaQlS0cmHXM5SFDKVZfYWAcZKVgQmkXKFapU6Aw3+EWQTbgKIhNuJGVE5jXqHwU3uXMpX9fHN0fr7txGUi7si3ndK+cxhlP07ci7MsIFzixs8raGpR/kd++Fw0Bzg4w9VtA8p46rmeGrkpc1L9eySV3yvzpIrBJT9w1ln9SwfxXEfl+Mt8ISq74Zr5yT0SMKd1ra+s2vLcgvP68rKft8qOLf5938X0TQMcmfxzP/dz9spXvtLBKen1r3+9/fEf/7F96lOfcinty1/+sr3mNa9xkIJOnz5t7e3tNjQ05M9J+/fvd7tGRN8fBz0nHzlypLBpTBRZbcRxe8FRYZIBIlRPuP5LC0NZ0aCyed4Dnj440RpASjxQzV9RE9wfduczzhqxPG1z9+Rco0wzVJ/mKpVuL5YINvMv3zG53iyeC48FkT8puTRiysHLQh596yqxLKSC6v10dRa5+8KMuMI/+c9ZA21+3Q5uMImpS9DToHy/C1EtTVH/0k9y5lW8RwnoCr/n5XFhnrFeKPYMpxFleIRNPnPfiFqVHub9bgjg1haXbG1pycFuY3Vd0rFYkt1upu2t4WnQz/7sz9rdd99tf/qnf1qYBL3lLW+xH/iBH3DQe8Mb3mB//dd/bQ8++KD91V/9VeGiMZHROxXMe97zHpcWk48dO1bY7EAKJsEmw+RablhQFnYWeLlSQY3SU3NLAcsdKqpyEymutU1gJw6JTtayQ4rL+Vi16nnxVE5jPSflO+2U3kZuM2/O9xFUjif90BDTQ4aJeSMK++TzKePnClM21Q9EKcxyGqppLsep4D0GtxfYKYExeo0KJfdi70eq0s5p2onKcWZ6yvVkJ8o05z2UfjKMMshsd1PLfx7TTZUKu3rKMPJapnL4cPkdymHhzvNaYpqDmriyviF1VdIbwgBq6y4X4col/pSJEdCPfvSj9ulPf9oOHz5cmDamAwcO2OWXX24PPfSQP9MnRyf99PS0PyehxiLFNSL69Pr7+7dxQyLPxZRVdD6LfHRNhVU0jpwKklydGiJQoh1Q0DlsT2C5DhTQcvuMRGH5PZH5Y+FOor3P2fL4wn1UJHQmEnQ+4bcRhwcCh3FZPDuTvkhjzT6o6iorb4mhmDaBh+TthL/kcCdX29JVR2lUtirflxKQ4SYRHnmVeccuFb4jSCnepG3xl9JIY1MociBJSXfR9ki7LoXzlOiT5Kv4ebK2pQk/7ta5uC9RffrLnFTvJykmzQYRjs/3c+YZU8KJtNbCwDIuTnkVpV9opzh3ooaui7AI1/dNXKP/TfVMvMHAw+qa1+dLciUDL43k9uEPf9hV0CuvvLKw2ZkmJydd4gLooBe96EW+bxejsEmMtN5777328pe/vDC5OAIzqpM8xdmpjPk6I5oCgHTipelgV6uMCXCw95OJXS5XKce6Pnlj7aOv+UNCa6UNuTkNshynfBfP2yIsONxBEfp2dqJyFhzm+l+sLYyBjLi3Zl1ZP6g3C9bX1FlfWDcPvzQknzBbmDhlsvTPzavPcuEJ307ZYDK/4kHuijWLER9cu1eszmmOc8+UguNZf6AQwKSLc5EQNW2Py1dNAHzFvRP+cVM8+5IsNcJKRR+V1k5xl0TpdluXtBESttKA9EyE8qL/eo6UpQrsH8KCy5OMi7fye38P0kF6Cs78CICpcZWyPuEs4w4v1biII+22NvRE0XoOFPWGyibOwROvQ77GVX+64p7X9AGK4jmuwUSoXHTmcGfPe/8YEA/5i52cCby4YqdI4t69b1nz+qp1KeDWLYGd7uk/161St7sHGZpUGLzuU6Kf/umftj/5kz+xv/iLv7Drr7++MDXvF+vq6vLpHu9973vtzW9+swPa448/br/yK7/iI63333+/z5+D3vnOd9rHPvYx++AHP+gDFL/wC7/gQMgABKDzZISaOjg4aCPjlwXQFJSNxF8sbp3SPNtJQ8JTnb271z8uaU2F56Ha6MWuAunWs5RKUh9YceshlYzLDx7Xdks9FpWt3lyU77SNIhAnL93iMeONx5qbKqVR1U/JJe9ZexDTkLkPqjb04l8tCeSPLiW3TtVwCiqlGYrHAPma59LbFjc+wkfDlhN4fWPd09LOAntRlk2UEwZ4wu32kD1st9e/wi7fKagIo3iCqk3HDQsbjHTLk9tW7fTkduEu/BZxlknGORjl/tK+8A4lsPtz9V+4dRtPJ3fKF3/M58I+PIniiQt31Gnckjaeo01VbGV5wRZOn7Gt5UXl9YZ/7NvaO629u9c6evvtvm98zWZmZrz97zrSyzxlwlsj/oM/+AO3X1paqtx6662V0dHRiqS0ymWXXVZ561vfWhHAuX3S8vJyRZJgReBWETBWbrvttvPcXIgeeeSRhunY4z3e428vSzsrWuXuoqclwe0W4qvBKCyS4a78elwCxFQcRqvpXtixz3OPnjY92/MX+Jifn/cpXmUtarfQsxrgqBwAG6rqXuN7Zmgvj59Z2svfZ5Z2H+Tu0R7t0R59i2gP4PZoj/bokqWW9zLc+SwmRlu/67u+y6d47NEzQ3t5/MzSXv4+c/Ss7oPboz3aoz26EO2pqHu0R3t0ydIewO3RHu3RJUt7ALdHe7RHlyztAdwe7dEeXbL0rAa43/3d3/WF/p2dnb54/+///u8Lmz26EP3d3/2db2HF7HPWHv75n/95YRPEuBOD69iztpgRvq9//euFbdC38jyNS4ku5rySvfz99tGzFuD+7M/+zM90+NVf/VW788477VWvepVvssmyrT26MHF2BlvN//Zv/3Zhsp1+4zd+w97//ve7PRuVsrXVa1/7Wl+Sk/StOk/jUqOLOa9kL3+/jcQ0kWcjvfSlL63863/9r4unoBtuuKHyy7/8y8XTHl0MUQXUkIqnSmVra6uiBlf59V//9cKkUllZWakMDAxUfv/3f9+fZ2ZmfBMFNT5/hk6cOFFpbm6u/M3f/E1hskfQ2bNnPY8FfP68l7/fXnpWSnBslMmWSuXzHCCedzrPYY8ujh577DHfMr6ct2w0+upXv7qat0/nPI1/qsQaUyjPK9nL328vPSsB7ty5cy6q1+/8e6HzHPbo4ijz70J5y/WpnqfxT5EkQJx3Xsle/n576Vk9yBCbAtaIClVvtkdPj55O3u7l/3ba6bwSaC9/vz30rAQ4RpZYv1f/NbvQeQ57dHFEhzd0obzFzVM9T+OfGu10Xsle/n576VkJcIjvTAspn+cA8fxUz3PYo+3EtBsaWDlvaWyMDmbefivP07jUCCnrQueV7OXvt5lUIM9KYoSJkaYPfOADlfvuu6/y7ne/u9LT01N5/PHHCxd7tBPNz89X7rzzTmeqwPvf/36/f+KJJ9yeET5G9dRIK/fcc0/lR3/0RysHDhyozM3NuT3ECLYkk8onPvGJyle/+tXKa17zmsott9xS2djYKFz806R3vvOdnnef+cxnKgKlKrONf9Je/n776FkLcNDv/M7vVC6//PKKJLrKC1/4wupQ/B5dmKQ2ObDVM+dmQExl+Hf/7t/5dIaOjo7Kd37nd3pDLNM3e57GpUqN8hXO80qgvfz99tHedkl7tEd7dMnSs3oUdY/2aI/26EK0B3B7tEd7dMnSHsDt0R7t0SVLewC3R3u0R5cs7QHcHu3RHl2ytAdwe7RHe3TJ0h7A7dEe7dElS3sAt0d7tEeXLO0B3B7t0R5dsrQHcHu0R3t0ydIewO3RHu3RJUt7ALdHe7RHlyztAdwe7dEeXbK0B3B7tEd7dImS2f8fF5AEoSY5OrsAAAAASUVORK5CYII=;" vertex="1" parent="1">
          <mxGeometry x="20" y="160" width="157.48" height="160" as="geometry" />
        </mxCell>
        <mxCell id="a9jTL9NMfUKS2hj44hUL-30" value="" style="shape=image;verticalLabelPosition=bottom;labelBackgroundColor=default;verticalAlign=top;aspect=fixed;imageAspect=0;image=data:image/png,iVBORw0KGgoAAAANSUhEUgAAARsAAAEMCAYAAAD0/hICAAAAAXNSR0IArs4c6QAAAARnQU1BAACxjwv8YQUAAAAJcEhZcwAAEnQAABJ0Ad5mH3gAAHBqSURBVHhe7Z0HmBXV2cff3WXZpVcVFSvYEEUUsRJ7790oGnuMLcbYYomxRmOMGj97j6LGhsEGKir2ggUsWOlFQHqHZe83v7Pzwuww996ZuTN3L8v588zDvbN3Zk55z/+87ZwpyzgQCwsLi5RR7v5vYWFhkSos2VhYWBQFlmwsLCyKAks2FhYWRYElGwsLi6LAko2FhUVRYMnGwsKiKLBkY2FhURRYsrGwsCgKLNlYWFgUBZZsLCwsigJLNhYWFkWBJRsLC4uiwJKNhYVFUWDJxsLCoiiwZGNhYVEUWLKxsLAoCizZWFhYFAWWbCwsLIoCSzYWFhZFgSUbCwuLosCSjYWFRVFgycbCwqIosGRjYWFRFFiysbCwKAos2VhYWBQFlmwsLCyKAks2FhYWRYElGwsLi6LAko2FhUVRYMnGwsKiKLBks5Ihk8lIbW2tLF68WJYuXWq+W1isDChzhNVK60oCuqqmpsYQzcKFC6W8vFwqKiqkSZMm5uAz58rKytwrLCxKB5ZsVhKgzSxZsmSZNgPhQCx85m+A7xyWfCxKEZZsShx0DwSDRgOpQB5qRkEmCn7nJR4+W/KxKCVYsilh0DWqzQBIgoPvfrLxg2s5lHwA10I2lZWV5loISO9pYZE2LNmUKCCURYsWmc9+bQQC4W+5yMYPL/lw7++++0423XRTqaqqqqf5WPKxSAs2GlVigBDQZqZMmSJDhgxJzOzhHmpSodlMmzbNPAvzbMGCBTJ37lyZPXu2+Z/vlMGrFVlYFApLNiUEJRoIQAkmG9EkRUBKPqrV+Mlnzpw5lnwsEoElmxKBmk1KNAx+yKdY4JlezcdPPpCO1XwsCoElmwaGajM4fPmsZhNHWmTDvfPBTz78zznK6tV8+J+cH0s+FvlgyaYBweCEZNAegNc/k4tsOF/sge0nH3VO5yKftMjSYuWEJZsGAINQw9f8rwPZi2xkw8D+9NNP5d1335XPP/9cRo0aJbNmzYpFPoWQAeWDcCAfDi/5zJ8/35AO5VLygVAt+azasGRTZDDgGJB+s8mPILIhQvXBBx9IixYtZJtttpE11lhD5s2bJ8OHDzfk8+WXX8qYMWOMhpFrYAc9r1B4ycev+VBGiHH69OmGfNQ3Zcln1YLNsyki0D4YfGgz2UhGgQZD6HufffYxg/KHH36QcePGyeabby6dOnUyZKXaEH9nQM+YMWPZwb3btm0r7dq1MwcE5X3em2++KTvuuKNUV1e7Z9ID9X777bdlhx12MEREeSmLmmWqGXHkahOLlRuWbIoAmpiZHJJh4OUjGoDpwQDt06eP0Vy4bquttjKkwWcv2fjB39EglHhmzpxpBrSXfD766CMz+Js1a+ZelR6UbHbeeWdp2rTpMo2G83zmsOTT+GHJJmXQvKrNAAZPmAGEqfHWW2+ZgbfWWmvJJptsssw0yUc2fvB7TCslH3wplGu11VaTjh07Svv27U0mcVqg7mhpSjZ+qAha8mncsGSTIhhkEA2DKIw2o+C6b7/9ViZMmCBbbLGFrL322u5f6hCVbPzQwQ+JoQFBRM2bN1+m9aABBZFCXOjz0NIwo/JBCYeDumq7WfJZuWEdxCmAQQLJQBhoKFGIBt8LJg5JdGD11Vc3/ycJHaTrrruu9OrVS37zm99I165dTTlHjx4t7733nnzyySfy448/yq+//rosNB8XOp+FbQN+R1kopzqb+c59aE/aSJMMiXxxDkLT51iUJizZJAxmYoiGAUpkiM9hB9nEiRNNtKlDhw6GBEAxBhCaAubURhttJL179zbmzvrrr2/q8tNPP5lI19ChQ+Xnn382ESUGdjHhJx/Kq+SDbwvygXiUfND6LPmUHizZJAQEGwFXQdcBEkbgIaavvvpKRowYIT169DCrsRlQoCEGDCYUGhV+ou23395ErTp37mzqRhnfeeedZTk+OJ8hpVzQOoQl3XzIRz6YhlOnTjXRO0s+pQNLNgkAIUaDQaj5zGDQI5+AYw5gNjEodtpppxXMprQGSJSBj/OYcPtmm21miAcC4jtl/vrrrw355MrxSasOiiDyoRwjR45cRj58p60t+TQcLNkUCHXWop2o0OtA5nO2WR9BHz9+vCEaCGbbbbetl/Oi90hzQMS5N+UiXI5zmZwfCJKyY4YxoCEdzC7C9WgWDHR9jtYpbXjb36v50Bf4dygTxGPJp7iwZBMTCCYEo4LqJRkF34PIhusYjCTq9ezZUzbeeGNzvRdcy1HqA4AykvuDmUXkjIgTdSKihX/ns88+M85mgE+KwV2MOtHu2h/8T/ui+UA8HJyj37wOZw6SKelTrrfkkyws2cQAQojZxMHnIKIBnPcLLLM/TmAEGq0AjSAbuGdaAh9U3iTAfVu1amUiXfifIB98UIDlFhAP9SdSN2nSJGPmpAHtlyBQRv6mxAMJcQ7ygWzU4YwGxHf62ZJP4bBkExGqigeZTX5wXjUbBBWfxscff2zyZog25Uuk4/qVXcBpH8gHbL311oZ88P1Qd/KIPvzwQ3OwTenkyZMNCScBr2aTD9qPEI+G2jlHH0M26vPxk49FNFiyCQkGPUIG0SBouUhGwW/0OnwZOCxZQNmlS5dQA4HfpEk2xSIy73MYyGQs0wYQLuRDyJ3zkDE5PhAyJiYRJdouDngm7R8HYclHzS5LPuFgySYEECQECmEDYYgG8DsEErOBe2A2MdDCIm2yKSaytRcD2pvjA/lssMEGpt7k9eBsZksN8n3YN1n7IB9o7zB9FAbcJxf50MdW88kPSzY5gMBjx6sTWIUujBBzLVoQAwb/BSZE1CUAPCctsglTh6QQpQ4MZm+ODwS9zjrrmAH8/fffG/LB6YyWyDov+iUIPDOtOqocKPnwP+eQE5ZlQIpKPvikLPnUwZJNFiCszFwIkApuWOHlGpLeIBtmaY44gs812QZqnPs1JOKWNyjHZ8011zQaxDfffGPI54svvjDLLLybiNFuEEIxQN14Fgd9DvkASMZrdnnJJ1u/NmZYsgkAAsuaIGZSEFabAYR733//fXMN4d9C9ovJRTacL1RgiyXwPCcpcgzK8WH1OqaMbiI2bNgwQzzFHtRKdJhZHJAOB58B5SH0D+msirsYWrLxgA5XbQahIDoSdnbkWkwmVPwNN9zQ7D2DoBUiRLnIxqKufbw5Pqzpwlxl5TqDGAcz5MNSEBIoCWmn2Z5esvGCcir5qM8HKPl4fT4a6WyM/W7JxgWdS+frbIhghLWzERAWKhLKxcm53nrrGQGDqMLeIwhpkg33LhaoQzGexzM0xwdHPL4ecn04B/HgaEbrxPwiwRATJ0moXy9fXfm7n3xU/rwr2vncmMjHko0DCEE7FUGAJBCAMESBMxABRmjwKbRp08b9S+FkUej1pYKGqAPPpA/pD1awk9VMpAvzC1OMhEKWihApZHHpL7/8YmSgECAvqrVEgZd8OJR80LCVfI455hh544033CtWTqzSZEOHMpsgZAiK1zfD52yRDsDv2e8FRzBhW2ZQBMWLUtZsQDFJQNu1WKDd/c9kEGNiYeaS7wT5EPViomAdF5MGBISvjmxnZCMKVIYKAWXm8JMPfqi0sq2LhVWWbJRo0GaAl2hALqKg01HJmQ2JjqCuBw0mzhUyoLNdH/SsUkYxSU3BM/MNfAYyewexcRiOZshHEy7ZPgN/T5RNxJicCiUbP7Sv0XA0E3tlxSpJNgiF32zyD+BsZIPtzwzINppsGJ5LAHIRVhhQprQGqr++aaPYz6Pdoj4TDYfIFgtjt9tuO+Nwxv+GvEA4kE+uTcToa7SQNADZ4AxfmbFKkQ0CiDajuTNBJKNQu1kHO4LE+h2WHZDzQfTDbzb5wb3TIBsiGCS1xVH1GwLUodhkQ7sX+kySMHk3FwtJmVg4WNfGRIWfB/LxvigwDc1GQZ9bzWYlAcIHyWQzm/xQoeE6Opr1OjiDETjyPMKAewSRRVgEkRUEw8JFykQiGwKv6fxRt+wspGylDtot6YFPzhQJhd26dTPBACKP3hcFEuUiwhXmRYFRgNxytGzZ0j2zcqLRkw0dzgCks/ifARxGCPU3+GWIWLRu3dr4Z6J0OPfwk0UUUFYVWP5ncSKOQoQdzQph13R+6qezLRm1CDxRjFIgFMpQqJYRFWk/k3tjSqPpdO/efZnJhSmGlkMf0BdBm4hFBWQGLNmUMOjcsGaTHyoYDGCEiZBpVHvcSxZxoNejtuMrIMkQzYrZVaHp/Drb6q55CDwqPquo2bqTvBJvNCPNgehHIW0QF9rfxQLtCdHgV9lyyy2Ns5nETkLvaMT0H74++oJ8LDTTsO0CUQHrsylReM0mBCEK0TCT6O5yZKQymOMgCc2GsqBZIcgQTa7Zjd8jkGg6KvBoQMzA5JVgfmloFy0vislVKMK2fVKg3RvimUpw/I82jLYD6fC6HCYt+odJA7Pcu4lYrhwfiIk+LCZ5poFGRzbMFnQOswmDKQrJAH2dChmoXFfIy9q4Pu6sznVoIvhlWMgZlMeTD9Sd9VnevBIN7dI2OLuZcXE2h3lLQlxQl2IPfJ5Z7MHpJRs/tC/oSyYwyMe7iZg/x4eJUoFmA0ml0YasnD/hhBOMBsbBZ2QhG7AULrnkEjOJUSb8lyeeeKIZN/nQqMgGAaMxIBoGUhSiYfCh4mI2MbARBMymQgYgz49zPdoYvhmcjaTekwGbhKBBVhrahUSZaREWnsP6IXwMPBcfAxpVXKIsBdDuxSY4ZCisqc3vvJuIZXtRIH3y5ptv1stMTxLHHXecGSsDBw40B58hnGxgIsc8v/LKK83/zz//vPElHnzwwe4vsqPRvH6XjoZoEDL8FTjmdt11V/evucHMQSMzGCEafdk+79rWzbvjYOzYsSYvB60iLCgLzkVmPASSpDPIxgu6TGe+uAMK7Q0/j9aNe/JsZjqiWsxutAcDgoPMW8oUB5A/0TJyV4oFTEZC1pS7WGDQ0R9klBcK+pc+eO211+S6664zphb+uD322EOuv/76RIiUiRUZQKPSvuEz5jppHmRXhwHRUIIVBCWYHLNhpddsGCTqBFY1lkEK+eQD17IaGMFkwyYaTIkG0KHF1GzUr0I4ldmOeqQ5F3jvTV11ESM+BkwuBBGC0VR+/AyaTRumfRVp1iEbGkKz4ZlhNZt80BcF9u3bV6699lozCZ5zzjlmAkiqXsgaGpN3EiDiyjkmo7BgcqdM+SbllZps6FyIxp87Q4fnG+Rcg+nAbMTgCnqdSpj75EJYsuE3zDLkaSBUWhbq0hADFVB3VfM1lR9/AyRDm+lbMXXTqnzlLPbApzz+/kwbtE0az0TjREPDvLnmmmvcs4WDtA7/SxEB5/hbGOBXvPTSS405hkM8F1ZKskGQ6Fi0Gf5HkHVwAj5zPtsAIOEK5qahCBfjxwgC9ymEbMKQBWXANsd0oSzezm9IsvGDaBhlwzShnMyAaGDk8uDnwbeg+8b4w7oNUQeeWWyCQ1bSIBv8Z1FybP72t7+Zuuc6CAwAPvsRtu2Y6I899lhT77vuuss9mx0rHdnQEGo2aaP4G0ZVWT9R8Hv8KJgDOEaZsXPtpFco2eS7Hl8GpIdXn8FLeNML6kWZgxBGGHKh0OsxN0loIyqhOSWYYURSaF9UdLS1MT//tCz9oJig3RvimUmZUV5A3lHIBnOLts91EBwgpYMwvB/4GZlIcoExePTRR5ulGq+//nperQasVGRDZ0Iy+XJngsiGxmEGZhEdoUc8//mEMS3NhnOEmzFDMJkYsEFCmu36pJDUvSknwoYjW8O6OBen/bRIXvvHdfLK9TfK9y98Lu88/1nkJRVxQd3S0DJyIS0zCs2GCSksSOpEA811MMniCMYE1pwywETBObTXbFCiwX/HHjsEMcJgpSAbBAeCUbMpG8kotMNVqGk8NAjuQSOGbpwCySboejqKaBNOVxzSbGmZDWmTTVqAOGnj2aNGS2bpIlm6cIrMn/y2fD/wNnn9nttk4NNPGqJNc0kF7Z5LRtIAz0yDbDTPJmmQ3rHvvvvK6aefbqJQHHw+8MAD60WiIKf+/fubz4yhI4880phh/fr1M2MM/w4H4zMXSp5sEEQGKIfOVvmESH9Dw+DAhK3JqiUEHSV8y30KmYX9ZKG+Is5BevlyJ9Ikm2IMxFkTP3M/1SFTWyOzRv4oEwa/LN/0e0C+HvSSfPzO21mXVMSFtlkaAz8XIJs0zCg0m7RWfEMYaNZ77723Ocg8f+yxx9y/1oFEQyZsgE9uwIAB5n9MZ5bO6JEvglXSZEPn5dt3Jhv4LdEdyAbfDFm0UQcY9/BrJlHgvZ7OgfTQZDA1cLjmQ5pkkzaWLFooC+dNdb+tiAWzZsiET96Tkf2fkGnvD3ZI6AeZMG6s8fVoJi2+A/o+KrTNi0GoXqRlRulyhTRAxPHxxx83EyEHn/0hbGTwpJNOMp8xlfkedOTLaytJsqHgaDIQDYIThWSA9+VlaBBxE7uSIBvKwazN4CFBUJcLhEHaZJPmvSurqqXXoVdKZcvDpLySJLfsojblp+/lmwHPyDeP3y8V436S9k3rlmXoGzGjLqnQeqUx8HNBZTVppKnZFBMlRzZ0GESjM1oUokHIEFCEE82BgV3I2iZU4kLIBrKkLvglID0cd1GQNtmkjcrqJlJRuYE0bXmQVLX5vbTrvI+075w9w3Txgvny3Ttvytt33SLDHTOr+expslX3zSMvqdBzUSaoJICspGVGpeGzKTZKhmwQELQAzA3sdgQlCtHoNgxcj+MV30whRAF4ftx7EAJmyQTlJ0PTm5kcFmmSTTEGYmXV8oFXVt5MmrXdVo646kY5/MobpNtue0vT5tkH0IyJ4+Wjpx+XZ6+4QL7u/5S0rFkkO+6wgzFB0VRJG9BXs7ByGgelrpzWPitGHb1Iy4yCbFb2vWxASZANAwpNBm+27nYWRVA0XwVtRh2vhWolIA7ZUBfd5EpNprgCGJZsFsyeJbUxfBtpEZmiSVX9ei9ZVJeA2XG9DWTn40+WvrfcJbufca503nxLKuv+qj4yzgAe/cWnMuiOm+WJS86Vbwe9KK0rK3IuqcDkAoX2fxTQljwvabLhvvhsrGaTAOggSAZzA0QhCTpCX6dC3gyp/up4pdPVbxMXUcmGeqBdkShFkh5JU1wfd1AzMHM9n/tO+uE7ee7qS+WjZ59wz5YOKpvWNylqFtWvS5PKptK1946y/5/+Isfd+G/pdchR0qrjiunzigWzZsqwgS/K01deKP/7+1Xy4wfvSMvmzQKXVABMLmRD9wiO2w9hoPdOw4wi9G19NgVCiUbVTw46K0wEAlMr1+tUuE8SZBP2HjgvVbsiWQrh0PIUQjbZwD2Hv/ayvPTPa2W+Mwi/fuNVGTn0Y/evpQGvGQWWLM7eli07dJStDzpcjr3hVjnwwiuk6/Y7S0WOiN3kn3+Qdx69Tx6/4A/y9kN3O6Q7wixSZEkFhEP/65IKBmu+JRWFQuUEmUka1oxKCHQ4HaQDC4HJN8D1dSqaBRnE+lE0pGygXPnuQflJToP4CAuiXVEHoIJXCNlke/7sKZPlsxeekYzn70MeuVdm/jLJ/ZYbuYgsKfjNKDSbTG3utihz2mytTTeX3U87W0645R7pc8JpsvqGXd2/roiaxYvkB0fDGfjvm2Wpm1RGm1G/sEsq0ERVs44L7aekyQbZibpcoVTRoGRDx3iJBuTSSOhQQsjsPUNWIwlIOrD9SEqzyUU2aGDMmPgI2BLCv8mVCl6ue+QC98pGVG3W6CQ7/PZE91sdlixcIK/ffavJcQmDuCQYFn7NBtQsCd8WTZs3l8122UMOvexaOfLqf8iWex8g1a2C1+B06b2DQ251CZvUyz/oacugJRXID5MFWk/ct1QAJTj/cwsFTm/kzJJNAvAOTkDnB5lROI1Zw4FWgzbDjJULdHqaZINqzsyIGZgtl0frVohmkwub7LybbLzjb9xvdZgxYZy89/hDqRNJGPg1G+D324RF+7XXke2P7it9b75T9j77z7LeVtsYLUixyU7LE8p04OcCkxFLKtjoiuglb0co5C0VyFrSRAMwoYAlmxQQpJGg5uIPQQWGaMI0fJqajW5yhX8AjSbbEggVvkI0m6BrGRBoeGRHdz/wiBVyV3788F0Z8c5g91vDwe8gBkSkCkG5Mxmt37OX7HPOhXK8QzzbHXmcIR6vqRWk2eQD+Vhx3lKhoJ/SIBsmNeQgrQziYqKkyYYOZJbBqYcQRHmdCr+LO8gV/ntoeQjPY8KhhucSMJ1d45aD6/0zKrMs6fwIPNreCId02myzo1Q0rU94Hzz5qEwdXRcCDkK+mT8JlAmh7vrlz+UkjormbdpKj30PMsTjrQ/tXUj9uJZQc5i3VOiSCmQ2rGxGgYa9i9FfaaMkyYbOQ32kQ1l6gDbjfVdSGEACSWo2DG7vJlf59vtQcI+4Jo3/WiJvtAkmJI5oCBj1f7tddpPuBx/p/qoO5N0MuvNfMn923QK6IMQtV1gseOUVqVi8wP1Wh4U/j3M/pYc4mk0ucC/WCwW9pUKXVEA8yG3YJRVhoSu+LdkkAH8j4rNh9mb2wA9C+DJOQhOklRTZ5NvkKheoXyHCx8DhIFEQNZ6Z1rsXD//j+Nxu3wNli732N+cU82dMk/633GDMADYNQ3DTJhgvmu29t1Rk6m87MPu1N91P6YE6pjk4kVF9SwXywGSoPjv/kopC27yxLFUAJaXZQA6opcwOqK3stxF3hkrCjEJgiQYwWHEksrtZVFXZr51EAdfSJjxf84lyaVTbHfFb6bRR/R3x500YK7O/+8poiCQcQpqYgt71Z2mhvFkzqWxR37ybP+xrqQnYHS5J0O9pko0fpGCQtQ4poGl6l1TQ5rqkIt/L6IJgNZsUQKNqdIeOCmumZIMO1LhgMBIGZUASrfAnDYaFakdxgGCi5YEwjnGcp3v8/jxp5gsP//jWIOnYtGLZi9FIPKSdeV0Hg4HQfVoZttsevqFsMeJ+6fnlbdLrs5uk/a/fyNyn/uv+NR1Qj7iTVFzQxzwTGSGQEfSWCpIJo76lorEsVQAlYUbxRkCIBtUUEyEJoS/EjGJfD8oDuE++Ta5ygfrFqQ8ROAQSYgi7/w1o0ba9IRwvMfL8wffdYdL92b+ENoa4MANYUY1Aa4atRlyizsDZsE6vztK+x2rSbuaP0nrOWKmsWSDz+veXWmdySQvF1mwAzwzSejkX5i0V2ZZUqGaTBNiUnGejieF7or9zYciQIeZ3/B5/1T333OP+JR4anGyYXTmYBTTJqhCNREEnx9EodJMrnLDMSIUSX1TNhudBMqwY5z3RzIhRBw4ZuL0OO9r9VoeFc2bLG/f+u96CTQgMssE81AxbBBt1H3NLZ+BC9w1eesABkvGS37x5Mu/5591vyYM2bCjNJh9o86C3VEAq/iUVuBM4n0SOzX//+185//zz5fLLLzf5Q/T3fvvtZ3x5QYD89t9/f/M7fn/ZZZfJeeedJ88995z7i+io+BvvfWhAQC4MKtUeiPqQTs65QsB90A7C3ofBhF1NEheDjh31OMd3NIG4oDNJHgszO2G6kR3N4GYWpG2w+4PeMohwM6iyEVGnLhvLr2NGy6zJy5cvzJs+TZY4Gss63XsY7YU2V0HmPhAbJiwERP2Z0XBQ4ujUmZcyUi4GTVgSnMFSgNFjpNzzPuglzv1aHn20lAVoA4WCctL/hZriUaCEnO21QNlAO+Lgp6z0M1oQfYuJdfXVV8szzzxjCIe/c8TNtzn11FPlAIf0//rXv5oysvfwY489Zu695557ur9ajhtvvNH4CV966SXze7RrLBD2Ij7ttNPcX0VDg2s2CDxCrUAjScJxySwTdjbGjGAW929yxT0Y0IVoN3qPfKDTCWvzW/wzupAz7rPJrt3t1D9Iq471hf+r11+RkZ99nPfeOgPj49EkN3V6ktaP5oNGysSQr794zmJnlvSidupUmT9wkPstWfC8htBsgsyoKKBPvEsq/v3vf5t9gRkfvHL3rLPOcn8ZDfjnPvvsM3MvL/hOPwYBN4L/9/vss4/x8cVdR9bgZONHsc0ool80LHkU/k2uVGDD3CcbEKB81zNgIRoGNzYyAx0UQjagqkVL2fPM843j2IshD98rC2dOd7/lB+VAM/M6PTEDaGOcy6j+CDPaD/6uoDJnNuoqTXv2dL/VYY4zs3oXkiYF2psyFxM8M2mCg3ggGjQPTKwnnoi3jYg6ov2aHt/RXoLA+aDfM7FwvzgoObJBgGmYQgYZ0PtkA/fHH4HZwuyNf8YvLEmQDffIVhfOE/FCkMiOxmflHSSFkg1Ybf0NZaff1m1WrWDB5shBA6TGmfHigLbVdUWaZ0LSJdoZ7UlqP1nWGuqlDtSl1Ql93TvUocYhp4VZZtZCoM8rJpC1pMkGeFd8MxEXAn+b5GunoN+DuG3b4GTjLziCTKW0YnFBx0MSQfdBrUQd1NwVfBRBSIJsqF/Q9cwQON6wgylDUIY01xbaDmDT3+wuG+3Qx/1WhwXTf5XhA55J5P7MvrQhuVHkmZB4iIZI3Qj1Qjo4Oxc4hN5kgw3cq+ow57HH3U/JIQ0tIx/SemYSSX24BRhXfi0GjdqvvShYJxb0ewgv7HvX/GhwsvFD2btQvw2NC/zajW5yxXPUN5INSoS5NKR8QAD9A1qXYnDfXGVIimy4T5++p0q7tddxz9Rh/JdD5bt3k83opb744QiVskgVkwtzgMH47YgRMnHbbd1f1mHx55/LYkcLShK0WbHJhr5UmUsSSZANi0wxz3lNrhd8xx8XBOTS//vXXnvN9Kma+VFRcmSjQlLIAAfa8apVIIDeTa7wPeRTSxmklCdIMwkL//XqI2K2QQByvf0hKbIB7PWy1x/+JJXV9Tde/+CJR+XXMaPcb8kDwUTLYTbcaaedZKNTT5FM+/rbcUy8665lCxqTAG2mE0WxkKZmk0To+4ILLpAHHnhAHnroIZNB/qc//clESs8880zz97/85S9y4onL90fiPOOF6/g91z344INy4YUXur+IjgYnG79Q8B2iKJRsvKSFEJO3km2Tq1wolGx4DtczAFi0h08D/xAO1nzCybXZyCZs+b1o22lN2eWk37vf6rC0ZonZcGvRvPSS7ADl5WjVvr20Pf5492wdKj4dKqMdTQ9HMwlubJ0RZg+ZbKC947RPISh1sjnmmGPktttuk2uuucZMtCQTvvLKK8tSQzB1vTk3JP/x97ffftv8/tprrzXRsSOOOML9RXQ0ONkEAY2j0FkOYaPzdUsGHJWojLpgLiwgvkLIhjJAeJAM+SpEvLL5iLwYO+B9mfP1SKmtKYx0/diw13YrLNic8+tUeevBu1OJDAE/abQ4/HAp85gGZc7fu37z7bIENyJakI46mvEd4GcLC56XxsDPhTTMKOrhdRAXCkLnEDljgeghy1cUjzzyiCEWL3bZZRfTD/yeSKNqQXFRkmSThGYDIBwiPSQl5drkKhcQ2kLIhnqgjpKbANnhv8gH9nx5bbDIwKfny5gXq6TfOa/Ki//4RN554kf5/NWx8sMnU+SXn2fL3OmLpHZp9NmfBZstO9Xf6XDs8M/ly4ED3G/Jw6tplDuDp8Vhh7nf6jDvpZek6cKFJnNb95AhsxnnMyQN8WACox2yqDRXnzQmzSapDOJSQKMkGzoeO5N74KjMt8lVLhRCNvghyEnAZwHZhX075+zvl+/5kimvkAUVrWXyhCXyw8dT5POB4+Sdfj/KwLtGyAs3fS39Lhsqz90wTAbd/Z2899RI+XLQBPnxk6ky6afZjsay0DGTViw7eTdd9jlYmraoL8RD+z8tE79L1lkLgsyhlsceQ0e73xw4s+fcZ55xv9S1O1qorinSbTuZZVm/hcmFaUzEi03EFDyrtrYmlYGfC8hI0poNSMqMKgU4GmyAJBQZCJAXZPMiWGHMDT9IU8dkgWjQJpgdo7721gtCt+STkHAXFjQpaiezMJoMg4ZFj2HxU7835O1Por9BMxDOBN+8daW0aFclLds1dY4qadG+Sn6ZNlaqymbK8OcfrEcGzVq1lsOv+rtZ0JkUIH60Sojfi+l/u1rmv/yy+80hmDZtpNNLL0q5J6M8CEuXLnS0m59k2rTvHDN5lCM/ExzTe4ZUNJnp1GWKVJQf5PR538BlHmkBOSFXyv9S/kIAgbF8gQWbkO7KjpLQbPwqb1zNRje5Yv0I9j+RkLhaiSKqZoOvCdMNZxtbUxDWjsrn80ZNlPKl8RLuVoDz6PmzlsjU0XNl1BfT5as3J8lHz46W0W/VyvdvtpaKqvqhzwVzZsuLN98i476Z7phohbWdF0FmTau+9ZP8amfNkvkDXjTttXjxVIdIvnA0w5cc7eUe+XnkFQ5pnSJffLm3fPb59jJyVF+ZNfs6qc30k8qmb0tZ+TCnn8Y41y5wNJ2xZu0X5itmSDHmU2QkaW0KjY37WjMqRUQlG4SJSBPOLLQQksu4R6HmGIhCNrrGCk2NPAXyTaKSFVh97Puyy7t/kp3fv1R6ffYP2XaNkbLtwevJZjt3knW6tZN2nZpLk6bJdF1FdW/HrKqfaDd78kh5/e6HnE/J+D2CBjta56y2bWTpVj3cM3UYe9//yScfbSdfDttLRnx3skMqV8iEifc4E8lLMmfu5851U9xfZkfTpnPMACWnCkeobl6VxPuhsoE+TtqMwoQC1oxKEEQavMXAFkc7CbPaGuFhST4RjJ49ey5bPQ7YM1hXMMcFTkmye/PdA98MGg2/9Ya12ZsWwiPcHQa0w5g+v5Fad9MssNot/5RWvpW51HvurIWycHaNcRTPm7FY5s5Y5ByLnc91/y9ZGI5oM7ULZNGcfs6Ime2eqQN5ORts09v9Fg0MPrQKVmDrzoCA7xwQM1ht8hTZ/a23zGfFC/tsK9sc9KFjDsXVrFaXzms/YvqecvA8tF5WZlMmTFvMEw4+J6GRvOXUAW3au7auUDCBkovF5JU0kTUESoJsEETv7M8sROPi2M0FCAb/DMREBMPvgGVWw19TyHYV+e5B8xFOZI0Ta6z8pMT6K4QF31EYLBk3TsYdeJD7rQ5rv/ySVPnui7lGu+USwsULIKI6ElIC0v9nTZ0vXkuttuYXWTyHHfTqCKpJVQc59LJLzPuasoF6oT0ogfiPMBrdTzXt5ag3XpSNZ453zzjn2q4lsy+bK51a5l7w16RJO6mqWts5Opv/q83/nZ02nyFrr72lSbn3gzJDOnrQf/jUIB4SD707EIQF9SRsTNJinIhnNuAIZysI2rjY0bU0UJJkE0YbIAoBKZF8pDvd+wERoenwm7hg/RJOv6B7UEYEAqFFqwpyDkJCzOKQYRjMHThIplxyifvNIZUWLWSDIW+vkCLOYEbNZpDEmZnRwtq2cmb2Zh2WaUWjPh8i44b1l+rWm8lGOx4jvQ/ravKUlDz8xIIzvhBMWtpKXl+ysew0Ybhc9unyNVIz1q2Whec5WlaLpi6Z6NHZIZTl5FJREZzGz7o3AgzZ1v0oEH3qp1oPk5dmO9Ou9GcYjQLiJ0mOvJV8WelRQH7Y7373OyPrlmwSgp9scg1QBjhqOfY3rzPJFWmKYo5lA/dgbYo/GoDzDiJCGMmwzDajoQoj0JQ1DKbdeqvMeuRR95tjtzva3ab9Hq9HNjg/SXbj2bSHzsocYWdWyKaDc91aHdaU2ROny/jR42TWtBmOOThVFjSpkTnlC0250xKPWbXV8vLizWSxNJHy2qVy3+CbZXTrTjJ/n+6y+4FbOuboFk6dV3MGWXQi1SUpUTeygjS8Wg/mPYSj7YssBQ16tCX8QrvuumsiJpli8ODBctFFF5lolCWbhOAnG8wSErfQFryAgNBWaHgGeD77mAHJTJPPHMsFNBcGMI5nBTMh5UBNz/cGiGx1yYaJp50uC53Bopi2++7S46YbjYlIV0HERFkwy/A3QHqUh4OZGWJU4uHvZU6z1s5aLLWO9lI7c5Fz1H2e/8ssqVxQJmVLHDOwfIq80fQr94nJgvbHNKEstJdxmjdrJZe8MU0mzl5ux1XVLJajd9xALt6r8BAvTnomh0JSHmhr5E2Jhz6E8JV4ML10AqAPWO+22267JUoKAwYMkJtvvtnIWmNASZANMwoztIKMUTQXEuEUJMihZfgdsLnATnJUD0KIC6//iHsx0PHDUAZU9Xzg9xABO6/lA8sFxjiqeO2c5euUJpx4gvQ+5xxTBnWE6ybUkDTtkJlbYwhlya/zZd6kWbLY+T/jkErTheVSubg8b0xpWtkc6V/1ifstOgjvQyIcaALez0wIEDafTVJeTa2c3m+4fDG+vjN6t407yK1HdJOK8sIHK+YHeU0QQ1JAPjEd1eSCiKi3ajxo22g2SeLJJ5+URx991GhNjQElSTaYCbqOiOIxm6MhkDQVJdEvqnM2CEpYCC+aEsKWzT8ThCDizIYlDjGNO/gQ91sdRv7lL7LNHnvJz59/J1WLKmT99p2lbHaN1ExfIEtn1GkqUlNYFy6WGvlP9RD324pAq/KSiJdUGHD5/BRMEmgCOM8v+d938uo3U92/1KFbp5by8Ak9pHnAu8HjgFwrJhiemRbwV6nWg0wgvyR+quaThKOYVdoDBw6UQYPS2T612ChJsmGTHoiCNHV8C6ipDPBs+75kAxm8hDrD+kuCgL3M83HGokVgvkWJWLBLPitqqUs+DLvzf9Ju4CApb9FRyps7R+s1pbbjOlK5JDk/QCAcZeKF6k+lqrJK2jR3tBTH5Gm3cSdpt0YHQyjUtxDzALJhEL7wc43c+1793fzXaNVUnji5p6zeKrkoDpoAEwxlLwYwsdDeWNcF+eDrQtuBdKg35QjjaPaDVdr4BZ9P8U0UxUTKUhwOfkGmY3DO6SZXLGCMSjSA+4QJv+YCmhGaCT4HMoKjhkYhqLBl6PiLY3ZsfZJUbXKgVK6zvVS0WS8xoilrViEVazaXym5tpekOq8mUzWtlYu+MjNx5sXy+/QzZ/Dc9ZbsD+8hOR+0hOxy5u2zWY3PjY8EMKtQPwXz2xs9zViAaNJk7j+meKNEA2jtJ30k+UD/8N7phGOu4cFBj5mJesY6LSRMtl0kr7PyOqdZYEvpASZCNF3QE/hkGedhNrrIBsvFqTFFAOfC3YNLR4cyUYfxEfiD0Yclmybxp7qcYqCiTsvZNpXyDFlKxVTtpulsnqT58PWl52ibS+sItpPUFW0jLUzaW5oetL812X1sWdqmUlpt2lJ679JYdd9rRmKdogcykmnGLhsmAKRQjptXI7R/UN51wzfzzsM1kkzWSH0z0XZy+igtkzPs8iIewO6YcEyUEhElH4ieRMpzJmOf5NgyDmArdpa+UUFJkQ8OjcjPA6bwom1wFgXvEIRuuQS3GDMOpGVWb8YIyhJnJltY4AjtzgvstGGUtm0hF5xZS2b2dVPdZU1ocvJ60+t3G0vb8LaTNpT2kzVmbS4tju0j1PmtLk207SFmXFrK0XYXUlNeaOvlJT8uFfwGyYZkHWzvgG8NPw2JStnZgGUjcdUajps2X24bOE//i87/s3VX6dE3OgesFZSymZkO7ZiM3ysFkxaJQXAG0r+5CgHzpmynwSeL897Yv7Z2EZhPlTZiYbHvttZdJG0CbZ9lNUj6jkiAbOoSGJYqA440GoQOjCrYfcTQbns8yB8rDrERnh9VMgoBQhbl+zK9z5b2WHWTmwhkyfdoPMn/km7K0d2sZ1W2+VP5uA2l7SQ9p/cfu0vrkTaTV4RtK893WkqqtOkrleq2kvHVTU1eexawKeUAWfNZBQDtA5pin/J+tbfk9szC5STjoETZmaSIxDApM2zCzMpgxf4mc/d+vZZ5POTqh99pybK/oK/rDgvYuNtnQ/mHA7/DlEHBgeQMH5ip+HrRK3TCM5Q9JkE3UN2GSnAjZsEsf/U04/6CDDjLXFoqScBAjuAxwtAjyWRDiN99801Q6bCcGgfuSjYwNHQY4+mhUWJ3sZZ5N9iYH/po4QHXGbqeTc+G/H/0sf311lPtNZPXmTeSdi3cx7cCMiNBBBHEGkRI3hKP/40OgnkSI9L5KTNnAfcgiJvrCgeOcqBSDR0PAWr7FhLifGC6fj6sf4t51ow5y25HJhLiDQP0YqEwUhWikUUAQgPYoJBABaF+0G5zMvO721VdfNake7A183HHHGc0zKpgwSLu4++673TNizLtDDz1U/v73v7tncgNNl21FeZtmISgJzQZ1jWxhVS/VR5Nv5swH7hVWs4HpSXMnGQz/jJIc90AI4iLM9ZiNbw0b6X6rQ7fObc3AQTvBtCQ6pyHWqKAM1AdtBzLAROScvj7Gr/VkKy/XEF3R90UhyBAWJK2+CMh91oi35foXhq5ANJt1aik3HbppakQDdO4stmZD2xQK7gF542h+6qmnzATFWyg1Yzwq6E+0kyhvwvSDuqF1JZGzVBJkwyDwbk6FoHDEGVheMMDy3YPGZPCRy4P5xoJLr6AiAPnIIhe4lw4APzhPaB1n7Aypry6Te0LZCZlDwpSB37Hgj4xSZtOoa5NwOKJBMuPjtMT5SNtz0FaUled4iYcyZKs/mgyaETO6+iJoueYD/yg3jT5K+lVeLydVDJR2MltWa9FE/u/ozRPLpckGbeskBn9Y0D46OSUJ+hczhsS+Y4891j0bHmjV9J9/jRjf/e+EyoZbbrnFyM3RRx/tnomPkiAbPxD6MESRD9wjF1GofwbVFd9EEHsXSjbZrmcgY7LR6b0dDeGHX+sTR7c168hHiRizjgGNOUfeBrk72Pf4uSBKzJtspAZU+0DQdL8fQPn4zHMgIfw9aJac5370AWUlKpWLeLgHptSUX3+R9rXTpLJsqexU8Y38rfI/slbFLDlj06Uy65exsbWzsNDyeSeMtEF90iA3BnkSDmJ/W9CvYdqHDOa//e1vxu8TZafKbChJsgEIL0JeCLhHNsFm8KH2MztjDmRbZ5UE2fhJAF8H63eoH+bI1IXlMn9x/XJ2X7PVCgKMgJBvRGQBjYdVxmhi3A/iGjJkiNHSIDBvyBpiIqKE0xcTKJeg8Uyvk1m1HqDE4zW3vG3DUoTxn9bfNH1MZnXZa4sNZZsuncz1OJez7R+cBBpKs0n6edSj0Dwb1obRd0FvtvRrO35AMKeeeqo8/fTT5l3jSaBkyYbZtdAZUAe6nyxIrsI/w6D1zvJB4B6FkA0D23u9khy2OaYMg/nrifV9G6u3crSZ1vmdm1yL34U68NoNzBlIgpA1xIMmg82Og5q/5dsAzA/qTttk03ogHA7VeiodaTqhbf0FnbM77yE91qg02hjryTTvhO8kS6KZQbxoZ7RNIW0NlGzCzNxJgTLnkqG4KFSzod9wDUR5EyZAoznppJPkiSeekAMOOMA9WzhKgmyCBIPOK5RsVABUgPkfRxt+Ejz0YfJ4GFiFlMNLVszk6oTGLNJB+/WE+mSzuaPVRAX3ImSN5oJJyMFzMa/4H8JBq1A7Pg54Rq7Qeu2MsVI97VvzXdFlp8OWEQCgvRlAaGT0AZFCSB/Com/QelhwilOUxM6ooK48o5hkQ921HZJEEmZU1DdhQjR8x1eD1o1WxEHqQ6EoGc3GLxxJkg33QXCZ6Wk0WB3/QhhwDyWLOKBeDDaiNHQ2YWx1QnOee88b87msWzbZvSIe2XjBwMWZDBjMOBnRKngeZcDJjNkVx8msYHCh5XjNreox9bf3rK1qIwtX72me6yUcLyAs/AGEY9npDgLCVMT0I2KCT43kNyXNfOA5xSQaQLlU1pKCkYsEyCbqmzDvvfdeo62effbZRmvW449//KP7i/goiTwbgB/AWxTUf8KqhbyOg/uR/UgjM8hwAHvD2mGA3cxsSwgyDhAYrsc3xEBS4aFskGDN0lr57pa9Zbuyb+X9pZvLf5fuJgcccZL02az+S+TCgvJCJESagkxEnkuZyEFCy4F8+S32Pe2NeRN3sFY9faxUjF6+enzRpofJ1J2vMzk9kB2mIySlRz5AmprTQ+4JZacPNa8HgvODRDhkB7OyWNCFplHN1Fwg3MzCTvwr9EtjQMmSTRJbegLIhsGDeRFn+QMzP5oAZBP1WpyfmE0MbvY60SQz6mnMDmf2Gj9qhGz2/F7mvGJpVVup7X6k1Gx5vGRW29Q9mx/M/rQbMxEZqmHKy4CGdDgY1ICBDPlwoHmEwqI50uyOzaWsdrljevqet8qHs9Ywg0ZnUuqu/Uz5IB39Pxe4hqihkg+DEQ1Iy8pn7sN52iBfEmWSgNxxuEbZ/iQfMF3oQyaPfJvErSxotGYUAxlTAiEl/wPSCjP4/NBBEEaF90IdwbqnimoYSjT8z70zXzxhzntRsWimVH72gDR7eDepevxAqRju/GZx3Ws9sgHhZEbHH2TyXULWFTLxOpnRAkfXjJahPw1d5mTG4YzGoCQRhIpRb9Ujmkx5E/lkWksTAWPQYG6pyYX5pe1htDtfhCsI1IfJh4Q3fUMmmgSDEXIhDYD+hjSLDcocRlOLAiYo9Y81FpQM2fiBMCJ8caD+GQY8wh1newpFHLJRRzADTTdt53oO1WgYPBxTFzWRGZnsdnnFxM+kauCfpdmdPaTpwAulfNIXMJb71zryggwYaGRhh9k9MBsoz6yKWXL7mNvljul3SKvNWhkiQmMiYsSAxhzFBPNPBBU/1V+sN7VlN9lky21XKA/tySBSPw8Hfc2zaRcv8WhbBYHrKBtmMcQDWTIwIV20NYiXxY1oOrlIMglQRiXPpADZYN7SLo0FJUs2cUPf+CDQKBA88mcQ7Dj3UUQhG4Ta6wjG36TC4h083FPPb9v3Gpn9+6HyZa9/yJjW25hzQShbMk+aDO8n1Y/tL9WP7ClNPntQaudPNyRDKJ/ZvlDbftbiWfLn9/4sc5bMMZ8v+PAC+bLmS1MXzECcuJSbqJY6mXn2grmzpeLnwe5d6lDZ/eC8uRy0A4MU4igkoZDf4w9SrY57QUQQDflFbJlBn+D/iDuB5QJlUzlJCmiS+PkaE0qGbPwMjhBGJQk0CqIXDHLySlRdD0MU2aDlylcWhBjBJneEsDN+BAX30O0DdBb3YrW2bWTj3U+Q1c58SRac/qEs2f5cybTInrFZPvVbaTr4Cml+11ayzqfXyI5r1UqrAqMW4J6v7pFxc8e535w6ZWrk2k+vlTuG32EkhTrh6EWTgMgxEanvd68/ImWL6odGq7c81P0UHgxYNR28Wg9Q4slnbmkb+7fM4L5ogDjrC9kyIwg6gSQJNBuCCX5ZWZlR8TfykUsAdJi34xmc2OPMUPnAtcy2CJMmr2knka+BGRXXlOI+vI6FeyL8QaCcmG0IORqG1xFM2XAUo9LrTm2A3wQKaLO2UrteH6npdbrUrtHDaDRlM0dLGS/t9qEsUyst542RqhHPScWI/g47LJDadhs4Nka8DZd6rtZTfp71s4ydW3/7geHThssPM3+QndbcSZpW1C3mpC3QJhjUa48bIE1+Wb4Fwazm68s3bfc0dYc4lDCigGfQPlyrk4b2qbarX9vh77QvZh9OaT2Hg1WjRWznwL0wsQmpIx/0H/ekrHFIg75FTrk+KZBrhCn4+9//3j2z8qNkyYZZB8JRockGZjpmKn7PQGcAeEEeAbYvzsW4QJgYVEHChNBCNOSK4DNhYADqooOBvxGNoQxEtyAdBB2Tj1ma++p1y1DmmBIdusrSbofJ0i2Pk0x1GymbNdbRIOonACrKFs6QijHvOubV/VI++WvJVLWUTJv1zH3CAiLZc509ZYFDWl9Nq58JPHbOWHl/0vuyY6cdpVXT5cS9xGn/ioEXS2XNcgf24i37yryOW5m2Z7U6Tlv6iTpCUkoaUcA1SjwQgpcUaGMlH8hGw8ZBQMNhlwFMPPxJaA/0CVoxkwpEhdnGc/htmLIiHzwv22QUBxANE+gpp5zinln5UbJkg9AwkHPlLkBGmE3Ytvp6Ez9Q8znvJ6EoQOVmRvTfn6Q4ciyItuAMVsFU4edgUHCegxkWUwQhR9j5u27uzv8IPQMK8qkn5FWtpHadHWRC5wPl+wXtpXXzamnqmDtoNn5wrnz6T9Lk2+el4qunHHKa45DOOo4qFY5syx1y2r7T9rJG8zXkg0kfOPrU8j6Zvmi6DBo7SHp07GH+Tnm/f7e/bDDuOfcXdajd+zppv27dq4ghaa8mwaDOq93lAW3DdUo8qvUgP/QJ7UpInP8V9drTBdciO/xW+4TfkdMD8UCWunYrl9aDRs31kFNSYBkHk1Lfvn3dMys/SoZsEBSvcNDJRD2yJfWh/uKgJHcGxyUCFwQGMTOOhqDjgAxLtBPNd6CsOIIRMpynaupxnkP9OwhnkJBzTs0QZkQ10dB0EHKep6o9A5LfQ3g//PCjbLjN7tJq+xOkZqsTjF+nbM5EKVsw3b1zfZQtniMV4z50tJ0HpGLiUJEm1ZJpt75TsPxmzSbtNjFm1bsT35VFS5cvG1i4dKG8OuZVaVfRTmb+OFO6zv5AWk9bbkLVtlpLana5gkqa7xCCvqAO7Q5zlr5V7Q5NAu2O+scZrLSNtjPLUGhD3dZUZYqDPuG7XhMEno/2SVkhDzRi+oGy0teqifI7LSv3RrOhbtQ1KZB2QNsksbVDqaBkkvoQBjpSweyC3erPBKVzESpmMPwz+SIw3IMBS1JfXOBUhNDQSigjGbEIIRnBCCSgGf0CnU2oc4H6oQVgekC2hPERbJ6LmeZ1PBs4zyuf8Kk0Gf6EVHz3Pymryb38INPcqUP3o6Vmi98aMy0fxs8dbyJUo+eMds8sxyFrHCJXj3lPKgjHu1jS82RZstcN7rfsoJ1oQ81kZmChZVA/zWTOpkn4QZvRz2hM9IlqoJz39gvfFUpQHPmeo2XVhELKysSDRsSEwbNxRMchy2y49tprzUT5yCOPuGdWfpQs2TCLYLfuvvvu7pk6/wwDHfXdO9BzgdAwwkQUJS4InUJW2Pf4h1CpSX5T4VJBpg4qxEkA3wHaG5oAAwhfBGVgMHJo1uwyLJrtmE/9TRJgxeTh7snsWNp5O6npcbws3fhAZ1rPnqU6d8lcufzDy+WjyR+5Z+rQsWapvDWu/ibtC49+SmrXj75UgLoywSj50KbeTGY0lSDQ5sgE16NlZvsd0D7S/lLR95JOPuIByCkTAsSj/igtK/8r2RUCFkhSRjYrbywoGbKhYREYBQ5f8mXYhxhozgQDzOuIzQfMHQRMk+vigHIwuDFlMJkgLhVKmo/7U/4kiQaCITMWYtP6ItSq8SDonFNNgGiL15Qsm/yV0XaafPOcMadyIVPVWmq6HSE1OKLXCH57aE1tjVz//vXyyi+vuGdEjpg9V/42bbkJl2naUhac+41jnBfmKKVN8cdpXZEFTDGtq4aEkRfaiM9RX/mjZKN95x0G2o9KQLmAxoN/hcxm+oRyqx+II4qG5sV5551n6vqPf/zDPbPyo2TJBu1F1ySRFcqmUCw5IHEryoDG+cq9yLmIC1bKMvgxpbw+JMqsR5JEg8Ci0SBsXmLzgmcyuzIYOSAiCIdrOCApgyXzpeL7l0xCYMX4/O/zXtqph4l+1Wx2mHFMA0REfUkTOk6Qu76/S5Zmlsodv0yRXRcsN9umb7CrVB/1pPstOWBKQjwcSrLUlfqj3WJOZ/PZhQXt6SUeHRZKONmIB9ONaKS+51s1NMrJ/9yTsir5LOuXPCAKxSRz5ZVXumdWfpSsg5jvOOVQWXEkIlA47aIOaMwxyAanX1RQBjQjhBwHIESn5zkQJJAk0WCnM1tDrES4ggQc8Dz1cUCAOLBpP6JvECwExCBt0rSZVHbu6RDIb6Vm00NEmlRJ+YyRUlYTvENe+dzJUvHzG9Lk8wekfOZoqW3WXr4dP8vcl02veq3TS7bssKV8On6IXDJ1snh1ieuaLpDFHbrKhm02dM8kA8jF62RmwEJ8tD+aBeTMIPc6bqOC9oSweBZtruSlcqlkxHeg/U0b02eUC3CdmrrIK0TDdfwGOUaWuIZnUI9scsOG52RDkyDaWFAymg3FYHZW0CG8koMB5d2aISowfZhluEcUeB3BCAVhUQSKcvqFLpvARAH3I+rBjnVEU/Kl+udCkLmF8ENMxtySpVLx02vSZNjjUj76ncCEQS/mNu8sZducJGU9jhVpXrcP0LTh/5F1Bl5iPgO8bbus21lmV5TL6d1Ol1O7nZpIu/hBf+DLQ0tA0+S7aj1oOkrAHDhvs5F1WOgESJ/zmX7y9j3mPUsh2IsnH+gX1Xo4gGo89IvX38S7mn77298WnNSHz+fmm282YXzkir1twqyIx09JcIa1Z0x+SaAkyYYOxIxAkGD2QhLyiFrR0CT8hQXPxT+Eow+Nih3kKANhdhW6JLUZ7keEDe0B30Mh9fWDeyPgSj60McKt5FO9cIpjYj1pcnLK505yrwpGpqKpLN1oP+PbIY+nydf/df8i8nF1lZy25nKCJDnwym2vlOqKwp2lCnw3EA1+s6C9lJkgGMRKPtSduir55HIehwX35NAJhxQMDvK8kAk98oFr0ciUeJB5tDfKy0T7hz/8weyyx/ui4oJ9hE844QRDOJAhG2Oxax9Bk2wpJQBrgMkZzRqZbLRkg3+GUCIDG62EtwnQCXGBIKBys8VhGDAwITqS0VBjERwS9/ANoNkgaEkSDQOE+uITIpqS5t4ltDEDFtJhMCLsONyNn6dDe2kz9VNp8tUTjtbzuiMYudeCZcqcNvAkFd7Yvq30a1O/n7q16yY373SzdGzmC9fHAAOAfmGQhNkuRAezEg+fkSMl2RUieTHAJIZWQ/CBPC6eqcOJe6uchCEfCEa1HgiGMjNBotnsu+++sSaguC+o47UxkDkm4QsvvJAY2RSmYyYMZncGHo4xKov6zwxSCGgwCCIMMGOYOckIplNUSBAYyICyJEk0+JLYioLyIVhpEg2g3AwyIieQOOo0CYUMxE+GfiZDJlXL0C5/ksE9/k/GbXKq1LZd371yRfizlzfa8ABHmOqL07czvpWTBp8k38/43j0TDwxCNE3KzRGm/fkNAxQ/G4OON1FQVzQI2hynPxorvhQIPyqUaJBVfEmY2mhOyKz6e5AX7s0kyv+55JDr0dgwW8iKx4zGD3f99dcbmYwKnsl1UV9Q9/DDDxvf0lVXXeWeSQ4lQzY4+Ji9MJvUX0HHxREEL+j4fITFbITg6EboOPb0PAKC7Y86qRs0IaCFkiBCj1Ax+NFokkwICwsEnAxmTDeiKdSbui1s0lqGtdpdPu59l4zf4x5ZvMkhjgmVO4pyxNB+8n8zF0nLsvrh56kLpsoZb50hb42vvz9xWKCFMbMyAeRS/fNB64pZTF0Z1MgXznSingxMzdzOByUa7oWWpGAioh8hHT2QP4gPOfISD/KTjXwoK2OBzcnRqr25ZmGBZsQz/L4/vmM9BIG2uPTSS6Vfv36mbZJGyZANHcNs63UEhyGKfEAAct0DkkPQ6BxMLWxmoETDtcxczIwIF8KkAopaj08IFTgKGECESxnc+paFhgbqO+FtQu1skI6m1ap1G/mxppMMbHGkvL/9gzJpq/NlSfuN3StWRJ8Zk+TxcWOlsyeFAbDE4dIPL5VHRjyyzMwIAwYFgw3HZraFlXFAe9PPmMn4MtgAH/OKfmHWxzlKFBKNyk8ImOVKNCorQeAZyC9yje8PAmEAc542QK4gHeSPz/7nEFKPGxTxwq8F8uwgzZAyYL5dffXVhtjTQMn4bACs7y0OMz9CVoigMUOgNu+xxx7umeXQyAbmixIJUGFAAOgYPxnwd4QB4eTw+gNQfXNlNmOqQVaQTJxwfBrQMjHbU34/IFPqCSEvHP+V7P7txe5fgjHDaa/z1+gonwdk0u677r5yWa/LpCqPpgSJo2lipni1h7QBAUAyWl/kQJ3M/A0TA02Q6FFcIFdeGfPKPLLGOZ6na67igLFEZO6ZZ56Rww47zD0r5i0JaIqsvfKCJRj4ndQEBFo2zr322muxNCwvSppsIAIGcCHqsz8TWcFMTqPjCGY2V7bn+SoEdHzQLOCHDkYOBJWZTIkHvwH34L4MHlRwhLWQVehJgTJpsh6mXJgylX90p1S/c537zdEMK5rLwhbrSKvZ9f0y6DbXdGwvL7RacXbeot3mctPON0uH6mDNgMAA5aKdCllAWyhoH8xdSIfV6vjYGMBMEpABE0wY+cgHZM1LPBAaWj4TABGhuMBXRZTMu+SBSe6QQw5ZwUHMs3EReMF1b775pjz77LPGKR9meVAulBTZoFJSaQV5LurQjAu0F5yB3rcjMJOzVwgko/4ZQFNEJRo/mP0gMp0ZAYKJJkT98AkhsA0N6qgvraNMYVX2qicOqZeJPH+zY+TnbufK/FGfymrjXpV1ZnwglTVzzd8QrP+0biW3tG8rGV9bdiqrkn9tdbF06XIAur45R/tDMvQPZSokCpkkVMtC86N/aTP6GBmhbznQfpLwc+Ab1OgTC4Axv+JCQ9/33HOP8YXed999cv/99xvHOBoT668g0f/85z/uFfVBvm+S0aiSJhuWKNDYhazYRusgOVC98tji2N3M5KoK0wQcPLsQovGDe0E62PiQGEAo0Xo4sOcbApSFqB9EzKAOvXBw/q9m43VvJGrhEY9JbZe6d0Ez80/7ZbzUfjtAOox+STrOHWHOD2lWLRev3lHmO+3qRXOnff5e3lm2P6q/aX8GNIMtCvmlDYiPREu/5kffYnpAPBy0JVqYkk8cLYD77L///kb74NW3SZAX2gnrq9CoIctbb73V+B8Br9jFVMP/GIRVimwYpIAwdFwwE73xxhsmGxJGZ0B4tQsvyfA5KaIBqOB0FEJIHQifQz5EfPgbs5cST6EqaljQxji2qSNmSpQoWMXXT0vVK8vfjJipbCYLzvkmcMU4hDZ71BdSPqyftB/7qoyR+XLuGqvJxMr6A2i18mp55uCBMvKHkSYDGLU/7RSAsMhGNEGAbJR4vKY0xEP/I1e5wDUHHnigMVfQSBpqIkoTJUU2EINqAACbFc0ERo4LSATnFuTCgMYRrDMGVed52gT5BCIKULOJpOBvCsoNgfQQTIgHQaN8Sjzq50kakB1EQzvQpl5nYBg07X+KNPnxVfeb018b7SeLD3vI/ZYdmZrFsujrF2XO8P/IFWVj5MvqOtOgyumbf/W4SposrHv/UyQtK2Xgx8J3EtaX5QVyTJ8q+fBdncwcftOIIAbLEwhLP//88wWZTqWMkiYb7Hc0AAgiLhj0hJmJaDHAdBAr0UBGSWozABsfcw11WHfxywXqrX4eDsqjxGPWMkUkhSDQjhAN9/Q6xEOjZqE0u6OblC1ZvoBz0X63ydItjnG/hcPiGaPk+ncvloGLxspV81tK5VqXmrLgqMfxysBOkvTjQB3UkB/EXwiQM3/WNiYi/UBABPk4/PDDjX9qwIABJUO2aaCkySbuIkoFsxODniriIMPZDPjOswCCnhTRcF/UbpxuEGScSArkhy9AiQfNjlmRyBazYhz1GvMEcw6nYJhU/yCU/zxYqp9bvh8uyxUWnD1MpHn0sDTt9NmkT6TJqNmyuLKNcdKrJkD91a9FfYud7IgPg90GkiCaIEAwqvGceOKJJpcITZPFkgcffHDJOMXTQEmRDUSjJADQEHDmEgaMAgSWSAtOMdRgolr8j/BQXf6etEZD2XFoo0HwrCR8MJRVZ0UOr58H8gkT1cLhiq+KRK1cm8fnQ+Wgi6Ry2OPuN6e+nXvLouP+536LBgYcyw8gTkhZNTfqy8yv9SWCp/XlSNuvBckwwUE0aQ96zMYjjzzSTCaEqF9//XUTjoZwGitKmmxgfQQgyp4eOECZxelEhIYBSQITWahoGpAMVU6SaBg8PJP7MXjScu7h59GB6PXzQDxBOR+arMfGYfwuNjK1Un3X1lI+b7J7wqnzLldKzXZnud/CgzpANJgSmLW5TCZ8TGgAWl8cx2g71CVpc0uJBge1asBpgTY45phjzEQyaNCgZcSGXCYlk6WIkiYbhAwziDcwhgEzIYLMIPQ6glnTRHIU6jlIUkgRGHwhzMAQWhL+lTCgnXQg8j91Ug0AUsUcQDNMIoGwfNKXUv3Yfu63Oiw49d1QG6Z7wWxO/1A+/FlRBhb1hXC0vkwa6nAt1NzSxMZiEA2T4PHHH2/qQeAijqm9sqKkyAYBQjNRIFxEdHTLxVzAt4N2gSOYNS8qyFSPPWIRRswICCcpsqF8mGj4HKJuV5okaDf8PES2EGIEmrIQBaM9CtW0Kt+9USo/vN395jyvfRdZeNp77rdwgJTJCMcJjElXSFvRp0RwlGyZZCBUiBbiiWJuEXFCA2QXwrRze5Bt/DRoUIMHD142+a0qKGmywX4nkhS0rskLdQSTy+L1S1A1tCXug/8GweT+CKQ6XOMmTuEE1izkQtZuJQnqqrsLMvBwDDPIdSByhPHz+FH98O5SPrUu5wks6X2WLNk1/N64EAPaH6QcdouIKND8JchHzS2tLxpn0OSCbEA09CMaTdpEg2bGvsLIDEmmlG1VQ0mTDTMWK3D9e3Io+L06gvHPeFVS/qYHwoaAU1WcrGgAHAxKjXxAPmE0ABVSZkNMtUIW5CUJr9/Im6ynfh7qqxuE60AM8vP4UTZzrDS7bzv3Wx0WHveC1Haufy4bNBIGycRdVBgFDGpNI4B8gPYx/9MuxSYaJgE2wYJwIZpSWYBbbJQ02TBQSKWGbPyzE7/zO4IB1eGggwGDKduAgsx0IKL9MAtCOhxBWazck8gOMzURp7SFNCyY2b1O12x+I9qMgUh9+Z/fKfFAmkEaQJOh90vTN//qfnPat1l7WXD2cAnzVk3almURmLUNof0hB/QV5eBgclH/FRof22ikHeFCZs4991wzaSLLpaIFNwRKimwoCjO0glmKpQaYUV4HICSB/Y+geB3BSjJapSi+Gb8GwMBlEEI8fGagYqJwb55ZKlmeaGoQDdmnXl9VPkDs1FMHIvVj5lfzUtu76qmjpGLscv9MTfdjZPH+t7nfsoNIIsSM07xUZnLIhpXN+LeARvOoLyQUtu3CgjZmAyz8M2g0xdDsShklTTZ8JzSIg1gzK1GN0Wiw/72ORn5L50I2ajbFBQOP50A8/I95BfFBOmg0SSyQSwLqoGa/Zo64dabtIC0lHvXzdGpbLRv139cRkuWJlosOfVCWbry/+y0YmCf40AoOuScI6qgLPXEG06d+cwvSobyQbqF9jCxecskl8uKLLxqNppCdCxoLSppsAOFBdlNDi8nnCKaDCyUaPxBEImKQHWXj3qrxZDM9igFN1kvDRFGHq3z1jGz6zT/ds047VzSV+ed8K2VV2U0PTfUvJX+WEg2TBz4av5Ocv+sKbuqNBoT/j37miLowFDm84oorzMZVEE0huxY0JpQU2QB8MF6weQ/aBJnEDDA+53MEJwUcz6jdDGjIjWdoiJkDgtPIVhKzYVhAuiyLSFtzaDrgTGny3fIs4clttpIvNvvLskHoJVvESPeioY/wf5UCKBcTFCSCRhOGOCAb1XgwNdXc4qBeuWSM511zzTXy6KOPGqIhWmlRh5IjG7QHb5HoMFReBnpcR3BUcF9N9GJbSojED36jqfUQD9oAgw/iQSgLzW0JAs/UtVep7/a3dLE0u6N7vfeEL9zrJpm67gGmvtQb01JNDyXhYkR3woL20g3CwhKNH+pUV/JBxrKZWzzvxhtvNJtV4aMpZLeCxoiSJht8B3jxCdESOcjmCE6SaCA1tBlmtCgRJ5zWqvHg/9DcFsgnjpD74S0XpJt2FKV89BCpfvpY91sd5p/1pUjLut36aXtNI0CbgXiY9XEGU+8k6lwIKB/7IeHXggCT6gNvdEsnGLQ7JsGXXnrJbE6FQ5jJwKI+SpZsmEVwBBOeRRXVrRr4W1r+GY04MXAgmrgRp6DIFqTDAUlELTP1pVyYmJSrGNsQVL5xuVR+/pD7zSnDmj1l0QmvuN/qQB+w+JRJgeUHaHrUGS2HOkM6HCwBSLKf8sFLNGg0abUXEwxyyq56LKIkgscrc3mbJZOjRX2UpM8GJyMOPQQYXw1Eg88kTaLBTteNpfCFJLXGCQJT4kEdh8CUePLZ/wDypVyUB6erNwUgNTjtXHnvtvJo2Rw52tFeWtdmZHGfS6Rmh/PdHywnQMqHpuU1G73RPOpMmZV48LepnycNICMa3kajSZuYeR57+950001y1llnGf8Qk81zzz3n/sJCUVJkQ1HQZsjRUEcwOSTYxoS6IZk0iAbB5LmQWqHrdnKBAcrgYxBCQNRDiSdoEGqyHppBvhXSSWLBxKFy1eunyJDmzWS7BQvl7l+mSM3Jb0lmtTpnJ5ofBAjybS1Kf6FhqOlBG9Cf1Jn/kyRP5EeTLotFNI888ojZOBwTSvf2tQhGyWk2OEBxwKmNzeyJtqEJURBBkmSgyWeQDIRWLDAINakO8mEQamSL/9G04iTrFYopC6bIhYNOkO+X1CW+gcMXilx8/IdS5pCdalqQBJpWFA0QUVOnOgdmCCRLndF6CiEHJRruD9GknXTJ83hz5J///Gezwx4v9rPIjZIjG1RwBiKgaPgEEEp2mEMwkzJvuLfuytbQyWeURf0dHGg0gDLhrypmtvKkeZPk1JcPk2ll9cXinC3OkaPWP8oQoJqahWpaGmLm8Pp5IB8+hyVY5AWiwWFdLKIhh+acc84x5hKvCbLIj5IjG1R0ZnmKxf8QDSFoBJJzCCJHIQl1CCcOREwazLW09zCJAjQtCJZBh+2vkS2d/VOP8tQslB//e4ic1mS6LPS174ltT5Rd19rVJFUmbdKhMeHnoZ+j+HnoS52QIJo0Ug786N+/v1lY+dRTT5k3IiQNXr/CNqHkebHc47bbbpM+ffq4f60PXsdCTo8f+DshYICpd/LJJ5vPXjCpFSPYoChJslHCQZAQMmY4isnsR2Kfmh06C2L7h9V40JzICOZ//A3FbOx80GQ97ytnIRzVeHT2V8KNE9kKi7d+6i9/+eJG86I5RWVZpdy9692yRcct3DPpgL71+nmQA81t4X9NgeC8vv+qWESDb4aB+/jjj9d7rW1S0BfLQThkzt97773ywAMPGKd30Jth8U+pJgwYO5i3LP7kvU8AsuG1uzivvSj2mrWSIxuN2FAsJRo/+BtmhxIPs6LX35Etk5dOwd+AdoAZUKyM33ygPpqsh6aVLftWZ3/qTDtBlEo8YbaLiIrHvn9M/m/4/7nf6tCuqp08tMdDslaLtdwz6UL7mjpDPBALWi39TFsERcPSwsCBA83mVw899JAcffTR7tlkwX7E1Ofuu+92z9S9N+3QQw9d4ZW5QeClcrytAfeA+jkhm/PPP99MVg2JkiIbZnEGDsxM47L5M6/4yDWIKD55Hko8EAqaDo5VBFKjHcwARJw4jzM4aTMgLpid4yTrMfur2cGBZqeaXi6zIwrQLq567yr5ZNHy1+2CDVpvIA/s/oC0rCx+pjBkQ1+THoF2iglMnal7FD9PVLBs5thjjzWaxnHHHZfKcyBOkgPxB3m1JrQSZJe9tPOB90+RPsKaQgVkc9ppp5k1dMgNGv21115rJrZiouQ0G4SIF3VxfPjhhyY5CtKBfFAj83UyxAPpcPCZWRBNhnwdFsQRcUpLIKMClReTDiGj4+M6NiEsyErrzXcGn5odcZzqEBll27DrhnLL6Fvkk8n1Caf3Gr3l1p1vlSblxdUOqZsmOKKdakYv5aX9tN74uZKaUHhX/FFHHSX//ve/jY8kLflBRiEEsuZ33HFH96zIDTfcYPwyfjPID3w8yDdJhl7Ni21xdS0dWuLtt98ur7zyimnHYi4SLTmyUVAsGh9nHB5/Ni3HlwHpHHLIIaH2/MVpSHIgggh07RJHMSM8QYBgMOkw5dDkkjLpaDcdgBAP2qLmtTAIw+S1oDngdNW9aOYumSunvXmajJo9yv1FHQ7d8FC5dOu6l8wVA8zKSs5ogd66BPl5lHiof9z2/eCDD4xZgsP2jDPOSLWuSjY80/tGkeuvv14ee+wxs84rFzCzbrnlFnOfXGYlbUP7kRcEgRYLJUs2XlBEBg72KMSjq2khHo6gPBQalM5B8NAaaHzuwUBiMOIXUeJJPcLjg+bQ4GdJM1mPdoNwVeNB08PEYgBS7yDneLa9aCbOmyinDD5FZiya4Z6pw7lbnit9N1n+8rq0AJkwE6MN0p+5SNNLuBzq56HOaHphgwKffPKJka/rrrtOzj777NRJtRAzijrjHiA6xvqsfDj99NPN2zdefXX565TTxkpBNl5QXGaw//3vf4Z4WPTGxkRoO3QQIT8cYYT9mM2wT/1kggquAxDzQ+1+jrA+k7hAjUWjQWNIM1s5CPizGHzUmzby11ujYbQZg9OPr6d9LWe9fZYsql2+DUiZ8+/GHW+UXdfO/waMuPASDTNyVC0FwlXigYSotxJutogekwH+jyuvvNLstlesfsJBTGSNaJQCmUa+czmImYBJLCQ6l2+1OWOIFz8yoeDsLhZWOrLxg0HDbmj4eNjVDwFCOMlLoMPyRSmYTXQAEuFB+LgHjuRsghgX3J9Bo5t/F5No/PDWG/LGr0O7oTHmcsoPHj9YLvvwMvdbHaoqquSeXe+Rbu27uWeSA2ViVkdTRaMp1NzUenNo5FPNLfXzMGD3339/ueiii8xue8XsJw19s00FphTrru6//34zeSIzLI1A+/zPf/7jXlEHruGFhPhn/Lj66qtl++23N/4ZJjtMJ8wyfENR3zZbCFZ6svECRx4zAFoDdiuzszqXcTTnM1eYOXUA4ufR0DLEw2xYiNDpRlyEMRnMpQK6H3OTZEIGG+QN8VBvBmBQZOvR7x6Vu75aPvOCDtUdTEi8U/PkcjeSJho/uD+Eo+TDZMWghmxOPfVU4ytpiAmBSfIf//iHkRm0FMwiXXeFg5rMdzQZBdoa6/pw/GIe+YFmxmRMH+M+oC3JwYnyptkk0KjIhkQrGpT1KpgM5EVgar388suGLFCLIR4aOV+EBkGEcCAeBBEfAaTDIAyzWtsLImy8OsSbrFcKoOs1kxrVHX8BAxtNR+vNdzU5NHmS62747AYZMGqAe6c6dGndRe7b/b5EQuK0v3exZ9JE4wd1Ihjxz3/+0+zPg+mFQ7iYDtTGjkZFNtlARIYXt0M8LJrDtIJ48PGQpZkvQoPg6wDk0Jmfg5k/G/HQtKi2aFnMJtmS9RoCkIjuRYMfJMhpSvmZNbXe+LogS6PxdGgnF350oQydMtT9dR126LSD/HOnfxYUEkfDhGhoV9ot38SQBPBV7bfffmY/GrQK+o06Z1smYBEdqwTZeIHNzpaNzz77rHEyM+jw4EM8u+yyS14fD7/HqUxUi5mf5lPiwWxTk4PfoZIzWBnMaA2lAsiTEDLkQdny1RlQT39kq6p1ldw6+VaZsHCC+6s6HNHlCLmo50WxTBAlGtoRjaYYRINZsu+++xoTHFMkn7ltEQ+rHNl4gWDj54F4CKtjeh1wwAHG1Np9993zhkhpOm8yHYOYWZ/Zn7Ai92dmbuicHi8oE34Qys5gDpN3EwTaijp/O+FbuXnizTIvM8/9Sx3O73G+/Hbj37rfwoGyEQXCZIq6fUVc0E+s2ubAV2KJJj2s0i2LUEMqCBl2OpoOfokLLrjAbGnBgjtIiDyNIDBzo80QwUHdVpUf8wQSIuSOw5VBVApAq+PlfgwoNJq4RAOoG9GR/XbcT/658z/NIk0vbh92u7z646uG1MKApQfFJhocsESdCBnfeeediRMNcoUcMWnhE3v33Xfdv6wIHL7Ik//wJ/LhCiAUzgTG//iZVhas0ppNNmACffzxx6Zj6UxMpr322stoPKjbOJuD4E3WYyBiZjH7Z1uvVUxgMulbRMmvSHpgvT7udbnioyvcb3WodP6d3eFs6blWT2NmZltCoESDOYcTvRhEQ5/ioyFKydqhpJ8ZdfW25smQUIn8KNCUtWws32FSY10TZj+y+de//tVk15OfU+qwZJMHEA8+BEwtwockvu25557GvmdW1MgUGgzmCWFt8hk4p9D1Wgg4fg+0IYgHQQrjLykUkB1Ew2BnNkzLVHhkxCNy99fLVyuD9k3by2XrXya1M2uNlkOdOTSy5SUaNJq0yuYFUUb6juUY7LaXRqQr6uptJRs0YvopCMccc4zJk/Fm/TL5EaR48skn3TOlC0s2EUBTYSKRTs6swrorBAShZZ8TZjOygnMB7UeJh42xEBR1MKfh24HoGMzcP+3tRWmfa4deKy+Pftk9U4eubbrKvbveKzXza0zdOTDpqDvlQ9vCf1QMoiGqiF+OxMqnn346FS2TukVddqBkw2uUiZ4yKfBWTc4p0IjImeFQkIPD5lqkV5Q60u/dRgQGKiYIbzwkmoPgYFLR2QwU8nsefPBBM5iycThCiEAx8+28885mlic3CHv+008/NUKDJpIEmAWHDh1qtK1i7GPM/f+yzV9km9W2cc/U4adZP8mVH18pLVu3NGSMWQG5UD78WRAAbYnfDHMvLaB9opGyMpqJIS1zFs2JYAHaqxd8p6+DQFIe2cKY7mjQ9Ncee+xhAhgKro1yz1KDJZuYYGCh7kISqLUsmdh7771NYmHXrl2NP4CUc3JsshEPjkNmK/wG2OJkPiOopJHjM2IDpGzO6XxAHcd0gtgoT9pEo6gsrzRrpdZrVbdxk+KDXz6Q24bdZj5jOuGboP1IN2A7BcwqJV0WQBKOxuRMChAbq7fxmWESF8N89bc5cpCtHyAXsn8xvUg6xdeDBkaSoRdR7llqsGRTAJiNyAyGZBjQrKPRvUOwzZmhiFThXCYTFX9PNuLBhGLGJWpBajrvyWImZrsBHIM8B5Mj2/VeQFj4mfAdQTbFRuumreVfO/9L2jat73t4e8LbMnnO5BUc1Wh7ONSVdNHE0HaoN/WnPSGLMHUPAu125JFHmucQXcyX0lAoIDT8UX6NA43Xr5nkAuuZSC5UMBkVes+GhPXZpAiaFs0G0kE9RmPRXQhR5/Eb5JuV0AJ02QT/M1AQLnwwQeu18AXhV8LmhwwbEsN+HSZnDzlbltQukU3abiI3bHuDjP12rCk3fq58PhpMLG/dMXuoN6ZnrsxtL9AMIRoc/WwYxW5+xUDc1dteUG5Il10CAQ5i/HzUQ4EGjYZoHcQWy0AzQwS6Jw9OQo1OIIBhfCr4ARh03If/MQXUuUxUjLwR8jL8e9E0JAaNHWTC4pdvdbmMGDYiNNH4AVnooknIB1BH6k50Lyh0jaOVAYo5xjo5b0g5bURdvY3fDy2UtsHBjDl+4403GlnB/ANoeWi9LBBFZsgLw4lsQ98WWUGTM2NBPGg9b7zxhjHDECCiF2FelaLrtSAeBqCew3QKs31qMYHDm4gYhMhgKrRstB8mJqTDgfana7Y0jwlH8/HHH2/ahnVx2cLJaQKtJuzqbX4HIUFAJEzSThASIXov8DdBMCNHjjS7VUI8SkalDks2DQyan/VTLBCFeNjmAN8NxIPWky/3hOsRPAQXJyuDEKjG412v1RBAu/Dm+CRNgtRf85g4iGiR24LWh5McDZJ2sWh4WLIpMeAIZUsMiIcoF7M1e/Kg8fTq1asecdB1OBCZOYliYKJwLmi9FsSjiXTFAkRD6B3/ShpEEwSc8LwzCYKjLTEvMEVwrlo0LCzZlDDU18BggYAwQ3RPHogHHwDp/Tgiie74QdfqFhGYW2pu4GDWiEla0KxlNCvMwmIQDQ5l3lTJbojqVMWZ+rvf/a6oJGsRDEs2KwkYvN49eQiVM4DvuOMOE3rPl3JPNxPJUOJB64Bw0HjUz5EUlGjQpAj9F4No0OB49zbhcvwgpbQbokUdLNmsZMDxecQRR5gd9sjE1XUy7MmDxhNmTx66HK0J0oF8+AwxQDyYXIUkvEE0mE7cpxhZy4BIFW98ZJ8ijqCFjhYNj4bzHFrEAhoIGbdoDoRN8dfwgnvyb84880yzpQGmBOYD2ksQIADyTYhmEJblfjhw2duF9HjuHWfpADktDUE0F198sdH6iOqlRTRRtovA30YiJ+1AuJ02xvHvBSvNaR//ka3PGgOsZtOIgClBzgWmFgtFcZCS9EVkC+EPs1sgmok6l/H34CfSyFau92sp0eAPKtYraiCayy+/3NQXjSattztG3S4CLQszjkWUkPjDDz9slh2wBIU9j0CpvOy/mLBk00jBQGTphBIP5IFvB1OLbQnCZNKi2SjxEOEi2gXpQChe4sIMQxtioPi310gLiC2vKOGVJBANvqG0EHW7iCCQN0OCIfvPgFJ52X8xUTJmFMLM7MFMysHnXB1BZIW1SGTLEolhJjnxxBPN8gAvdt1113pqKgcviG/sIESOecTrWFlbhNMUjYO3O5KpiuCT4o72km2+CVqvRT9512uRNIdGw9KIYhIN2bUMWMynNIlGdzeEqL3gO+0QBhA/znkic16QH0Q2Me2Kz03fJtFYUTJkc9xxx5ltBgj1cvAZwskG1HayUnljIf9jJ7O/DDkpfrCaFt+GHqjBqxIgHkLlDFCWM0AUbPFARivEwxoc/D9kJGcjHpzGvIeaGR4nNNdBPPSTXsOAynZ9UuD+//rXv4xJ89prr+V9+2OhYFkI5ql/sSPfw27tAOGj/Xlf9g9BQpZEFiF9fEGYaN6Fl40OTuc1OBzbFwnNOGq/eyaTcQaEOecMDvdMfnzyySfmmjFjxrhnMhlnYGQc29j9ZuGFM+Nmvvnmm4xjjmQc8sk0adIks8cee2TuuOOOzKhRozLOzJtxBkngMXny5Mwrr7yScWbjjKPhmP568cUXM4MGDTLnJkyYkPP6OAf3c8yWTLt27UxfFwPUA5lytBj3TB0cDTGzySabuN+y44knnsg4JmfG0cDcM8FwCC3To0ePzLnnnuueaXwoCc2GmRbTybuYjOX1nAurqgJMAtR4/zoYtn4klwS7+cILLzQzsEVdVIrMXvwIaIc4PNnyFC0Hk4h1OUF78qD+Yzqh/mOa4ashuRCNh++YHpgERGzQpHJpTGHB9WikaGckOLIdRTGgyY9xtnbAscybNdkRkHbNBbRP6tSYNZuSIBs6EsejH5wLq6oSMrz00kuNOeZd3ctiPNRUfBaYXDhMV5aFa8UExAPB0IZETRB6TFLaC5UfHwUJhGx/etZZZxlfDqFzLxiU9BmmDcQDkeGvYFdDQuqQGSu3ORcFEA0RHV4ZyyZlhJKLBcxHfFb4hrzgOz6xbEDmWGzpaDZmE6x8oI6YpA29LUiqcCqZGq666iqjguY6Pv3008z111+fcWZE96rl6Nq1q1Gb88GZSTOHHHJIpmfPnhlHu3HPBsOZkc1zP/vsM/eMRS5gao0bNy5z++23Z7beeutMZWVlxhnsxoz46quvQplKjiZp7kGbY3o5hJVxCC0zevTozOzZswOv0YP7O9pVpmXLlpk333zTLVVx8dRTT5l6P/jgg8bkP//88zMtWrQw5QcOQWdOOOEE8xlgOmGS3nnnnZlJkyYtO2bOnOn+IpNxiDMzcOBAY4Jidp588snmGtqlsSJVspk6dWpmxIgROY8FCxaYTnRMJveq5eDcQw895H4LBkRz6KGHZhw1PvPrr7+6Z7ODwYPgIEAW4TF27NhM+/btM5dffnnmrrvuMr4dBgd+BiYVxwwLRTz8Bj8Iv2ew4efB3zNy5MgViIff0v8MbHxBDQmIY7311ss4mo4h3SFDhrh/yWR+97vfGd+ggs/+SZWD3ykgrHXXXdfcb7XVVss4muMKfqHGhpLIs3FIx6jcqO+9e/c25/iM3wabn2zUIBD+xsOPyk+uBRmb+cAudoTL2XpA9xaxyA/ERN8AoN8xidjACVNr8ODBxgzTrTHC7MnDPfCf6bIJXa9F8iDLJ+gjsqLxfYQxRSxKHJBNKWDfffc12gmzHIdDCJkDDzzQ/Wsd8P4///zz5rNDNJmDDz4407lz54xj69ZTVxctWmR+89NPP5lIC6Ya0ZWXX345s+mmmxpzq6amxvzGonCgLU6fPj3z6KOPmj6prq42ZvFFF12Uef/9940Z5dVYgg60GCJcw4cPz1xwwQVGa2rVqlXmnHPOCaWxWpQ+SoZsnFkyc/zxxxsB4+DzjBkz3L/WAW58+OGHzWfIg+9Bh6PlmN+g+jvai1H/UVe7dOmSOe+888yzLNIDfjP8FkcccYQxgTbYYAOTfuBoRqGI59lnnzWTyHHHHZfp1atXZq211jKEZrFyo2TIphjA7l5//fUzVVVVxu5+55133L8Eg8HB7/g9A+buu+92/7IcDAzHZDBkxv+qeVnUAY3lmWeeyRx77LGZ1q1bZ9ZZZ53M2WefbfJOgpzDAwYMMATVr1+/ZQTjdaxarLxYZchGIwr333+/iSgw0yLU3gRAL3BYkozF7/g913E95KLAoVdRUZG54YYbjLOb/1H/vcmJFssxf/78zAsvvGAiNyTmrbnmmpkzzjgj8+qrrxptiP+JOqG9Wk2m8WGVIZvevXtnzjzzTPdbHfDfELYMwsUXX2z+7sXvf//7zPbbb+9+y2SOPvpo42vyYp999jGzuEVu4FfDh3bKKadkOnbsmGnbtq3RDu+9997UiMZqtg2LVYJsEGw0EL8g4L/BpxOEPn36mL97wfVoLoTbASbBv/71L/NZwXdCmhbhQXtiNjEZpEU0VrNteKwSZKPrW4iMeJEtmRBstNFG5u9ecD33mThxovmO8DFIvOA7s5xFacFqtg2Pkln1XQz4tz9w6r/COS+Cfg+856Pe06L4YK1W1G0iWK/n/71DJGZNGPldINtvoqznW5WwSpBNnMV02d6r7KjJy95DlO03+RboWRQXcbaJ4HzQ7/WVwCDbb7Ldc1XHKkE2jlkjURfTsdjP/3v2T2FfGMd8Mt+z/SbXAj2LhkNULTTo98B7Puo9V2WsMmbUBRdcYPaNfeihh8zyiD/96U/mhWakwwNedcpOfwrOjxkzxlzH77nuwQcfNFtUKP74xz8acrnpppvMsgr+Z9Nttnu0KB1YzbZE4DDxKoMoi+kAoU+WNvB7QqZBoU8S1lhGgbMYh+Jzzz3n/qUOUcKtXLvnnnuaUDBZ1DgjWazoBTkodJv/YEGrRXbgIP7DH/7gfqsDoepcDmL+7gUOZr+DeL/99nO/1QGHsXUQB2OVIptiI2q4lb872pHZhe6HH37IONqWuZ4V0grIhkxc71owDovciLpNhIa+HQ3Y/J7ruN4b+iY6Sej7xhtvNKFv/reh7+ywZJMiooZbg9CtWzezmFQB2QRtx2GRHw2h2VoshyWblBAnkdAP9qUlcZA9gRWQDfclcXDttdfOHHDAAfU0HwuLUsUqlWdTTNhd+S0s6sOSTcqIGxqFSNhzl42jvPszs6FY3759pUePHtKnTx+zmTabjLM/sIVFKcOSTUqIE25V2F35LRojLNmkhDiJhMDuym/RaGE8NxapIGq41e7Kb9GYYckmZUQJt9pd+aODvY/79u1rco84+OzfTtYLtrMgYa979+4mj4YNvCB8dgbwIqgvjjnmGPevFnFQEm9XsLCIi/3220/Gjx8v9913n/l+xhlnmPeQ8zK7IPDWVN5tzvvfcbLzvnKWl7DAkhXdil133dU43q+55hr3jJi3PvCWVouYMJRj0egQZZkEG8QjCv6DrFgvSm1XOkxTymnfEb9ywDqIGyGIZjFbX3755ead24TI0QBYeJoL33//vUyaNGnZwXugFOzd4pgR4pgcMmzYMPM/+T+836uhQJnQNOw74lcSuKRj0YgQdZmEaja5fB2luCsdOymyo6IfnGOLzjBgAes222xjXh3khWOWmTdA8IrhJ5980miJLJK1iA+r2TQyxNmVTtGzZ08TQt9jjz3MG0a9KOaudCQzomnkOtS/wmc/HLkOPO8HO+45ZCm1tbVy1113uWfrgE+HHKfu3bub3zgmpNk+5PPPP3d/YREVlmwaGeIsk4BgcLDyGt3nn3/evO4YwnnnnXfcXxR3V7pzzjnH7CGU64AE2E+GV/f6MXXq1LyJk/rq5lGjRpncp9atW7t/CcbWW29tNk2zyZMFoE7BsWgs0M3d/eHw6667zqxODgtefXzQQQe53+o2dycPyIvHH3/cOKAbCuog9uYY4SzmXC4HMeHvQw89NLP55ptnpkyZ4p7NDcwp7utNXbCIBqvZNDIUskzCCxyt3lm8FHel22yzzWTfffc1Jo9DMubgs0OURjtTsHi1f//+5jMhbkLfmGE4gNECqRcHJij4+eefTcib34wePVpeeeUVOeqoo4yZyaJXi3iwZNPIEHeZhB9EsbxLIEp1v2UIY4sttjD+JI4tt9xSHnvsMfevdSDKRsQJkJPDinn+32qrrUwd9VD/E204ePBg45OCtM477zxzb3w2ELlFTLgajkUjQtRlErfeemvGmfnN7oBff/21+Tui4d0Iyu5KZ1EoLNk0UkRZJsFWpF26dMlUV1ebd3DvvPPO5tW4fthd6SwKgV2uYGFhURRYn42FhUVRYMnGwsKiKLBkY2FhURRYsrGwsCgKLNlYWFgUBZZsLCwsigJLNhYWFkWBJRsLC4uiwJKNhYVFUWDJxsLCoiiwZGNhYVEUWLKxsLAoCizZWFhYFAEi/w9B6AXtqZ8H5QAAAABJRU5ErkJggg==;" vertex="1" parent="1">
          <mxGeometry x="365.04" y="400" width="168.96" height="160" as="geometry" />
        </mxCell>
        <mxCell id="a9jTL9NMfUKS2hj44hUL-31" value="x,y&lt;br&gt;coordinates" style="text;html=1;strokeColor=none;fillColor=none;align=center;verticalAlign=middle;whiteSpace=wrap;rounded=0;" vertex="1" parent="1">
          <mxGeometry x="229" y="80" width="60" height="30" as="geometry" />
        </mxCell>
        <mxCell id="a9jTL9NMfUKS2hj44hUL-32" value="z&lt;br&gt;coordinate" style="text;html=1;strokeColor=none;fillColor=none;align=center;verticalAlign=middle;whiteSpace=wrap;rounded=0;" vertex="1" parent="1">
          <mxGeometry x="669" y="141" width="60" height="30" as="geometry" />
        </mxCell>
      </root>
    </mxGraphModel>
  </diagram>
</mxfile>
